<?xml version="1.0" encoding="utf-8" standalone="no"?>
<!DOCTYPE svg PUBLIC "-//W3C//DTD SVG 1.1//EN"
  "http://www.w3.org/Graphics/SVG/1.1/DTD/svg11.dtd">
<!-- Created with matplotlib (https://matplotlib.org/) -->
<svg height="864pt" version="1.1" viewBox="0 0 1152 864" width="1152pt" xmlns="http://www.w3.org/2000/svg" xmlns:xlink="http://www.w3.org/1999/xlink">
 <defs>
  <style type="text/css">
*{stroke-linecap:butt;stroke-linejoin:round;}
  </style>
 </defs>
 <g id="figure_1">
  <g id="patch_1">
   <path d="M 0 864 
L 1152 864 
L 1152 0 
L 0 0 
z
" style="fill:#ffffff;"/>
  </g>
  <g id="axes_1">
   <g id="patch_2">
    <path d="M 144 756 
L 1036.8 756 
L 1036.8 103.68 
L 144 103.68 
z
" style="fill:#e5e5e5;"/>
   </g>
   <g id="matplotlib.axis_1">
    <g id="xtick_1">
     <g id="line2d_1">
      <path clip-path="url(#p675a903abb)" d="M 144 756 
L 144 103.68 
" style="fill:none;stroke:#ffffff;stroke-linecap:square;stroke-width:0.8;"/>
     </g>
     <g id="line2d_2">
      <defs>
       <path d="M 0 0 
L 0 3.5 
" id="m4c2237f904" style="stroke:#555555;stroke-width:0.8;"/>
      </defs>
      <g>
       <use style="fill:#555555;stroke:#555555;stroke-width:0.8;" x="144" xlink:href="#m4c2237f904" y="756"/>
      </g>
     </g>
    </g>
    <g id="xtick_2">
     <g id="line2d_3">
      <path clip-path="url(#p675a903abb)" d="M 196.399097 756 
L 196.399097 103.68 
" style="fill:none;stroke:#ffffff;stroke-linecap:square;stroke-width:0.8;"/>
     </g>
     <g id="line2d_4">
      <g>
       <use style="fill:#555555;stroke:#555555;stroke-width:0.8;" x="196.399097" xlink:href="#m4c2237f904" y="756"/>
      </g>
     </g>
     <g id="text_1">
      <!-- 2002 -->
      <defs>
       <path d="M 19.1875 8.296875 
L 53.609375 8.296875 
L 53.609375 0 
L 7.328125 0 
L 7.328125 8.296875 
Q 12.9375 14.109375 22.625 23.890625 
Q 32.328125 33.6875 34.8125 36.53125 
Q 39.546875 41.84375 41.421875 45.53125 
Q 43.3125 49.21875 43.3125 52.78125 
Q 43.3125 58.59375 39.234375 62.25 
Q 35.15625 65.921875 28.609375 65.921875 
Q 23.96875 65.921875 18.8125 64.3125 
Q 13.671875 62.703125 7.8125 59.421875 
L 7.8125 69.390625 
Q 13.765625 71.78125 18.9375 73 
Q 24.125 74.21875 28.421875 74.21875 
Q 39.75 74.21875 46.484375 68.546875 
Q 53.21875 62.890625 53.21875 53.421875 
Q 53.21875 48.921875 51.53125 44.890625 
Q 49.859375 40.875 45.40625 35.40625 
Q 44.1875 33.984375 37.640625 27.21875 
Q 31.109375 20.453125 19.1875 8.296875 
z
" id="DejaVuSans-50"/>
       <path d="M 31.78125 66.40625 
Q 24.171875 66.40625 20.328125 58.90625 
Q 16.5 51.421875 16.5 36.375 
Q 16.5 21.390625 20.328125 13.890625 
Q 24.171875 6.390625 31.78125 6.390625 
Q 39.453125 6.390625 43.28125 13.890625 
Q 47.125 21.390625 47.125 36.375 
Q 47.125 51.421875 43.28125 58.90625 
Q 39.453125 66.40625 31.78125 66.40625 
z
M 31.78125 74.21875 
Q 44.046875 74.21875 50.515625 64.515625 
Q 56.984375 54.828125 56.984375 36.375 
Q 56.984375 17.96875 50.515625 8.265625 
Q 44.046875 -1.421875 31.78125 -1.421875 
Q 19.53125 -1.421875 13.0625 8.265625 
Q 6.59375 17.96875 6.59375 36.375 
Q 6.59375 54.828125 13.0625 64.515625 
Q 19.53125 74.21875 31.78125 74.21875 
z
" id="DejaVuSans-48"/>
      </defs>
      <g style="fill:#555555;" transform="translate(183.674097 770.598438)scale(0.1 -0.1)">
       <use xlink:href="#DejaVuSans-50"/>
       <use x="63.623047" xlink:href="#DejaVuSans-48"/>
       <use x="127.246094" xlink:href="#DejaVuSans-48"/>
       <use x="190.869141" xlink:href="#DejaVuSans-50"/>
      </g>
     </g>
    </g>
    <g id="xtick_3">
     <g id="line2d_5">
      <path clip-path="url(#p675a903abb)" d="M 301.197291 756 
L 301.197291 103.68 
" style="fill:none;stroke:#ffffff;stroke-linecap:square;stroke-width:0.8;"/>
     </g>
     <g id="line2d_6">
      <g>
       <use style="fill:#555555;stroke:#555555;stroke-width:0.8;" x="301.197291" xlink:href="#m4c2237f904" y="756"/>
      </g>
     </g>
     <g id="text_2">
      <!-- 2004 -->
      <defs>
       <path d="M 37.796875 64.3125 
L 12.890625 25.390625 
L 37.796875 25.390625 
z
M 35.203125 72.90625 
L 47.609375 72.90625 
L 47.609375 25.390625 
L 58.015625 25.390625 
L 58.015625 17.1875 
L 47.609375 17.1875 
L 47.609375 0 
L 37.796875 0 
L 37.796875 17.1875 
L 4.890625 17.1875 
L 4.890625 26.703125 
z
" id="DejaVuSans-52"/>
      </defs>
      <g style="fill:#555555;" transform="translate(288.472291 770.598438)scale(0.1 -0.1)">
       <use xlink:href="#DejaVuSans-50"/>
       <use x="63.623047" xlink:href="#DejaVuSans-48"/>
       <use x="127.246094" xlink:href="#DejaVuSans-48"/>
       <use x="190.869141" xlink:href="#DejaVuSans-52"/>
      </g>
     </g>
    </g>
    <g id="xtick_4">
     <g id="line2d_7">
      <path clip-path="url(#p675a903abb)" d="M 405.995485 756 
L 405.995485 103.68 
" style="fill:none;stroke:#ffffff;stroke-linecap:square;stroke-width:0.8;"/>
     </g>
     <g id="line2d_8">
      <g>
       <use style="fill:#555555;stroke:#555555;stroke-width:0.8;" x="405.995485" xlink:href="#m4c2237f904" y="756"/>
      </g>
     </g>
     <g id="text_3">
      <!-- 2006 -->
      <defs>
       <path d="M 33.015625 40.375 
Q 26.375 40.375 22.484375 35.828125 
Q 18.609375 31.296875 18.609375 23.390625 
Q 18.609375 15.53125 22.484375 10.953125 
Q 26.375 6.390625 33.015625 6.390625 
Q 39.65625 6.390625 43.53125 10.953125 
Q 47.40625 15.53125 47.40625 23.390625 
Q 47.40625 31.296875 43.53125 35.828125 
Q 39.65625 40.375 33.015625 40.375 
z
M 52.59375 71.296875 
L 52.59375 62.3125 
Q 48.875 64.0625 45.09375 64.984375 
Q 41.3125 65.921875 37.59375 65.921875 
Q 27.828125 65.921875 22.671875 59.328125 
Q 17.53125 52.734375 16.796875 39.40625 
Q 19.671875 43.65625 24.015625 45.921875 
Q 28.375 48.1875 33.59375 48.1875 
Q 44.578125 48.1875 50.953125 41.515625 
Q 57.328125 34.859375 57.328125 23.390625 
Q 57.328125 12.15625 50.6875 5.359375 
Q 44.046875 -1.421875 33.015625 -1.421875 
Q 20.359375 -1.421875 13.671875 8.265625 
Q 6.984375 17.96875 6.984375 36.375 
Q 6.984375 53.65625 15.1875 63.9375 
Q 23.390625 74.21875 37.203125 74.21875 
Q 40.921875 74.21875 44.703125 73.484375 
Q 48.484375 72.75 52.59375 71.296875 
z
" id="DejaVuSans-54"/>
      </defs>
      <g style="fill:#555555;" transform="translate(393.270485 770.598438)scale(0.1 -0.1)">
       <use xlink:href="#DejaVuSans-50"/>
       <use x="63.623047" xlink:href="#DejaVuSans-48"/>
       <use x="127.246094" xlink:href="#DejaVuSans-48"/>
       <use x="190.869141" xlink:href="#DejaVuSans-54"/>
      </g>
     </g>
    </g>
    <g id="xtick_5">
     <g id="line2d_9">
      <path clip-path="url(#p675a903abb)" d="M 511.801354 756 
L 511.801354 103.68 
" style="fill:none;stroke:#ffffff;stroke-linecap:square;stroke-width:0.8;"/>
     </g>
     <g id="line2d_10">
      <g>
       <use style="fill:#555555;stroke:#555555;stroke-width:0.8;" x="511.801354" xlink:href="#m4c2237f904" y="756"/>
      </g>
     </g>
     <g id="text_4">
      <!-- 2008 -->
      <defs>
       <path d="M 31.78125 34.625 
Q 24.75 34.625 20.71875 30.859375 
Q 16.703125 27.09375 16.703125 20.515625 
Q 16.703125 13.921875 20.71875 10.15625 
Q 24.75 6.390625 31.78125 6.390625 
Q 38.8125 6.390625 42.859375 10.171875 
Q 46.921875 13.96875 46.921875 20.515625 
Q 46.921875 27.09375 42.890625 30.859375 
Q 38.875 34.625 31.78125 34.625 
z
M 21.921875 38.8125 
Q 15.578125 40.375 12.03125 44.71875 
Q 8.5 49.078125 8.5 55.328125 
Q 8.5 64.0625 14.71875 69.140625 
Q 20.953125 74.21875 31.78125 74.21875 
Q 42.671875 74.21875 48.875 69.140625 
Q 55.078125 64.0625 55.078125 55.328125 
Q 55.078125 49.078125 51.53125 44.71875 
Q 48 40.375 41.703125 38.8125 
Q 48.828125 37.15625 52.796875 32.3125 
Q 56.78125 27.484375 56.78125 20.515625 
Q 56.78125 9.90625 50.3125 4.234375 
Q 43.84375 -1.421875 31.78125 -1.421875 
Q 19.734375 -1.421875 13.25 4.234375 
Q 6.78125 9.90625 6.78125 20.515625 
Q 6.78125 27.484375 10.78125 32.3125 
Q 14.796875 37.15625 21.921875 38.8125 
z
M 18.3125 54.390625 
Q 18.3125 48.734375 21.84375 45.5625 
Q 25.390625 42.390625 31.78125 42.390625 
Q 38.140625 42.390625 41.71875 45.5625 
Q 45.3125 48.734375 45.3125 54.390625 
Q 45.3125 60.0625 41.71875 63.234375 
Q 38.140625 66.40625 31.78125 66.40625 
Q 25.390625 66.40625 21.84375 63.234375 
Q 18.3125 60.0625 18.3125 54.390625 
z
" id="DejaVuSans-56"/>
      </defs>
      <g style="fill:#555555;" transform="translate(499.076354 770.598438)scale(0.1 -0.1)">
       <use xlink:href="#DejaVuSans-50"/>
       <use x="63.623047" xlink:href="#DejaVuSans-48"/>
       <use x="127.246094" xlink:href="#DejaVuSans-48"/>
       <use x="190.869141" xlink:href="#DejaVuSans-56"/>
      </g>
     </g>
    </g>
    <g id="xtick_6">
     <g id="line2d_11">
      <path clip-path="url(#p675a903abb)" d="M 616.599549 756 
L 616.599549 103.68 
" style="fill:none;stroke:#ffffff;stroke-linecap:square;stroke-width:0.8;"/>
     </g>
     <g id="line2d_12">
      <g>
       <use style="fill:#555555;stroke:#555555;stroke-width:0.8;" x="616.599549" xlink:href="#m4c2237f904" y="756"/>
      </g>
     </g>
     <g id="text_5">
      <!-- 2010 -->
      <defs>
       <path d="M 12.40625 8.296875 
L 28.515625 8.296875 
L 28.515625 63.921875 
L 10.984375 60.40625 
L 10.984375 69.390625 
L 28.421875 72.90625 
L 38.28125 72.90625 
L 38.28125 8.296875 
L 54.390625 8.296875 
L 54.390625 0 
L 12.40625 0 
z
" id="DejaVuSans-49"/>
      </defs>
      <g style="fill:#555555;" transform="translate(603.874549 770.598438)scale(0.1 -0.1)">
       <use xlink:href="#DejaVuSans-50"/>
       <use x="63.623047" xlink:href="#DejaVuSans-48"/>
       <use x="127.246094" xlink:href="#DejaVuSans-49"/>
       <use x="190.869141" xlink:href="#DejaVuSans-48"/>
      </g>
     </g>
    </g>
    <g id="xtick_7">
     <g id="line2d_13">
      <path clip-path="url(#p675a903abb)" d="M 721.397743 756 
L 721.397743 103.68 
" style="fill:none;stroke:#ffffff;stroke-linecap:square;stroke-width:0.8;"/>
     </g>
     <g id="line2d_14">
      <g>
       <use style="fill:#555555;stroke:#555555;stroke-width:0.8;" x="721.397743" xlink:href="#m4c2237f904" y="756"/>
      </g>
     </g>
     <g id="text_6">
      <!-- 2012 -->
      <g style="fill:#555555;" transform="translate(708.672743 770.598438)scale(0.1 -0.1)">
       <use xlink:href="#DejaVuSans-50"/>
       <use x="63.623047" xlink:href="#DejaVuSans-48"/>
       <use x="127.246094" xlink:href="#DejaVuSans-49"/>
       <use x="190.869141" xlink:href="#DejaVuSans-50"/>
      </g>
     </g>
    </g>
    <g id="xtick_8">
     <g id="line2d_15">
      <path clip-path="url(#p675a903abb)" d="M 827.203612 756 
L 827.203612 103.68 
" style="fill:none;stroke:#ffffff;stroke-linecap:square;stroke-width:0.8;"/>
     </g>
     <g id="line2d_16">
      <g>
       <use style="fill:#555555;stroke:#555555;stroke-width:0.8;" x="827.203612" xlink:href="#m4c2237f904" y="756"/>
      </g>
     </g>
     <g id="text_7">
      <!-- 2014 -->
      <g style="fill:#555555;" transform="translate(814.478612 770.598438)scale(0.1 -0.1)">
       <use xlink:href="#DejaVuSans-50"/>
       <use x="63.623047" xlink:href="#DejaVuSans-48"/>
       <use x="127.246094" xlink:href="#DejaVuSans-49"/>
       <use x="190.869141" xlink:href="#DejaVuSans-52"/>
      </g>
     </g>
    </g>
    <g id="xtick_9">
     <g id="line2d_17">
      <path clip-path="url(#p675a903abb)" d="M 932.001806 756 
L 932.001806 103.68 
" style="fill:none;stroke:#ffffff;stroke-linecap:square;stroke-width:0.8;"/>
     </g>
     <g id="line2d_18">
      <g>
       <use style="fill:#555555;stroke:#555555;stroke-width:0.8;" x="932.001806" xlink:href="#m4c2237f904" y="756"/>
      </g>
     </g>
     <g id="text_8">
      <!-- 2016 -->
      <g style="fill:#555555;" transform="translate(919.276806 770.598438)scale(0.1 -0.1)">
       <use xlink:href="#DejaVuSans-50"/>
       <use x="63.623047" xlink:href="#DejaVuSans-48"/>
       <use x="127.246094" xlink:href="#DejaVuSans-49"/>
       <use x="190.869141" xlink:href="#DejaVuSans-54"/>
      </g>
     </g>
    </g>
    <g id="xtick_10">
     <g id="line2d_19">
      <path clip-path="url(#p675a903abb)" d="M 1036.8 756 
L 1036.8 103.68 
" style="fill:none;stroke:#ffffff;stroke-linecap:square;stroke-width:0.8;"/>
     </g>
     <g id="line2d_20">
      <g>
       <use style="fill:#555555;stroke:#555555;stroke-width:0.8;" x="1036.8" xlink:href="#m4c2237f904" y="756"/>
      </g>
     </g>
    </g>
    <g id="xtick_11">
     <g id="line2d_21">
      <defs>
       <path d="M 0 0 
L 0 2 
" id="mf8dba0ac7d" style="stroke:#555555;stroke-width:0.6;"/>
      </defs>
      <g>
       <use style="fill:#555555;stroke:#555555;stroke-width:0.6;" x="248.798194" xlink:href="#mf8dba0ac7d" y="756"/>
      </g>
     </g>
    </g>
    <g id="xtick_12">
     <g id="line2d_22">
      <g>
       <use style="fill:#555555;stroke:#555555;stroke-width:0.6;" x="353.596388" xlink:href="#mf8dba0ac7d" y="756"/>
      </g>
     </g>
    </g>
    <g id="xtick_13">
     <g id="line2d_23">
      <g>
       <use style="fill:#555555;stroke:#555555;stroke-width:0.6;" x="459.402257" xlink:href="#mf8dba0ac7d" y="756"/>
      </g>
     </g>
    </g>
    <g id="xtick_14">
     <g id="line2d_24">
      <g>
       <use style="fill:#555555;stroke:#555555;stroke-width:0.6;" x="564.200451" xlink:href="#mf8dba0ac7d" y="756"/>
      </g>
     </g>
    </g>
    <g id="xtick_15">
     <g id="line2d_25">
      <g>
       <use style="fill:#555555;stroke:#555555;stroke-width:0.6;" x="668.998646" xlink:href="#mf8dba0ac7d" y="756"/>
      </g>
     </g>
    </g>
    <g id="xtick_16">
     <g id="line2d_26">
      <g>
       <use style="fill:#555555;stroke:#555555;stroke-width:0.6;" x="774.804515" xlink:href="#mf8dba0ac7d" y="756"/>
      </g>
     </g>
    </g>
    <g id="xtick_17">
     <g id="line2d_27">
      <g>
       <use style="fill:#555555;stroke:#555555;stroke-width:0.6;" x="879.602709" xlink:href="#mf8dba0ac7d" y="756"/>
      </g>
     </g>
    </g>
    <g id="xtick_18">
     <g id="line2d_28">
      <g>
       <use style="fill:#555555;stroke:#555555;stroke-width:0.6;" x="984.400903" xlink:href="#mf8dba0ac7d" y="756"/>
      </g>
     </g>
    </g>
    <g id="text_9">
     <!-- Date -->
     <defs>
      <path d="M 19.671875 64.796875 
L 19.671875 8.109375 
L 31.59375 8.109375 
Q 46.6875 8.109375 53.6875 14.9375 
Q 60.6875 21.78125 60.6875 36.53125 
Q 60.6875 51.171875 53.6875 57.984375 
Q 46.6875 64.796875 31.59375 64.796875 
z
M 9.8125 72.90625 
L 30.078125 72.90625 
Q 51.265625 72.90625 61.171875 64.09375 
Q 71.09375 55.28125 71.09375 36.53125 
Q 71.09375 17.671875 61.125 8.828125 
Q 51.171875 0 30.078125 0 
L 9.8125 0 
z
" id="DejaVuSans-68"/>
      <path d="M 34.28125 27.484375 
Q 23.390625 27.484375 19.1875 25 
Q 14.984375 22.515625 14.984375 16.5 
Q 14.984375 11.71875 18.140625 8.90625 
Q 21.296875 6.109375 26.703125 6.109375 
Q 34.1875 6.109375 38.703125 11.40625 
Q 43.21875 16.703125 43.21875 25.484375 
L 43.21875 27.484375 
z
M 52.203125 31.203125 
L 52.203125 0 
L 43.21875 0 
L 43.21875 8.296875 
Q 40.140625 3.328125 35.546875 0.953125 
Q 30.953125 -1.421875 24.3125 -1.421875 
Q 15.921875 -1.421875 10.953125 3.296875 
Q 6 8.015625 6 15.921875 
Q 6 25.140625 12.171875 29.828125 
Q 18.359375 34.515625 30.609375 34.515625 
L 43.21875 34.515625 
L 43.21875 35.40625 
Q 43.21875 41.609375 39.140625 45 
Q 35.0625 48.390625 27.6875 48.390625 
Q 23 48.390625 18.546875 47.265625 
Q 14.109375 46.140625 10.015625 43.890625 
L 10.015625 52.203125 
Q 14.9375 54.109375 19.578125 55.046875 
Q 24.21875 56 28.609375 56 
Q 40.484375 56 46.34375 49.84375 
Q 52.203125 43.703125 52.203125 31.203125 
z
" id="DejaVuSans-97"/>
      <path d="M 18.3125 70.21875 
L 18.3125 54.6875 
L 36.8125 54.6875 
L 36.8125 47.703125 
L 18.3125 47.703125 
L 18.3125 18.015625 
Q 18.3125 11.328125 20.140625 9.421875 
Q 21.96875 7.515625 27.59375 7.515625 
L 36.8125 7.515625 
L 36.8125 0 
L 27.59375 0 
Q 17.1875 0 13.234375 3.875 
Q 9.28125 7.765625 9.28125 18.015625 
L 9.28125 47.703125 
L 2.6875 47.703125 
L 2.6875 54.6875 
L 9.28125 54.6875 
L 9.28125 70.21875 
z
" id="DejaVuSans-116"/>
      <path d="M 56.203125 29.59375 
L 56.203125 25.203125 
L 14.890625 25.203125 
Q 15.484375 15.921875 20.484375 11.0625 
Q 25.484375 6.203125 34.421875 6.203125 
Q 39.59375 6.203125 44.453125 7.46875 
Q 49.3125 8.734375 54.109375 11.28125 
L 54.109375 2.78125 
Q 49.265625 0.734375 44.1875 -0.34375 
Q 39.109375 -1.421875 33.890625 -1.421875 
Q 20.796875 -1.421875 13.15625 6.1875 
Q 5.515625 13.8125 5.515625 26.8125 
Q 5.515625 40.234375 12.765625 48.109375 
Q 20.015625 56 32.328125 56 
Q 43.359375 56 49.78125 48.890625 
Q 56.203125 41.796875 56.203125 29.59375 
z
M 47.21875 32.234375 
Q 47.125 39.59375 43.09375 43.984375 
Q 39.0625 48.390625 32.421875 48.390625 
Q 24.90625 48.390625 20.390625 44.140625 
Q 15.875 39.890625 15.1875 32.171875 
z
" id="DejaVuSans-101"/>
     </defs>
     <g style="fill:#555555;" transform="translate(576.059062 785.79625)scale(0.12 -0.12)">
      <use xlink:href="#DejaVuSans-68"/>
      <use x="77.001953" xlink:href="#DejaVuSans-97"/>
      <use x="138.28125" xlink:href="#DejaVuSans-116"/>
      <use x="177.490234" xlink:href="#DejaVuSans-101"/>
     </g>
    </g>
   </g>
   <g id="matplotlib.axis_2">
    <g id="ytick_1">
     <g id="line2d_29">
      <path clip-path="url(#p675a903abb)" d="M 144 727.715407 
L 1036.8 727.715407 
" style="fill:none;stroke:#ffffff;stroke-linecap:square;stroke-width:0.8;"/>
     </g>
     <g id="line2d_30">
      <defs>
       <path d="M 0 0 
L -3.5 0 
" id="m338e23d7b5" style="stroke:#555555;stroke-width:0.8;"/>
      </defs>
      <g>
       <use style="fill:#555555;stroke:#555555;stroke-width:0.8;" x="144" xlink:href="#m338e23d7b5" y="727.715407"/>
      </g>
     </g>
     <g id="text_10">
      <!-- 1000 -->
      <g style="fill:#555555;" transform="translate(111.55 731.514626)scale(0.1 -0.1)">
       <use xlink:href="#DejaVuSans-49"/>
       <use x="63.623047" xlink:href="#DejaVuSans-48"/>
       <use x="127.246094" xlink:href="#DejaVuSans-48"/>
       <use x="190.869141" xlink:href="#DejaVuSans-48"/>
      </g>
     </g>
    </g>
    <g id="ytick_2">
     <g id="line2d_31">
      <path clip-path="url(#p675a903abb)" d="M 144 610.495389 
L 1036.8 610.495389 
" style="fill:none;stroke:#ffffff;stroke-linecap:square;stroke-width:0.8;"/>
     </g>
     <g id="line2d_32">
      <g>
       <use style="fill:#555555;stroke:#555555;stroke-width:0.8;" x="144" xlink:href="#m338e23d7b5" y="610.495389"/>
      </g>
     </g>
     <g id="text_11">
      <!-- 2000 -->
      <g style="fill:#555555;" transform="translate(111.55 614.294608)scale(0.1 -0.1)">
       <use xlink:href="#DejaVuSans-50"/>
       <use x="63.623047" xlink:href="#DejaVuSans-48"/>
       <use x="127.246094" xlink:href="#DejaVuSans-48"/>
       <use x="190.869141" xlink:href="#DejaVuSans-48"/>
      </g>
     </g>
    </g>
    <g id="ytick_3">
     <g id="line2d_33">
      <path clip-path="url(#p675a903abb)" d="M 144 493.275371 
L 1036.8 493.275371 
" style="fill:none;stroke:#ffffff;stroke-linecap:square;stroke-width:0.8;"/>
     </g>
     <g id="line2d_34">
      <g>
       <use style="fill:#555555;stroke:#555555;stroke-width:0.8;" x="144" xlink:href="#m338e23d7b5" y="493.275371"/>
      </g>
     </g>
     <g id="text_12">
      <!-- 3000 -->
      <defs>
       <path d="M 40.578125 39.3125 
Q 47.65625 37.796875 51.625 33 
Q 55.609375 28.21875 55.609375 21.1875 
Q 55.609375 10.40625 48.1875 4.484375 
Q 40.765625 -1.421875 27.09375 -1.421875 
Q 22.515625 -1.421875 17.65625 -0.515625 
Q 12.796875 0.390625 7.625 2.203125 
L 7.625 11.71875 
Q 11.71875 9.328125 16.59375 8.109375 
Q 21.484375 6.890625 26.8125 6.890625 
Q 36.078125 6.890625 40.9375 10.546875 
Q 45.796875 14.203125 45.796875 21.1875 
Q 45.796875 27.640625 41.28125 31.265625 
Q 36.765625 34.90625 28.71875 34.90625 
L 20.21875 34.90625 
L 20.21875 43.015625 
L 29.109375 43.015625 
Q 36.375 43.015625 40.234375 45.921875 
Q 44.09375 48.828125 44.09375 54.296875 
Q 44.09375 59.90625 40.109375 62.90625 
Q 36.140625 65.921875 28.71875 65.921875 
Q 24.65625 65.921875 20.015625 65.03125 
Q 15.375 64.15625 9.8125 62.3125 
L 9.8125 71.09375 
Q 15.4375 72.65625 20.34375 73.4375 
Q 25.25 74.21875 29.59375 74.21875 
Q 40.828125 74.21875 47.359375 69.109375 
Q 53.90625 64.015625 53.90625 55.328125 
Q 53.90625 49.265625 50.4375 45.09375 
Q 46.96875 40.921875 40.578125 39.3125 
z
" id="DejaVuSans-51"/>
      </defs>
      <g style="fill:#555555;" transform="translate(111.55 497.07459)scale(0.1 -0.1)">
       <use xlink:href="#DejaVuSans-51"/>
       <use x="63.623047" xlink:href="#DejaVuSans-48"/>
       <use x="127.246094" xlink:href="#DejaVuSans-48"/>
       <use x="190.869141" xlink:href="#DejaVuSans-48"/>
      </g>
     </g>
    </g>
    <g id="ytick_4">
     <g id="line2d_35">
      <path clip-path="url(#p675a903abb)" d="M 144 376.055353 
L 1036.8 376.055353 
" style="fill:none;stroke:#ffffff;stroke-linecap:square;stroke-width:0.8;"/>
     </g>
     <g id="line2d_36">
      <g>
       <use style="fill:#555555;stroke:#555555;stroke-width:0.8;" x="144" xlink:href="#m338e23d7b5" y="376.055353"/>
      </g>
     </g>
     <g id="text_13">
      <!-- 4000 -->
      <g style="fill:#555555;" transform="translate(111.55 379.854572)scale(0.1 -0.1)">
       <use xlink:href="#DejaVuSans-52"/>
       <use x="63.623047" xlink:href="#DejaVuSans-48"/>
       <use x="127.246094" xlink:href="#DejaVuSans-48"/>
       <use x="190.869141" xlink:href="#DejaVuSans-48"/>
      </g>
     </g>
    </g>
    <g id="ytick_5">
     <g id="line2d_37">
      <path clip-path="url(#p675a903abb)" d="M 144 258.835335 
L 1036.8 258.835335 
" style="fill:none;stroke:#ffffff;stroke-linecap:square;stroke-width:0.8;"/>
     </g>
     <g id="line2d_38">
      <g>
       <use style="fill:#555555;stroke:#555555;stroke-width:0.8;" x="144" xlink:href="#m338e23d7b5" y="258.835335"/>
      </g>
     </g>
     <g id="text_14">
      <!-- 5000 -->
      <defs>
       <path d="M 10.796875 72.90625 
L 49.515625 72.90625 
L 49.515625 64.59375 
L 19.828125 64.59375 
L 19.828125 46.734375 
Q 21.96875 47.46875 24.109375 47.828125 
Q 26.265625 48.1875 28.421875 48.1875 
Q 40.625 48.1875 47.75 41.5 
Q 54.890625 34.8125 54.890625 23.390625 
Q 54.890625 11.625 47.5625 5.09375 
Q 40.234375 -1.421875 26.90625 -1.421875 
Q 22.3125 -1.421875 17.546875 -0.640625 
Q 12.796875 0.140625 7.71875 1.703125 
L 7.71875 11.625 
Q 12.109375 9.234375 16.796875 8.0625 
Q 21.484375 6.890625 26.703125 6.890625 
Q 35.15625 6.890625 40.078125 11.328125 
Q 45.015625 15.765625 45.015625 23.390625 
Q 45.015625 31 40.078125 35.4375 
Q 35.15625 39.890625 26.703125 39.890625 
Q 22.75 39.890625 18.8125 39.015625 
Q 14.890625 38.140625 10.796875 36.28125 
z
" id="DejaVuSans-53"/>
      </defs>
      <g style="fill:#555555;" transform="translate(111.55 262.634554)scale(0.1 -0.1)">
       <use xlink:href="#DejaVuSans-53"/>
       <use x="63.623047" xlink:href="#DejaVuSans-48"/>
       <use x="127.246094" xlink:href="#DejaVuSans-48"/>
       <use x="190.869141" xlink:href="#DejaVuSans-48"/>
      </g>
     </g>
    </g>
    <g id="ytick_6">
     <g id="line2d_39">
      <path clip-path="url(#p675a903abb)" d="M 144 141.615317 
L 1036.8 141.615317 
" style="fill:none;stroke:#ffffff;stroke-linecap:square;stroke-width:0.8;"/>
     </g>
     <g id="line2d_40">
      <g>
       <use style="fill:#555555;stroke:#555555;stroke-width:0.8;" x="144" xlink:href="#m338e23d7b5" y="141.615317"/>
      </g>
     </g>
     <g id="text_15">
      <!-- 6000 -->
      <g style="fill:#555555;" transform="translate(111.55 145.414535)scale(0.1 -0.1)">
       <use xlink:href="#DejaVuSans-54"/>
       <use x="63.623047" xlink:href="#DejaVuSans-48"/>
       <use x="127.246094" xlink:href="#DejaVuSans-48"/>
       <use x="190.869141" xlink:href="#DejaVuSans-48"/>
      </g>
     </g>
    </g>
    <g id="text_16">
     <!-- Average Index -->
     <defs>
      <path d="M 34.1875 63.1875 
L 20.796875 26.90625 
L 47.609375 26.90625 
z
M 28.609375 72.90625 
L 39.796875 72.90625 
L 67.578125 0 
L 57.328125 0 
L 50.6875 18.703125 
L 17.828125 18.703125 
L 11.1875 0 
L 0.78125 0 
z
" id="DejaVuSans-65"/>
      <path d="M 2.984375 54.6875 
L 12.5 54.6875 
L 29.59375 8.796875 
L 46.6875 54.6875 
L 56.203125 54.6875 
L 35.6875 0 
L 23.484375 0 
z
" id="DejaVuSans-118"/>
      <path d="M 41.109375 46.296875 
Q 39.59375 47.171875 37.8125 47.578125 
Q 36.03125 48 33.890625 48 
Q 26.265625 48 22.1875 43.046875 
Q 18.109375 38.09375 18.109375 28.8125 
L 18.109375 0 
L 9.078125 0 
L 9.078125 54.6875 
L 18.109375 54.6875 
L 18.109375 46.1875 
Q 20.953125 51.171875 25.484375 53.578125 
Q 30.03125 56 36.53125 56 
Q 37.453125 56 38.578125 55.875 
Q 39.703125 55.765625 41.0625 55.515625 
z
" id="DejaVuSans-114"/>
      <path d="M 45.40625 27.984375 
Q 45.40625 37.75 41.375 43.109375 
Q 37.359375 48.484375 30.078125 48.484375 
Q 22.859375 48.484375 18.828125 43.109375 
Q 14.796875 37.75 14.796875 27.984375 
Q 14.796875 18.265625 18.828125 12.890625 
Q 22.859375 7.515625 30.078125 7.515625 
Q 37.359375 7.515625 41.375 12.890625 
Q 45.40625 18.265625 45.40625 27.984375 
z
M 54.390625 6.78125 
Q 54.390625 -7.171875 48.1875 -13.984375 
Q 42 -20.796875 29.203125 -20.796875 
Q 24.46875 -20.796875 20.265625 -20.09375 
Q 16.0625 -19.390625 12.109375 -17.921875 
L 12.109375 -9.1875 
Q 16.0625 -11.328125 19.921875 -12.34375 
Q 23.78125 -13.375 27.78125 -13.375 
Q 36.625 -13.375 41.015625 -8.765625 
Q 45.40625 -4.15625 45.40625 5.171875 
L 45.40625 9.625 
Q 42.625 4.78125 38.28125 2.390625 
Q 33.9375 0 27.875 0 
Q 17.828125 0 11.671875 7.65625 
Q 5.515625 15.328125 5.515625 27.984375 
Q 5.515625 40.671875 11.671875 48.328125 
Q 17.828125 56 27.875 56 
Q 33.9375 56 38.28125 53.609375 
Q 42.625 51.21875 45.40625 46.390625 
L 45.40625 54.6875 
L 54.390625 54.6875 
z
" id="DejaVuSans-103"/>
      <path id="DejaVuSans-32"/>
      <path d="M 9.8125 72.90625 
L 19.671875 72.90625 
L 19.671875 0 
L 9.8125 0 
z
" id="DejaVuSans-73"/>
      <path d="M 54.890625 33.015625 
L 54.890625 0 
L 45.90625 0 
L 45.90625 32.71875 
Q 45.90625 40.484375 42.875 44.328125 
Q 39.84375 48.1875 33.796875 48.1875 
Q 26.515625 48.1875 22.3125 43.546875 
Q 18.109375 38.921875 18.109375 30.90625 
L 18.109375 0 
L 9.078125 0 
L 9.078125 54.6875 
L 18.109375 54.6875 
L 18.109375 46.1875 
Q 21.34375 51.125 25.703125 53.5625 
Q 30.078125 56 35.796875 56 
Q 45.21875 56 50.046875 50.171875 
Q 54.890625 44.34375 54.890625 33.015625 
z
" id="DejaVuSans-110"/>
      <path d="M 45.40625 46.390625 
L 45.40625 75.984375 
L 54.390625 75.984375 
L 54.390625 0 
L 45.40625 0 
L 45.40625 8.203125 
Q 42.578125 3.328125 38.25 0.953125 
Q 33.9375 -1.421875 27.875 -1.421875 
Q 17.96875 -1.421875 11.734375 6.484375 
Q 5.515625 14.40625 5.515625 27.296875 
Q 5.515625 40.1875 11.734375 48.09375 
Q 17.96875 56 27.875 56 
Q 33.9375 56 38.25 53.625 
Q 42.578125 51.265625 45.40625 46.390625 
z
M 14.796875 27.296875 
Q 14.796875 17.390625 18.875 11.75 
Q 22.953125 6.109375 30.078125 6.109375 
Q 37.203125 6.109375 41.296875 11.75 
Q 45.40625 17.390625 45.40625 27.296875 
Q 45.40625 37.203125 41.296875 42.84375 
Q 37.203125 48.484375 30.078125 48.484375 
Q 22.953125 48.484375 18.875 42.84375 
Q 14.796875 37.203125 14.796875 27.296875 
z
" id="DejaVuSans-100"/>
      <path d="M 54.890625 54.6875 
L 35.109375 28.078125 
L 55.90625 0 
L 45.3125 0 
L 29.390625 21.484375 
L 13.484375 0 
L 2.875 0 
L 24.125 28.609375 
L 4.6875 54.6875 
L 15.28125 54.6875 
L 29.78125 35.203125 
L 44.28125 54.6875 
z
" id="DejaVuSans-120"/>
     </defs>
     <g style="fill:#555555;" transform="translate(105.054375 473.357812)rotate(-90)scale(0.12 -0.12)">
      <use xlink:href="#DejaVuSans-65"/>
      <use x="68.330078" xlink:href="#DejaVuSans-118"/>
      <use x="127.509766" xlink:href="#DejaVuSans-101"/>
      <use x="189.033203" xlink:href="#DejaVuSans-114"/>
      <use x="230.146484" xlink:href="#DejaVuSans-97"/>
      <use x="291.425781" xlink:href="#DejaVuSans-103"/>
      <use x="354.902344" xlink:href="#DejaVuSans-101"/>
      <use x="416.425781" xlink:href="#DejaVuSans-32"/>
      <use x="448.212891" xlink:href="#DejaVuSans-73"/>
      <use x="477.705078" xlink:href="#DejaVuSans-110"/>
      <use x="541.083984" xlink:href="#DejaVuSans-100"/>
      <use x="604.560547" xlink:href="#DejaVuSans-101"/>
      <use x="666.068359" xlink:href="#DejaVuSans-120"/>
     </g>
    </g>
   </g>
   <g id="PolyCollection_1">
    <defs>
     <path d="M 1029.746275 -482.092704 
L 1029.746275 -443.790775 
L 1030.75395 -431.982949 
L 1031.761625 -421.430034 
L 1032.7693 -415.470961 
L 1033.776975 -411.732185 
L 1034.78465 -406.518604 
L 1035.792325 -399.941531 
L 1036.8 -396.048206 
L 1036.8 -530.930026 
L 1036.8 -530.930026 
L 1035.792325 -525.654168 
L 1034.78465 -522.338416 
L 1033.776975 -516.731188 
L 1032.7693 -508.397559 
L 1031.761625 -500.461132 
L 1030.75395 -494.083481 
L 1029.746275 -482.092704 
z
" id="mb8b4db0b0a" style="stroke:#000000;stroke-opacity:0.25;stroke-width:0.5;"/>
    </defs>
    <g clip-path="url(#p675a903abb)">
     <use style="fill-opacity:0.25;stroke:#000000;stroke-opacity:0.25;stroke-width:0.5;" x="0" xlink:href="#mb8b4db0b0a" y="864"/>
    </g>
   </g>
   <g id="line2d_41">
    <path clip-path="url(#p675a903abb)" d="M 144 620.569278 
L 145.007675 623.122799 
L 146.01535 623.71054 
L 147.023025 623.477741 
L 148.0307 622.772428 
L 149.038375 621.024795 
L 150.04605 620.457684 
L 151.053725 620.719085 
L 152.0614 618.427199 
L 153.069074 621.534233 
L 154.076749 625.706562 
L 155.084424 627.548323 
L 156.092099 630.444126 
L 157.099774 631.961422 
L 158.107449 632.116036 
L 159.115124 633.433589 
L 160.122799 636.231279 
L 161.130474 637.302142 
L 162.138149 640.867799 
L 163.145824 647.027008 
L 164.153499 651.812398 
L 165.161174 653.43865 
L 166.168849 654.844411 
L 167.176524 656.873958 
L 168.184199 656.000904 
L 169.191874 652.605977 
L 170.199549 651.43284 
L 171.207223 652.955762 
L 173.222573 654.706677 
L 174.230248 655.859302 
L 175.237923 658.310607 
L 177.253273 664.724886 
L 178.260948 667.407584 
L 179.268623 669.540988 
L 180.276298 673.730431 
L 181.283973 676.895372 
L 182.291648 678.92656 
L 183.299323 681.590737 
L 184.306998 680.413027 
L 186.322348 669.982204 
L 187.330023 670.68951 
L 188.337698 672.246192 
L 190.353047 674.020903 
L 191.360722 675.946359 
L 192.368397 678.794805 
L 193.376072 680.260934 
L 194.383747 684.861527 
L 195.391422 686.957616 
L 196.399097 685.648953 
L 197.406772 683.637398 
L 198.414447 683.889421 
L 199.422122 686.388083 
L 200.429797 687.235115 
L 201.437472 688.68372 
L 202.445147 689.061872 
L 203.452822 688.453969 
L 204.460497 689.758393 
L 205.468172 692.96272 
L 206.475847 697.776243 
L 208.491196 705.323747 
L 209.498871 706.703426 
L 210.506546 707.865604 
L 211.514221 709.559199 
L 212.521896 711.880155 
L 213.529571 712.851909 
L 214.537246 712.486652 
L 215.544921 713.399327 
L 216.552596 717.258444 
L 217.560271 720.541777 
L 218.567946 719.418106 
L 219.575621 718.504258 
L 220.583296 718.481283 
L 221.590971 718.272163 
L 222.598646 717.478818 
L 223.606321 717.404266 
L 224.613995 714.946631 
L 225.62167 714.917091 
L 227.63702 718.698375 
L 228.644695 720.124942 
L 229.65237 720.924852 
L 230.660045 722.667445 
L 231.66772 722.660411 
L 232.675395 725.266447 
L 233.68307 726.349091 
L 234.690745 723.988983 
L 236.706095 723.976382 
L 237.71377 722.170197 
L 238.721445 720.792393 
L 239.72912 716.689693 
L 241.74447 700.168703 
L 242.752144 705.502917 
L 243.759819 710.030423 
L 244.767494 708.772359 
L 245.775169 705.13766 
L 246.782844 696.764165 
L 247.790519 692.704132 
L 248.798194 686.09136 
L 249.805869 666.127307 
L 250.813544 664.92838 
L 251.821219 664.934241 
L 252.828894 662.901646 
L 253.836569 666.035641 
L 254.844244 665.765097 
L 255.851919 667.522225 
L 256.859594 665.40992 
L 257.867269 663.799551 
L 258.874944 659.368869 
L 259.882619 661.692404 
L 260.890293 656.702583 
L 261.897968 655.458409 
L 262.905643 653.558273 
L 263.913318 647.602851 
L 264.920993 639.53577 
L 265.928668 630.178389 
L 266.936343 605.96929 
L 267.944018 585.81026 
L 268.951693 602.458785 
L 269.959368 604.918999 
L 270.967043 607.783797 
L 271.974718 608.32213 
L 272.982393 614.184069 
L 273.990068 614.474774 
L 274.997743 618.697274 
L 276.005418 618.500344 
L 277.013093 617.559068 
L 278.020767 616.912482 
L 279.028442 611.683766 
L 280.036117 608.584703 
L 281.043792 606.211935 
L 282.051467 605.186729 
L 283.059142 599.947698 
L 284.066817 598.159858 
L 285.074492 591.408454 
L 286.082167 587.880366 
L 288.097517 565.339425 
L 289.105192 563.067291 
L 290.112867 562.406346 
L 291.120542 556.708105 
L 292.128217 555.909778 
L 293.135892 557.854692 
L 294.143567 556.821046 
L 295.151242 555.054541 
L 296.158916 531.837534 
L 297.166591 521.423883 
L 298.174266 530.385471 
L 299.181941 535.307422 
L 300.189616 529.736267 
L 301.197291 523.504656 
L 302.204966 521.865099 
L 304.220316 508.225612 
L 305.227991 481.59932 
L 306.235666 479.846411 
L 307.243341 474.956461 
L 308.251016 475.661188 
L 309.258691 474.427096 
L 310.266366 475.926808 
L 311.274041 478.35842 
L 312.281716 496.558938 
L 313.289391 505.854486 
L 315.30474 539.231772 
L 316.312415 531.815262 
L 317.32009 522.862173 
L 318.327765 526.244908 
L 319.33544 532.664345 
L 320.343115 533.269904 
L 321.35079 538.769632 
L 322.358465 537.149652 
L 323.36614 530.730097 
L 324.373815 534.588394 
L 325.38149 530.652615 
L 326.389165 530.876974 
L 327.39684 535.579607 
L 328.404515 535.254204 
L 329.41219 530.628233 
L 330.419865 534.557448 
L 331.42754 532.912851 
L 332.435214 524.756917 
L 333.442889 524.176209 
L 334.450564 527.234948 
L 335.458239 529.367649 
L 336.465914 527.048568 
L 337.473589 527.561758 
L 338.481264 532.388643 
L 339.488939 534.792123 
L 340.496614 533.727062 
L 341.504289 532.96771 
L 342.511964 525.631027 
L 343.519639 522.181242 
L 344.527314 515.211222 
L 345.534989 511.449163 
L 346.542664 511.105005 
L 347.550339 507.019711 
L 348.558014 505.27917 
L 349.565688 500.35124 
L 350.573363 494.852918 
L 351.581038 492.353729 
L 352.588713 500.462599 
L 353.596388 501.91478 
L 354.604063 495.225209 
L 355.611738 485.815489 
L 356.619413 483.555956 
L 357.627088 482.342494 
L 358.634763 477.796702 
L 359.642438 470.844617 
L 360.650113 469.217369 
L 361.657788 469.110933 
L 362.665463 469.327556 
L 363.673138 469.410313 
L 365.688488 475.47346 
L 366.696163 477.689211 
L 367.703837 475.277175 
L 368.711512 476.421946 
L 369.719187 475.674082 
L 370.726862 469.030286 
L 371.734537 465.204107 
L 372.742212 461.82735 
L 373.749887 456.770713 
L 374.757562 444.012252 
L 375.765237 434.535248 
L 376.772912 421.450446 
L 377.780587 404.961809 
L 378.788262 395.545291 
L 379.795937 382.88717 
L 380.803612 362.439545 
L 381.811287 349.510411 
L 382.818962 370.324466 
L 383.826637 379.45614 
L 384.834312 373.296228 
L 385.841986 371.51214 
L 386.849661 371.539569 
L 387.857336 374.875182 
L 388.865011 384.569277 
L 389.872686 392.457247 
L 390.880361 398.386939 
L 391.888036 400.819723 
L 392.895711 397.091892 
L 393.903386 394.202653 
L 394.911061 389.069412 
L 395.918736 377.583609 
L 396.926411 377.562568 
L 397.934086 387.202977 
L 398.941761 386.096654 
L 400.957111 380.376083 
L 401.964786 378.007066 
L 402.97246 377.11174 
L 403.980135 381.355456 
L 404.98781 381.173882 
L 405.995485 379.249012 
L 407.00316 374.624097 
L 409.01851 352.504914 
L 410.026185 354.790001 
L 411.03386 356.556037 
L 413.04921 365.6924 
L 414.056885 367.562294 
L 415.06456 370.156842 
L 416.072235 383.540086 
L 417.07991 387.995384 
L 418.087585 374.691615 
L 419.09526 363.83962 
L 420.102935 368.809749 
L 421.110609 377.950215 
L 422.118284 378.764698 
L 423.125959 376.610507 
L 424.133634 364.902747 
L 426.148984 325.746397 
L 427.156659 333.88381 
L 428.164334 334.621886 
L 429.172009 348.134248 
L 430.179684 348.796541 
L 431.187359 343.448729 
L 432.195034 348.018435 
L 433.202709 344.895693 
L 434.210384 343.932379 
L 435.218059 346.730187 
L 436.225734 345.648949 
L 437.233409 342.444623 
L 438.241084 329.740786 
L 439.248758 325.809696 
L 440.256433 321.303758 
L 441.264108 318.623874 
L 442.271783 317.023821 
L 443.279458 299.438239 
L 444.287133 279.123541 
L 445.294808 279.946895 
L 446.302483 269.594726 
L 447.310158 271.397218 
L 448.317833 274.977997 
L 449.325508 257.597491 
L 450.333183 213.329117 
L 451.340858 185.963166 
L 452.348533 187.529694 
L 453.356208 178.246338 
L 454.363883 179.637974 
L 455.371558 205.011185 
L 456.379233 193.941747 
L 457.386907 195.066707 
L 458.394582 191.281438 
L 459.402257 164.221588 
L 460.409932 133.330909 
L 461.417607 134.825933 
L 462.425282 139.842247 
L 463.432957 165.121212 
L 464.440632 178.194292 
L 465.448307 159.93704 
L 466.455982 168.549195 
L 467.463657 210.292884 
L 468.471332 227.78047 
L 469.479007 232.995823 
L 470.486682 282.798858 
L 471.494357 282.092255 
L 472.502032 236.277808 
L 473.509707 231.930996 
L 474.517381 242.623572 
L 475.525056 239.701511 
L 476.532731 240.184165 
L 477.540406 248.384232 
L 478.548081 238.375518 
L 479.555756 241.911577 
L 480.563431 252.399956 
L 481.571106 251.896379 
L 482.578781 248.004205 
L 483.586456 241.910874 
L 484.594131 246.251766 
L 485.601806 240.861989 
L 486.609481 245.176858 
L 487.617156 244.348347 
L 488.624831 230.900632 
L 489.632506 220.825572 
L 491.647856 236.330029 
L 492.65553 238.559319 
L 493.663205 221.047821 
L 494.67088 206.574196 
L 495.678555 195.430558 
L 496.68623 200.283936 
L 497.693905 225.101758 
L 498.70158 244.136179 
L 499.709255 270.534479 
L 500.71693 247.508364 
L 501.724605 248.603434 
L 502.73228 260.015037 
L 503.739955 250.542722 
L 504.74763 245.648552 
L 505.755305 237.549586 
L 506.76298 233.850826 
L 507.770655 230.582732 
L 508.77833 221.211519 
L 509.786005 223.725009 
L 510.793679 206.692354 
L 511.801354 246.481908 
L 512.809029 220.952404 
L 514.824379 262.179915 
L 515.832054 291.950224 
L 516.839729 297.540681 
L 517.847404 268.88531 
L 518.855079 265.9316 
L 519.862754 267.80337 
L 520.870429 222.544721 
L 521.878104 241.193957 
L 522.885779 277.493831 
L 523.893454 275.021075 
L 524.901129 273.737047 
L 525.908804 256.98912 
L 526.916479 245.451388 
L 527.924153 240.07474 
L 528.931828 223.770139 
L 529.939503 219.096342 
L 530.947178 234.774988 
L 531.954853 241.047666 
L 532.962528 245.223981 
L 533.970203 215.628036 
L 534.977878 218.097627 
L 535.985553 223.734973 
L 536.993228 236.428025 
L 538.000903 239.292882 
L 539.008578 250.601332 
L 540.016253 252.646118 
L 541.023928 260.450392 
L 542.031603 266.097584 
L 543.039278 288.038358 
L 544.046953 303.282821 
L 545.054628 284.819027 
L 546.062302 294.609712 
L 547.069977 306.700723 
L 548.077652 327.294404 
L 549.085327 361.439658 
L 550.093002 340.8652 
L 551.100677 352.700437 
L 552.108352 372.734803 
L 553.116027 400.167511 
L 555.131377 466.327427 
L 556.139052 397.971101 
L 557.146727 408.418393 
L 558.154402 427.239239 
L 559.162077 443.637617 
L 560.169752 470.015637 
L 561.177427 468.468392 
L 562.185102 453.867642 
L 563.192777 448.135114 
L 564.200451 435.503485 
L 565.208126 425.321989 
L 566.215801 438.691635 
L 567.223476 456.915831 
L 568.231151 464.079616 
L 569.238826 491.857947 
L 571.254176 522.775664 
L 573.269526 565.494859 
L 574.277201 560.4408 
L 575.284876 530.69247 
L 576.292551 534.649114 
L 577.300226 517.483884 
L 578.307901 515.407097 
L 579.315576 525.87924 
L 580.323251 522.786448 
L 581.330926 515.467172 
L 582.3386 514.779149 
L 583.346275 512.608703 
L 584.35395 509.075457 
L 585.361625 509.296065 
L 586.3693 505.348154 
L 587.376975 498.387102 
L 589.392325 459.978322 
L 590.4 455.504502 
L 591.407675 454.351526 
L 592.41535 462.971183 
L 593.423025 457.157774 
L 594.4307 462.226602 
L 595.438375 465.481626 
L 596.44605 462.817801 
L 597.453725 469.339336 
L 598.4614 479.824374 
L 599.469074 475.005459 
L 600.476749 479.176616 
L 601.484424 484.567799 
L 602.492099 488.448837 
L 603.499774 490.849151 
L 605.515124 495.070303 
L 606.522799 488.449423 
L 607.530474 486.289996 
L 608.538149 483.734131 
L 609.545824 480.161264 
L 610.553499 478.240028 
L 611.561174 472.374104 
L 612.568849 472.286424 
L 613.576524 471.995015 
L 614.584199 473.548414 
L 615.591874 470.078702 
L 616.599549 466.086579 
L 617.607223 461.20163 
L 618.614898 446.807246 
L 619.622573 421.686293 
L 620.630248 424.090475 
L 621.637923 424.734013 
L 622.645598 422.576227 
L 623.653273 428.03024 
L 625.668623 415.26709 
L 626.676298 390.504127 
L 627.683973 371.685156 
L 628.691648 373.321313 
L 629.699323 369.598874 
L 630.706998 368.795917 
L 631.714673 366.232784 
L 632.722348 358.215638 
L 633.730023 344.333975 
L 634.737698 347.57886 
L 635.745372 346.848579 
L 636.753047 340.604268 
L 637.760722 344.957585 
L 638.768397 347.074462 
L 639.776072 345.815167 
L 640.783747 338.741408 
L 641.791422 342.264338 
L 642.799097 337.71878 
L 643.806772 339.309691 
L 644.814447 336.64317 
L 645.822122 336.586201 
L 646.829797 333.238162 
L 647.837472 304.914524 
L 648.845147 308.377203 
L 649.852822 307.78407 
L 650.860497 311.446609 
L 651.868172 322.553558 
L 652.875847 323.56798 
L 653.883521 313.032948 
L 654.891196 306.655945 
L 655.898871 303.27063 
L 656.906546 302.63858 
L 657.914221 303.366282 
L 658.921896 299.288256 
L 659.929571 298.294875 
L 660.937246 298.913328 
L 661.944921 303.385975 
L 662.952596 310.473801 
L 663.960271 312.699809 
L 664.967946 329.281752 
L 665.975621 331.698126 
L 666.983296 333.239276 
L 667.990971 335.574826 
L 668.998646 330.741611 
L 670.006321 312.073854 
L 671.013995 309.181333 
L 672.02167 313.201041 
L 673.029345 316.496096 
L 674.03702 327.453589 
L 676.05237 341.323999 
L 677.060045 345.549078 
L 678.06772 353.334597 
L 679.075395 373.740023 
L 680.08307 375.863347 
L 681.090745 388.705972 
L 682.09842 388.90548 
L 683.106095 376.757266 
L 684.11377 375.389309 
L 685.121445 373.699231 
L 686.12912 373.171447 
L 687.136795 372.195005 
L 688.14447 375.205742 
L 689.152144 377.343601 
L 690.159819 369.375922 
L 691.167494 366.240228 
L 692.175169 365.966929 
L 693.182844 376.072233 
L 695.198194 381.472324 
L 696.205869 385.02878 
L 697.213544 399.865317 
L 698.221219 403.286501 
L 699.228894 404.994631 
L 700.236569 407.240098 
L 701.244244 429.737901 
L 702.251919 432.028381 
L 703.259594 437.064152 
L 705.274944 449.223854 
L 706.282619 440.603728 
L 707.290293 440.358738 
L 708.297968 454.731788 
L 709.305643 460.756428 
L 710.313318 458.924279 
L 711.320993 458.328958 
L 712.328668 450.324491 
L 713.336343 432.760068 
L 716.359368 457.087442 
L 717.367043 474.467419 
L 718.374718 482.816532 
L 719.382393 479.87302 
L 720.390068 478.50729 
L 721.397743 472.303538 
L 722.405418 468.019732 
L 723.413093 470.684964 
L 724.420767 470.523669 
L 725.428442 471.313029 
L 726.436117 468.27281 
L 727.443792 474.02761 
L 728.451467 475.002411 
L 729.459142 469.454622 
L 730.466817 458.59325 
L 731.474492 449.137111 
L 732.482167 452.558763 
L 733.489842 458.039268 
L 734.497517 452.3405 
L 736.512867 442.386059 
L 738.528217 427.075131 
L 739.535892 426.344206 
L 740.543567 423.576348 
L 741.551242 415.950248 
L 742.558916 414.449129 
L 743.566591 419.336207 
L 744.574266 417.909933 
L 745.581941 414.092546 
L 746.589616 412.936756 
L 747.597291 408.611103 
L 748.604966 401.037049 
L 749.612641 400.216978 
L 750.620316 399.861273 
L 751.627991 392.042757 
L 752.635666 395.255758 
L 753.643341 397.007259 
L 754.651016 399.215215 
L 755.658691 397.374451 
L 756.666366 392.454434 
L 757.674041 389.272848 
L 758.681716 385.13756 
L 759.689391 382.43728 
L 760.697065 380.818471 
L 761.70474 377.99722 
L 762.712415 377.700888 
L 763.72009 372.924172 
L 764.727765 364.943833 
L 765.73544 359.728167 
L 766.743115 360.391476 
L 767.75079 357.69776 
L 768.758465 357.123617 
L 769.76614 361.356197 
L 770.773815 370.486933 
L 771.78149 372.197349 
L 772.789165 363.778432 
L 773.79684 362.214013 
L 774.804515 357.776356 
L 775.81219 342.41649 
L 776.819865 317.73394 
L 777.82754 326.485117 
L 778.835214 327.851434 
L 780.850564 302.32654 
L 781.858239 314.351322 
L 782.865914 317.261895 
L 783.873589 307.939973 
L 784.881264 275.254108 
L 785.888939 291.903571 
L 786.896614 282.798623 
L 787.904289 258.153407 
L 788.911964 258.270334 
L 789.919639 267.131933 
L 790.927314 281.71129 
L 791.934989 284.103575 
L 792.942664 271.957178 
L 793.950339 269.067939 
L 794.958014 262.459309 
L 795.965688 260.922554 
L 796.973363 260.981868 
L 797.981038 274.0519 
L 798.988713 292.139691 
L 799.996388 302.149304 
L 801.004063 308.928137 
L 802.011738 301.124801 
L 803.019413 284.17127 
L 804.027088 282.266913 
L 805.034763 283.759358 
L 806.042438 283.439231 
L 807.050113 280.213629 
L 808.057788 278.56698 
L 809.065463 288.632429 
L 810.073138 297.178941 
L 811.080813 290.351109 
L 812.088488 290.460827 
L 813.096163 288.197074 
L 814.103837 279.870467 
L 815.111512 267.395444 
L 816.119187 267.006977 
L 817.126862 265.110513 
L 818.134537 262.718365 
L 820.149887 255.096954 
L 821.157562 253.138676 
L 822.165237 246.690872 
L 823.172912 254.744356 
L 824.180587 265.614168 
L 825.188262 274.208271 
L 826.195937 273.517924 
L 827.203612 270.172855 
L 828.211287 257.699942 
L 829.218962 255.59045 
L 830.226637 250.732618 
L 831.234312 259.504192 
L 832.241986 276.222111 
L 833.249661 267.718033 
L 834.257336 281.504514 
L 835.265011 271.090219 
L 836.272686 269.442574 
L 837.280361 264.937809 
L 838.288036 265.847436 
L 839.295711 262.694687 
L 840.303386 266.662819 
L 841.311061 272.219048 
L 842.318736 269.147473 
L 843.326411 267.927799 
L 844.334086 264.00591 
L 845.341761 264.800427 
L 846.349436 263.348774 
L 847.357111 268.134164 
L 848.364786 271.723441 
L 849.37246 276.224631 
L 850.380135 278.90012 
L 851.38781 283.091204 
L 853.40316 270.456762 
L 854.410835 272.007817 
L 855.41851 270.851324 
L 856.426185 271.822844 
L 857.43386 270.461509 
L 858.441535 258.940364 
L 859.44921 256.224376 
L 860.456885 253.863331 
L 861.46456 249.938101 
L 862.472235 240.434605 
L 863.47991 237.527783 
L 864.487585 232.115735 
L 865.49526 221.972921 
L 866.502935 227.81798 
L 867.510609 224.500185 
L 868.518284 224.015832 
L 869.525959 231.555013 
L 870.533634 234.305639 
L 871.541309 244.850049 
L 872.548984 246.103365 
L 874.564334 240.864803 
L 875.572009 239.861868 
L 876.579684 237.85852 
L 877.587359 256.167642 
L 878.595034 264.040685 
L 879.602709 247.966988 
L 880.610384 246.868812 
L 881.618059 238.689434 
L 882.625734 238.505633 
L 883.633409 234.531405 
L 884.641084 228.370321 
L 885.648758 221.018281 
L 886.656433 208.497308 
L 887.664108 203.834296 
L 888.671783 206.802775 
L 889.679458 216.62089 
L 890.687133 220.168202 
L 891.694808 228.581786 
L 892.702483 231.635309 
L 893.710158 242.011039 
L 894.717833 245.660274 
L 895.725508 251.6467 
L 896.733183 251.104382 
L 897.740858 249.097633 
L 900.763883 278.987097 
L 902.779233 287.870968 
L 903.786907 284.667814 
L 904.794582 283.224366 
L 905.802257 276.318935 
L 906.809932 285.230939 
L 907.817607 295.860684 
L 908.825282 309.200791 
L 909.832957 320.318407 
L 910.840632 334.297597 
L 911.848307 317.585539 
L 912.855982 322.323338 
L 913.863657 354.157481 
L 914.871332 358.598948 
L 915.879007 351.222292 
L 916.886682 347.272212 
L 917.894357 350.14293 
L 918.902032 356.561898 
L 919.909707 369.519868 
L 920.917381 385.073323 
L 921.925056 384.01342 
L 922.932731 387.567531 
L 923.940406 393.463229 
L 926.963431 373.682527 
L 927.971106 376.773912 
L 928.978781 376.784461 
L 929.986456 376.932159 
L 930.994131 380.81302 
L 932.001806 375.504419 
L 933.009481 377.603361 
L 934.017156 390.23288 
L 935.024831 400.354359 
L 936.032506 404.323664 
L 938.047856 395.637191 
L 939.05553 398.592074 
L 940.063205 393.679383 
L 941.07088 385.595656 
L 942.078555 381.175289 
L 943.08623 383.71404 
L 944.093905 379.320224 
L 945.10158 377.363528 
L 946.109255 373.505583 
L 947.11693 385.085749 
L 948.124605 381.138951 
L 949.13228 375.655164 
L 950.139955 377.379353 
L 951.14763 383.903702 
L 952.155305 389.555817 
L 953.16298 389.57973 
L 954.170655 396.873042 
L 955.17833 398.35904 
L 956.186005 400.070453 
L 957.193679 405.494223 
L 958.201354 417.756609 
L 959.209029 415.45095 
L 960.216704 420.501902 
L 961.224379 431.415554 
L 962.232054 436.192504 
L 963.239729 437.807796 
L 964.247404 439.695273 
L 965.255079 437.3354 
L 966.262754 449.00981 
L 967.270429 474.841586 
L 968.278104 472.228517 
L 969.285779 467.147322 
L 970.293454 471.584979 
L 971.301129 469.064749 
L 972.308804 460.736266 
L 973.316479 463.778126 
L 974.324153 465.853799 
L 975.331828 469.142114 
L 976.339503 464.971191 
L 977.347178 464.194257 
L 978.354853 460.978677 
L 979.362528 461.522578 
L 980.370203 463.922775 
L 982.385553 477.486421 
L 983.393228 482.406965 
L 984.400903 474.765158 
L 985.408578 472.460319 
L 986.416253 487.784317 
L 987.423928 501.32487 
L 988.431603 510.377772 
L 989.439278 514.814784 
L 990.446953 503.972636 
L 991.454628 499.18959 
L 992.462302 495.027342 
L 993.469977 495.035547 
L 994.477652 498.228386 
L 995.485327 496.451799 
L 996.493002 488.6705 
L 997.500677 479.897285 
L 998.508352 481.313303 
L 999.516027 481.274093 
L 1001.531377 475.348445 
L 1002.539052 476.729766 
L 1003.546727 471.896784 
L 1004.554402 464.976114 
L 1005.562077 450.064087 
L 1006.569752 440.801537 
L 1007.577427 438.076699 
L 1008.585102 434.019011 
L 1009.592777 422.303339 
L 1010.600451 422.085896 
L 1011.608126 425.351059 
L 1012.615801 419.895405 
L 1013.623476 413.642655 
L 1014.631151 404.804969 
L 1015.638826 403.463738 
L 1016.646501 389.281581 
L 1017.654176 369.047003 
L 1018.661851 372.0333 
L 1019.669526 374.078086 
L 1020.677201 399.289298 
L 1021.684876 397.901413 
L 1022.692551 402.060848 
L 1023.700226 406.968382 
L 1024.707901 410.003442 
L 1025.715576 415.424868 
L 1026.723251 424.197028 
L 1027.730926 423.239145 
L 1028.7386 405.56221 
L 1028.7386 405.56221 
" style="fill:none;stroke:#e24a33;stroke-linecap:square;stroke-width:1.5;"/>
   </g>
   <g id="line2d_42">
    <path clip-path="url(#p675a903abb)" d="M 1029.746275 401.05826 
L 1030.75395 400.966785 
L 1031.761625 403.054417 
L 1032.7693 402.06574 
L 1033.776975 399.768313 
L 1034.78465 399.57149 
L 1035.792325 401.20215 
L 1036.8 400.510884 
" style="fill:none;stroke:#348abd;stroke-linecap:square;stroke-width:1.5;"/>
   </g>
   <g id="patch_3">
    <path d="M 144 756 
L 144 103.68 
" style="fill:none;stroke:#ffffff;stroke-linecap:square;stroke-linejoin:miter;"/>
   </g>
   <g id="patch_4">
    <path d="M 1036.8 756 
L 1036.8 103.68 
" style="fill:none;stroke:#ffffff;stroke-linecap:square;stroke-linejoin:miter;"/>
   </g>
   <g id="patch_5">
    <path d="M 144 756 
L 1036.8 756 
" style="fill:none;stroke:#ffffff;stroke-linecap:square;stroke-linejoin:miter;"/>
   </g>
   <g id="patch_6">
    <path d="M 144 103.68 
L 1036.8 103.68 
" style="fill:none;stroke:#ffffff;stroke-linecap:square;stroke-linejoin:miter;"/>
   </g>
   <g id="text_17">
    <!-- Index Forecast -->
    <defs>
     <path d="M 9.8125 72.90625 
L 51.703125 72.90625 
L 51.703125 64.59375 
L 19.671875 64.59375 
L 19.671875 43.109375 
L 48.578125 43.109375 
L 48.578125 34.8125 
L 19.671875 34.8125 
L 19.671875 0 
L 9.8125 0 
z
" id="DejaVuSans-70"/>
     <path d="M 30.609375 48.390625 
Q 23.390625 48.390625 19.1875 42.75 
Q 14.984375 37.109375 14.984375 27.296875 
Q 14.984375 17.484375 19.15625 11.84375 
Q 23.34375 6.203125 30.609375 6.203125 
Q 37.796875 6.203125 41.984375 11.859375 
Q 46.1875 17.53125 46.1875 27.296875 
Q 46.1875 37.015625 41.984375 42.703125 
Q 37.796875 48.390625 30.609375 48.390625 
z
M 30.609375 56 
Q 42.328125 56 49.015625 48.375 
Q 55.71875 40.765625 55.71875 27.296875 
Q 55.71875 13.875 49.015625 6.21875 
Q 42.328125 -1.421875 30.609375 -1.421875 
Q 18.84375 -1.421875 12.171875 6.21875 
Q 5.515625 13.875 5.515625 27.296875 
Q 5.515625 40.765625 12.171875 48.375 
Q 18.84375 56 30.609375 56 
z
" id="DejaVuSans-111"/>
     <path d="M 48.78125 52.59375 
L 48.78125 44.1875 
Q 44.96875 46.296875 41.140625 47.34375 
Q 37.3125 48.390625 33.40625 48.390625 
Q 24.65625 48.390625 19.8125 42.84375 
Q 14.984375 37.3125 14.984375 27.296875 
Q 14.984375 17.28125 19.8125 11.734375 
Q 24.65625 6.203125 33.40625 6.203125 
Q 37.3125 6.203125 41.140625 7.25 
Q 44.96875 8.296875 48.78125 10.40625 
L 48.78125 2.09375 
Q 45.015625 0.34375 40.984375 -0.53125 
Q 36.96875 -1.421875 32.421875 -1.421875 
Q 20.0625 -1.421875 12.78125 6.34375 
Q 5.515625 14.109375 5.515625 27.296875 
Q 5.515625 40.671875 12.859375 48.328125 
Q 20.21875 56 33.015625 56 
Q 37.15625 56 41.109375 55.140625 
Q 45.0625 54.296875 48.78125 52.59375 
z
" id="DejaVuSans-99"/>
     <path d="M 44.28125 53.078125 
L 44.28125 44.578125 
Q 40.484375 46.53125 36.375 47.5 
Q 32.28125 48.484375 27.875 48.484375 
Q 21.1875 48.484375 17.84375 46.4375 
Q 14.5 44.390625 14.5 40.28125 
Q 14.5 37.15625 16.890625 35.375 
Q 19.28125 33.59375 26.515625 31.984375 
L 29.59375 31.296875 
Q 39.15625 29.25 43.1875 25.515625 
Q 47.21875 21.78125 47.21875 15.09375 
Q 47.21875 7.46875 41.1875 3.015625 
Q 35.15625 -1.421875 24.609375 -1.421875 
Q 20.21875 -1.421875 15.453125 -0.5625 
Q 10.6875 0.296875 5.421875 2 
L 5.421875 11.28125 
Q 10.40625 8.6875 15.234375 7.390625 
Q 20.0625 6.109375 24.8125 6.109375 
Q 31.15625 6.109375 34.5625 8.28125 
Q 37.984375 10.453125 37.984375 14.40625 
Q 37.984375 18.0625 35.515625 20.015625 
Q 33.0625 21.96875 24.703125 23.78125 
L 21.578125 24.515625 
Q 13.234375 26.265625 9.515625 29.90625 
Q 5.8125 33.546875 5.8125 39.890625 
Q 5.8125 47.609375 11.28125 51.796875 
Q 16.75 56 26.8125 56 
Q 31.78125 56 36.171875 55.265625 
Q 40.578125 54.546875 44.28125 53.078125 
z
" id="DejaVuSans-115"/>
    </defs>
    <g transform="translate(537.287625 97.68)scale(0.144 -0.144)">
     <use xlink:href="#DejaVuSans-73"/>
     <use x="29.492188" xlink:href="#DejaVuSans-110"/>
     <use x="92.871094" xlink:href="#DejaVuSans-100"/>
     <use x="156.347656" xlink:href="#DejaVuSans-101"/>
     <use x="217.855469" xlink:href="#DejaVuSans-120"/>
     <use x="277.035156" xlink:href="#DejaVuSans-32"/>
     <use x="308.822266" xlink:href="#DejaVuSans-70"/>
     <use x="366.294922" xlink:href="#DejaVuSans-111"/>
     <use x="427.476562" xlink:href="#DejaVuSans-114"/>
     <use x="468.558594" xlink:href="#DejaVuSans-101"/>
     <use x="530.082031" xlink:href="#DejaVuSans-99"/>
     <use x="585.0625" xlink:href="#DejaVuSans-97"/>
     <use x="646.341797" xlink:href="#DejaVuSans-115"/>
     <use x="698.441406" xlink:href="#DejaVuSans-116"/>
    </g>
   </g>
   <g id="legend_1">
    <g id="patch_7">
     <path d="M 954.917187 141.03625 
L 1029.8 141.03625 
Q 1031.8 141.03625 1031.8 139.03625 
L 1031.8 110.68 
Q 1031.8 108.68 1029.8 108.68 
L 954.917187 108.68 
Q 952.917187 108.68 952.917187 110.68 
L 952.917187 139.03625 
Q 952.917187 141.03625 954.917187 141.03625 
z
" style="fill:#e5e5e5;opacity:0.8;stroke:#cccccc;stroke-linejoin:miter;stroke-width:0.5;"/>
    </g>
    <g id="line2d_43">
     <path d="M 956.917187 116.778437 
L 976.917187 116.778437 
" style="fill:none;stroke:#e24a33;stroke-linecap:square;stroke-width:1.5;"/>
    </g>
    <g id="line2d_44"/>
    <g id="text_18">
     <!--  Index  -->
     <g transform="translate(984.917187 120.278437)scale(0.1 -0.1)">
      <use xlink:href="#DejaVuSans-32"/>
      <use x="31.787109" xlink:href="#DejaVuSans-73"/>
      <use x="61.279297" xlink:href="#DejaVuSans-110"/>
      <use x="124.658203" xlink:href="#DejaVuSans-100"/>
      <use x="188.134766" xlink:href="#DejaVuSans-101"/>
      <use x="249.642578" xlink:href="#DejaVuSans-120"/>
      <use x="308.822266" xlink:href="#DejaVuSans-32"/>
     </g>
    </g>
    <g id="line2d_45">
     <path d="M 956.917187 131.456563 
L 976.917187 131.456563 
" style="fill:none;stroke:#348abd;stroke-linecap:square;stroke-width:1.5;"/>
    </g>
    <g id="line2d_46"/>
    <g id="text_19">
     <!-- Forecast -->
     <g transform="translate(984.917187 134.956563)scale(0.1 -0.1)">
      <use xlink:href="#DejaVuSans-70"/>
      <use x="57.472656" xlink:href="#DejaVuSans-111"/>
      <use x="118.654297" xlink:href="#DejaVuSans-114"/>
      <use x="159.736328" xlink:href="#DejaVuSans-101"/>
      <use x="221.259766" xlink:href="#DejaVuSans-99"/>
      <use x="276.240234" xlink:href="#DejaVuSans-97"/>
      <use x="337.519531" xlink:href="#DejaVuSans-115"/>
      <use x="389.619141" xlink:href="#DejaVuSans-116"/>
     </g>
    </g>
   </g>
  </g>
 </g>
 <defs>
  <clipPath id="p675a903abb">
   <rect height="652.32" width="892.8" x="144" y="103.68"/>
  </clipPath>
 </defs>
</svg>
