<?xml version="1.0" encoding="utf-8" standalone="no"?>
<!DOCTYPE svg PUBLIC "-//W3C//DTD SVG 1.1//EN"
  "http://www.w3.org/Graphics/SVG/1.1/DTD/svg11.dtd">
<!-- Created with matplotlib (https://matplotlib.org/) -->
<svg height="864pt" version="1.1" viewBox="0 0 1152 864" width="1152pt" xmlns="http://www.w3.org/2000/svg" xmlns:xlink="http://www.w3.org/1999/xlink">
 <defs>
  <style type="text/css">
*{stroke-linecap:butt;stroke-linejoin:round;}
  </style>
 </defs>
 <g id="figure_1">
  <g id="patch_1">
   <path d="M 0 864 
L 1152 864 
L 1152 0 
L 0 0 
z
" style="fill:#ffffff;"/>
  </g>
  <g id="axes_1">
   <g id="patch_2">
    <path d="M 144 756 
L 1036.8 756 
L 1036.8 103.68 
L 144 103.68 
z
" style="fill:#e5e5e5;"/>
   </g>
   <g id="matplotlib.axis_1">
    <g id="xtick_1">
     <g id="line2d_1">
      <path clip-path="url(#p94009f7b37)" d="M 144 756 
L 144 103.68 
" style="fill:none;stroke:#ffffff;stroke-linecap:square;stroke-width:0.8;"/>
     </g>
     <g id="line2d_2">
      <defs>
       <path d="M 0 0 
L 0 3.5 
" id="mcbc6da4b50" style="stroke:#555555;stroke-width:0.8;"/>
      </defs>
      <g>
       <use style="fill:#555555;stroke:#555555;stroke-width:0.8;" x="144" xlink:href="#mcbc6da4b50" y="756"/>
      </g>
     </g>
    </g>
    <g id="xtick_2">
     <g id="line2d_3">
      <path clip-path="url(#p94009f7b37)" d="M 196.696481 756 
L 196.696481 103.68 
" style="fill:none;stroke:#ffffff;stroke-linecap:square;stroke-width:0.8;"/>
     </g>
     <g id="line2d_4">
      <g>
       <use style="fill:#555555;stroke:#555555;stroke-width:0.8;" x="196.696481" xlink:href="#mcbc6da4b50" y="756"/>
      </g>
     </g>
     <g id="text_1">
      <!-- 2002 -->
      <defs>
       <path d="M 19.1875 8.296875 
L 53.609375 8.296875 
L 53.609375 0 
L 7.328125 0 
L 7.328125 8.296875 
Q 12.9375 14.109375 22.625 23.890625 
Q 32.328125 33.6875 34.8125 36.53125 
Q 39.546875 41.84375 41.421875 45.53125 
Q 43.3125 49.21875 43.3125 52.78125 
Q 43.3125 58.59375 39.234375 62.25 
Q 35.15625 65.921875 28.609375 65.921875 
Q 23.96875 65.921875 18.8125 64.3125 
Q 13.671875 62.703125 7.8125 59.421875 
L 7.8125 69.390625 
Q 13.765625 71.78125 18.9375 73 
Q 24.125 74.21875 28.421875 74.21875 
Q 39.75 74.21875 46.484375 68.546875 
Q 53.21875 62.890625 53.21875 53.421875 
Q 53.21875 48.921875 51.53125 44.890625 
Q 49.859375 40.875 45.40625 35.40625 
Q 44.1875 33.984375 37.640625 27.21875 
Q 31.109375 20.453125 19.1875 8.296875 
z
" id="DejaVuSans-50"/>
       <path d="M 31.78125 66.40625 
Q 24.171875 66.40625 20.328125 58.90625 
Q 16.5 51.421875 16.5 36.375 
Q 16.5 21.390625 20.328125 13.890625 
Q 24.171875 6.390625 31.78125 6.390625 
Q 39.453125 6.390625 43.28125 13.890625 
Q 47.125 21.390625 47.125 36.375 
Q 47.125 51.421875 43.28125 58.90625 
Q 39.453125 66.40625 31.78125 66.40625 
z
M 31.78125 74.21875 
Q 44.046875 74.21875 50.515625 64.515625 
Q 56.984375 54.828125 56.984375 36.375 
Q 56.984375 17.96875 50.515625 8.265625 
Q 44.046875 -1.421875 31.78125 -1.421875 
Q 19.53125 -1.421875 13.0625 8.265625 
Q 6.59375 17.96875 6.59375 36.375 
Q 6.59375 54.828125 13.0625 64.515625 
Q 19.53125 74.21875 31.78125 74.21875 
z
" id="DejaVuSans-48"/>
      </defs>
      <g style="fill:#555555;" transform="translate(183.971481 770.598438)scale(0.1 -0.1)">
       <use xlink:href="#DejaVuSans-50"/>
       <use x="63.623047" xlink:href="#DejaVuSans-48"/>
       <use x="127.246094" xlink:href="#DejaVuSans-48"/>
       <use x="190.869141" xlink:href="#DejaVuSans-50"/>
      </g>
     </g>
    </g>
    <g id="xtick_3">
     <g id="line2d_5">
      <path clip-path="url(#p94009f7b37)" d="M 302.089444 756 
L 302.089444 103.68 
" style="fill:none;stroke:#ffffff;stroke-linecap:square;stroke-width:0.8;"/>
     </g>
     <g id="line2d_6">
      <g>
       <use style="fill:#555555;stroke:#555555;stroke-width:0.8;" x="302.089444" xlink:href="#mcbc6da4b50" y="756"/>
      </g>
     </g>
     <g id="text_2">
      <!-- 2004 -->
      <defs>
       <path d="M 37.796875 64.3125 
L 12.890625 25.390625 
L 37.796875 25.390625 
z
M 35.203125 72.90625 
L 47.609375 72.90625 
L 47.609375 25.390625 
L 58.015625 25.390625 
L 58.015625 17.1875 
L 47.609375 17.1875 
L 47.609375 0 
L 37.796875 0 
L 37.796875 17.1875 
L 4.890625 17.1875 
L 4.890625 26.703125 
z
" id="DejaVuSans-52"/>
      </defs>
      <g style="fill:#555555;" transform="translate(289.364444 770.598438)scale(0.1 -0.1)">
       <use xlink:href="#DejaVuSans-50"/>
       <use x="63.623047" xlink:href="#DejaVuSans-48"/>
       <use x="127.246094" xlink:href="#DejaVuSans-48"/>
       <use x="190.869141" xlink:href="#DejaVuSans-52"/>
      </g>
     </g>
    </g>
    <g id="xtick_4">
     <g id="line2d_7">
      <path clip-path="url(#p94009f7b37)" d="M 407.482406 756 
L 407.482406 103.68 
" style="fill:none;stroke:#ffffff;stroke-linecap:square;stroke-width:0.8;"/>
     </g>
     <g id="line2d_8">
      <g>
       <use style="fill:#555555;stroke:#555555;stroke-width:0.8;" x="407.482406" xlink:href="#mcbc6da4b50" y="756"/>
      </g>
     </g>
     <g id="text_3">
      <!-- 2006 -->
      <defs>
       <path d="M 33.015625 40.375 
Q 26.375 40.375 22.484375 35.828125 
Q 18.609375 31.296875 18.609375 23.390625 
Q 18.609375 15.53125 22.484375 10.953125 
Q 26.375 6.390625 33.015625 6.390625 
Q 39.65625 6.390625 43.53125 10.953125 
Q 47.40625 15.53125 47.40625 23.390625 
Q 47.40625 31.296875 43.53125 35.828125 
Q 39.65625 40.375 33.015625 40.375 
z
M 52.59375 71.296875 
L 52.59375 62.3125 
Q 48.875 64.0625 45.09375 64.984375 
Q 41.3125 65.921875 37.59375 65.921875 
Q 27.828125 65.921875 22.671875 59.328125 
Q 17.53125 52.734375 16.796875 39.40625 
Q 19.671875 43.65625 24.015625 45.921875 
Q 28.375 48.1875 33.59375 48.1875 
Q 44.578125 48.1875 50.953125 41.515625 
Q 57.328125 34.859375 57.328125 23.390625 
Q 57.328125 12.15625 50.6875 5.359375 
Q 44.046875 -1.421875 33.015625 -1.421875 
Q 20.359375 -1.421875 13.671875 8.265625 
Q 6.984375 17.96875 6.984375 36.375 
Q 6.984375 53.65625 15.1875 63.9375 
Q 23.390625 74.21875 37.203125 74.21875 
Q 40.921875 74.21875 44.703125 73.484375 
Q 48.484375 72.75 52.59375 71.296875 
z
" id="DejaVuSans-54"/>
      </defs>
      <g style="fill:#555555;" transform="translate(394.757406 770.598438)scale(0.1 -0.1)">
       <use xlink:href="#DejaVuSans-50"/>
       <use x="63.623047" xlink:href="#DejaVuSans-48"/>
       <use x="127.246094" xlink:href="#DejaVuSans-48"/>
       <use x="190.869141" xlink:href="#DejaVuSans-54"/>
      </g>
     </g>
    </g>
    <g id="xtick_5">
     <g id="line2d_9">
      <path clip-path="url(#p94009f7b37)" d="M 513.888763 756 
L 513.888763 103.68 
" style="fill:none;stroke:#ffffff;stroke-linecap:square;stroke-width:0.8;"/>
     </g>
     <g id="line2d_10">
      <g>
       <use style="fill:#555555;stroke:#555555;stroke-width:0.8;" x="513.888763" xlink:href="#mcbc6da4b50" y="756"/>
      </g>
     </g>
     <g id="text_4">
      <!-- 2008 -->
      <defs>
       <path d="M 31.78125 34.625 
Q 24.75 34.625 20.71875 30.859375 
Q 16.703125 27.09375 16.703125 20.515625 
Q 16.703125 13.921875 20.71875 10.15625 
Q 24.75 6.390625 31.78125 6.390625 
Q 38.8125 6.390625 42.859375 10.171875 
Q 46.921875 13.96875 46.921875 20.515625 
Q 46.921875 27.09375 42.890625 30.859375 
Q 38.875 34.625 31.78125 34.625 
z
M 21.921875 38.8125 
Q 15.578125 40.375 12.03125 44.71875 
Q 8.5 49.078125 8.5 55.328125 
Q 8.5 64.0625 14.71875 69.140625 
Q 20.953125 74.21875 31.78125 74.21875 
Q 42.671875 74.21875 48.875 69.140625 
Q 55.078125 64.0625 55.078125 55.328125 
Q 55.078125 49.078125 51.53125 44.71875 
Q 48 40.375 41.703125 38.8125 
Q 48.828125 37.15625 52.796875 32.3125 
Q 56.78125 27.484375 56.78125 20.515625 
Q 56.78125 9.90625 50.3125 4.234375 
Q 43.84375 -1.421875 31.78125 -1.421875 
Q 19.734375 -1.421875 13.25 4.234375 
Q 6.78125 9.90625 6.78125 20.515625 
Q 6.78125 27.484375 10.78125 32.3125 
Q 14.796875 37.15625 21.921875 38.8125 
z
M 18.3125 54.390625 
Q 18.3125 48.734375 21.84375 45.5625 
Q 25.390625 42.390625 31.78125 42.390625 
Q 38.140625 42.390625 41.71875 45.5625 
Q 45.3125 48.734375 45.3125 54.390625 
Q 45.3125 60.0625 41.71875 63.234375 
Q 38.140625 66.40625 31.78125 66.40625 
Q 25.390625 66.40625 21.84375 63.234375 
Q 18.3125 60.0625 18.3125 54.390625 
z
" id="DejaVuSans-56"/>
      </defs>
      <g style="fill:#555555;" transform="translate(501.163763 770.598438)scale(0.1 -0.1)">
       <use xlink:href="#DejaVuSans-50"/>
       <use x="63.623047" xlink:href="#DejaVuSans-48"/>
       <use x="127.246094" xlink:href="#DejaVuSans-48"/>
       <use x="190.869141" xlink:href="#DejaVuSans-56"/>
      </g>
     </g>
    </g>
    <g id="xtick_6">
     <g id="line2d_11">
      <path clip-path="url(#p94009f7b37)" d="M 619.281725 756 
L 619.281725 103.68 
" style="fill:none;stroke:#ffffff;stroke-linecap:square;stroke-width:0.8;"/>
     </g>
     <g id="line2d_12">
      <g>
       <use style="fill:#555555;stroke:#555555;stroke-width:0.8;" x="619.281725" xlink:href="#mcbc6da4b50" y="756"/>
      </g>
     </g>
     <g id="text_5">
      <!-- 2010 -->
      <defs>
       <path d="M 12.40625 8.296875 
L 28.515625 8.296875 
L 28.515625 63.921875 
L 10.984375 60.40625 
L 10.984375 69.390625 
L 28.421875 72.90625 
L 38.28125 72.90625 
L 38.28125 8.296875 
L 54.390625 8.296875 
L 54.390625 0 
L 12.40625 0 
z
" id="DejaVuSans-49"/>
      </defs>
      <g style="fill:#555555;" transform="translate(606.556725 770.598438)scale(0.1 -0.1)">
       <use xlink:href="#DejaVuSans-50"/>
       <use x="63.623047" xlink:href="#DejaVuSans-48"/>
       <use x="127.246094" xlink:href="#DejaVuSans-49"/>
       <use x="190.869141" xlink:href="#DejaVuSans-48"/>
      </g>
     </g>
    </g>
    <g id="xtick_7">
     <g id="line2d_13">
      <path clip-path="url(#p94009f7b37)" d="M 724.674688 756 
L 724.674688 103.68 
" style="fill:none;stroke:#ffffff;stroke-linecap:square;stroke-width:0.8;"/>
     </g>
     <g id="line2d_14">
      <g>
       <use style="fill:#555555;stroke:#555555;stroke-width:0.8;" x="724.674688" xlink:href="#mcbc6da4b50" y="756"/>
      </g>
     </g>
     <g id="text_6">
      <!-- 2012 -->
      <g style="fill:#555555;" transform="translate(711.949688 770.598438)scale(0.1 -0.1)">
       <use xlink:href="#DejaVuSans-50"/>
       <use x="63.623047" xlink:href="#DejaVuSans-48"/>
       <use x="127.246094" xlink:href="#DejaVuSans-49"/>
       <use x="190.869141" xlink:href="#DejaVuSans-50"/>
      </g>
     </g>
    </g>
    <g id="xtick_8">
     <g id="line2d_15">
      <path clip-path="url(#p94009f7b37)" d="M 831.081044 756 
L 831.081044 103.68 
" style="fill:none;stroke:#ffffff;stroke-linecap:square;stroke-width:0.8;"/>
     </g>
     <g id="line2d_16">
      <g>
       <use style="fill:#555555;stroke:#555555;stroke-width:0.8;" x="831.081044" xlink:href="#mcbc6da4b50" y="756"/>
      </g>
     </g>
     <g id="text_7">
      <!-- 2014 -->
      <g style="fill:#555555;" transform="translate(818.356044 770.598438)scale(0.1 -0.1)">
       <use xlink:href="#DejaVuSans-50"/>
       <use x="63.623047" xlink:href="#DejaVuSans-48"/>
       <use x="127.246094" xlink:href="#DejaVuSans-49"/>
       <use x="190.869141" xlink:href="#DejaVuSans-52"/>
      </g>
     </g>
    </g>
    <g id="xtick_9">
     <g id="line2d_17">
      <path clip-path="url(#p94009f7b37)" d="M 936.474007 756 
L 936.474007 103.68 
" style="fill:none;stroke:#ffffff;stroke-linecap:square;stroke-width:0.8;"/>
     </g>
     <g id="line2d_18">
      <g>
       <use style="fill:#555555;stroke:#555555;stroke-width:0.8;" x="936.474007" xlink:href="#mcbc6da4b50" y="756"/>
      </g>
     </g>
     <g id="text_8">
      <!-- 2016 -->
      <g style="fill:#555555;" transform="translate(923.749007 770.598438)scale(0.1 -0.1)">
       <use xlink:href="#DejaVuSans-50"/>
       <use x="63.623047" xlink:href="#DejaVuSans-48"/>
       <use x="127.246094" xlink:href="#DejaVuSans-49"/>
       <use x="190.869141" xlink:href="#DejaVuSans-54"/>
      </g>
     </g>
    </g>
    <g id="xtick_10">
     <g id="line2d_19">
      <path clip-path="url(#p94009f7b37)" d="M 1036.8 756 
L 1036.8 103.68 
" style="fill:none;stroke:#ffffff;stroke-linecap:square;stroke-width:0.8;"/>
     </g>
     <g id="line2d_20">
      <g>
       <use style="fill:#555555;stroke:#555555;stroke-width:0.8;" x="1036.8" xlink:href="#mcbc6da4b50" y="756"/>
      </g>
     </g>
    </g>
    <g id="xtick_11">
     <g id="line2d_21">
      <defs>
       <path d="M 0 0 
L 0 2 
" id="m9ab313bb75" style="stroke:#555555;stroke-width:0.6;"/>
      </defs>
      <g>
       <use style="fill:#555555;stroke:#555555;stroke-width:0.6;" x="249.392963" xlink:href="#m9ab313bb75" y="756"/>
      </g>
     </g>
    </g>
    <g id="xtick_12">
     <g id="line2d_22">
      <g>
       <use style="fill:#555555;stroke:#555555;stroke-width:0.6;" x="354.785925" xlink:href="#m9ab313bb75" y="756"/>
      </g>
     </g>
    </g>
    <g id="xtick_13">
     <g id="line2d_23">
      <g>
       <use style="fill:#555555;stroke:#555555;stroke-width:0.6;" x="461.192281" xlink:href="#m9ab313bb75" y="756"/>
      </g>
     </g>
    </g>
    <g id="xtick_14">
     <g id="line2d_24">
      <g>
       <use style="fill:#555555;stroke:#555555;stroke-width:0.6;" x="566.585244" xlink:href="#m9ab313bb75" y="756"/>
      </g>
     </g>
    </g>
    <g id="xtick_15">
     <g id="line2d_25">
      <g>
       <use style="fill:#555555;stroke:#555555;stroke-width:0.6;" x="671.978207" xlink:href="#m9ab313bb75" y="756"/>
      </g>
     </g>
    </g>
    <g id="xtick_16">
     <g id="line2d_26">
      <g>
       <use style="fill:#555555;stroke:#555555;stroke-width:0.6;" x="778.384563" xlink:href="#m9ab313bb75" y="756"/>
      </g>
     </g>
    </g>
    <g id="xtick_17">
     <g id="line2d_27">
      <g>
       <use style="fill:#555555;stroke:#555555;stroke-width:0.6;" x="883.777526" xlink:href="#m9ab313bb75" y="756"/>
      </g>
     </g>
    </g>
    <g id="xtick_18">
     <g id="line2d_28">
      <g>
       <use style="fill:#555555;stroke:#555555;stroke-width:0.6;" x="989.170488" xlink:href="#m9ab313bb75" y="756"/>
      </g>
     </g>
    </g>
    <g id="text_9">
     <!-- Date -->
     <defs>
      <path d="M 19.671875 64.796875 
L 19.671875 8.109375 
L 31.59375 8.109375 
Q 46.6875 8.109375 53.6875 14.9375 
Q 60.6875 21.78125 60.6875 36.53125 
Q 60.6875 51.171875 53.6875 57.984375 
Q 46.6875 64.796875 31.59375 64.796875 
z
M 9.8125 72.90625 
L 30.078125 72.90625 
Q 51.265625 72.90625 61.171875 64.09375 
Q 71.09375 55.28125 71.09375 36.53125 
Q 71.09375 17.671875 61.125 8.828125 
Q 51.171875 0 30.078125 0 
L 9.8125 0 
z
" id="DejaVuSans-68"/>
      <path d="M 34.28125 27.484375 
Q 23.390625 27.484375 19.1875 25 
Q 14.984375 22.515625 14.984375 16.5 
Q 14.984375 11.71875 18.140625 8.90625 
Q 21.296875 6.109375 26.703125 6.109375 
Q 34.1875 6.109375 38.703125 11.40625 
Q 43.21875 16.703125 43.21875 25.484375 
L 43.21875 27.484375 
z
M 52.203125 31.203125 
L 52.203125 0 
L 43.21875 0 
L 43.21875 8.296875 
Q 40.140625 3.328125 35.546875 0.953125 
Q 30.953125 -1.421875 24.3125 -1.421875 
Q 15.921875 -1.421875 10.953125 3.296875 
Q 6 8.015625 6 15.921875 
Q 6 25.140625 12.171875 29.828125 
Q 18.359375 34.515625 30.609375 34.515625 
L 43.21875 34.515625 
L 43.21875 35.40625 
Q 43.21875 41.609375 39.140625 45 
Q 35.0625 48.390625 27.6875 48.390625 
Q 23 48.390625 18.546875 47.265625 
Q 14.109375 46.140625 10.015625 43.890625 
L 10.015625 52.203125 
Q 14.9375 54.109375 19.578125 55.046875 
Q 24.21875 56 28.609375 56 
Q 40.484375 56 46.34375 49.84375 
Q 52.203125 43.703125 52.203125 31.203125 
z
" id="DejaVuSans-97"/>
      <path d="M 18.3125 70.21875 
L 18.3125 54.6875 
L 36.8125 54.6875 
L 36.8125 47.703125 
L 18.3125 47.703125 
L 18.3125 18.015625 
Q 18.3125 11.328125 20.140625 9.421875 
Q 21.96875 7.515625 27.59375 7.515625 
L 36.8125 7.515625 
L 36.8125 0 
L 27.59375 0 
Q 17.1875 0 13.234375 3.875 
Q 9.28125 7.765625 9.28125 18.015625 
L 9.28125 47.703125 
L 2.6875 47.703125 
L 2.6875 54.6875 
L 9.28125 54.6875 
L 9.28125 70.21875 
z
" id="DejaVuSans-116"/>
      <path d="M 56.203125 29.59375 
L 56.203125 25.203125 
L 14.890625 25.203125 
Q 15.484375 15.921875 20.484375 11.0625 
Q 25.484375 6.203125 34.421875 6.203125 
Q 39.59375 6.203125 44.453125 7.46875 
Q 49.3125 8.734375 54.109375 11.28125 
L 54.109375 2.78125 
Q 49.265625 0.734375 44.1875 -0.34375 
Q 39.109375 -1.421875 33.890625 -1.421875 
Q 20.796875 -1.421875 13.15625 6.1875 
Q 5.515625 13.8125 5.515625 26.8125 
Q 5.515625 40.234375 12.765625 48.109375 
Q 20.015625 56 32.328125 56 
Q 43.359375 56 49.78125 48.890625 
Q 56.203125 41.796875 56.203125 29.59375 
z
M 47.21875 32.234375 
Q 47.125 39.59375 43.09375 43.984375 
Q 39.0625 48.390625 32.421875 48.390625 
Q 24.90625 48.390625 20.390625 44.140625 
Q 15.875 39.890625 15.1875 32.171875 
z
" id="DejaVuSans-101"/>
     </defs>
     <g style="fill:#555555;" transform="translate(576.059062 785.79625)scale(0.12 -0.12)">
      <use xlink:href="#DejaVuSans-68"/>
      <use x="77.001953" xlink:href="#DejaVuSans-97"/>
      <use x="138.28125" xlink:href="#DejaVuSans-116"/>
      <use x="177.490234" xlink:href="#DejaVuSans-101"/>
     </g>
    </g>
   </g>
   <g id="matplotlib.axis_2">
    <g id="ytick_1">
     <g id="line2d_29">
      <path clip-path="url(#p94009f7b37)" d="M 144 727.715407 
L 1036.8 727.715407 
" style="fill:none;stroke:#ffffff;stroke-linecap:square;stroke-width:0.8;"/>
     </g>
     <g id="line2d_30">
      <defs>
       <path d="M 0 0 
L -3.5 0 
" id="mf35c2c4a11" style="stroke:#555555;stroke-width:0.8;"/>
      </defs>
      <g>
       <use style="fill:#555555;stroke:#555555;stroke-width:0.8;" x="144" xlink:href="#mf35c2c4a11" y="727.715407"/>
      </g>
     </g>
     <g id="text_10">
      <!-- 1000 -->
      <g style="fill:#555555;" transform="translate(111.55 731.514626)scale(0.1 -0.1)">
       <use xlink:href="#DejaVuSans-49"/>
       <use x="63.623047" xlink:href="#DejaVuSans-48"/>
       <use x="127.246094" xlink:href="#DejaVuSans-48"/>
       <use x="190.869141" xlink:href="#DejaVuSans-48"/>
      </g>
     </g>
    </g>
    <g id="ytick_2">
     <g id="line2d_31">
      <path clip-path="url(#p94009f7b37)" d="M 144 610.495389 
L 1036.8 610.495389 
" style="fill:none;stroke:#ffffff;stroke-linecap:square;stroke-width:0.8;"/>
     </g>
     <g id="line2d_32">
      <g>
       <use style="fill:#555555;stroke:#555555;stroke-width:0.8;" x="144" xlink:href="#mf35c2c4a11" y="610.495389"/>
      </g>
     </g>
     <g id="text_11">
      <!-- 2000 -->
      <g style="fill:#555555;" transform="translate(111.55 614.294608)scale(0.1 -0.1)">
       <use xlink:href="#DejaVuSans-50"/>
       <use x="63.623047" xlink:href="#DejaVuSans-48"/>
       <use x="127.246094" xlink:href="#DejaVuSans-48"/>
       <use x="190.869141" xlink:href="#DejaVuSans-48"/>
      </g>
     </g>
    </g>
    <g id="ytick_3">
     <g id="line2d_33">
      <path clip-path="url(#p94009f7b37)" d="M 144 493.275371 
L 1036.8 493.275371 
" style="fill:none;stroke:#ffffff;stroke-linecap:square;stroke-width:0.8;"/>
     </g>
     <g id="line2d_34">
      <g>
       <use style="fill:#555555;stroke:#555555;stroke-width:0.8;" x="144" xlink:href="#mf35c2c4a11" y="493.275371"/>
      </g>
     </g>
     <g id="text_12">
      <!-- 3000 -->
      <defs>
       <path d="M 40.578125 39.3125 
Q 47.65625 37.796875 51.625 33 
Q 55.609375 28.21875 55.609375 21.1875 
Q 55.609375 10.40625 48.1875 4.484375 
Q 40.765625 -1.421875 27.09375 -1.421875 
Q 22.515625 -1.421875 17.65625 -0.515625 
Q 12.796875 0.390625 7.625 2.203125 
L 7.625 11.71875 
Q 11.71875 9.328125 16.59375 8.109375 
Q 21.484375 6.890625 26.8125 6.890625 
Q 36.078125 6.890625 40.9375 10.546875 
Q 45.796875 14.203125 45.796875 21.1875 
Q 45.796875 27.640625 41.28125 31.265625 
Q 36.765625 34.90625 28.71875 34.90625 
L 20.21875 34.90625 
L 20.21875 43.015625 
L 29.109375 43.015625 
Q 36.375 43.015625 40.234375 45.921875 
Q 44.09375 48.828125 44.09375 54.296875 
Q 44.09375 59.90625 40.109375 62.90625 
Q 36.140625 65.921875 28.71875 65.921875 
Q 24.65625 65.921875 20.015625 65.03125 
Q 15.375 64.15625 9.8125 62.3125 
L 9.8125 71.09375 
Q 15.4375 72.65625 20.34375 73.4375 
Q 25.25 74.21875 29.59375 74.21875 
Q 40.828125 74.21875 47.359375 69.109375 
Q 53.90625 64.015625 53.90625 55.328125 
Q 53.90625 49.265625 50.4375 45.09375 
Q 46.96875 40.921875 40.578125 39.3125 
z
" id="DejaVuSans-51"/>
      </defs>
      <g style="fill:#555555;" transform="translate(111.55 497.07459)scale(0.1 -0.1)">
       <use xlink:href="#DejaVuSans-51"/>
       <use x="63.623047" xlink:href="#DejaVuSans-48"/>
       <use x="127.246094" xlink:href="#DejaVuSans-48"/>
       <use x="190.869141" xlink:href="#DejaVuSans-48"/>
      </g>
     </g>
    </g>
    <g id="ytick_4">
     <g id="line2d_35">
      <path clip-path="url(#p94009f7b37)" d="M 144 376.055353 
L 1036.8 376.055353 
" style="fill:none;stroke:#ffffff;stroke-linecap:square;stroke-width:0.8;"/>
     </g>
     <g id="line2d_36">
      <g>
       <use style="fill:#555555;stroke:#555555;stroke-width:0.8;" x="144" xlink:href="#mf35c2c4a11" y="376.055353"/>
      </g>
     </g>
     <g id="text_13">
      <!-- 4000 -->
      <g style="fill:#555555;" transform="translate(111.55 379.854572)scale(0.1 -0.1)">
       <use xlink:href="#DejaVuSans-52"/>
       <use x="63.623047" xlink:href="#DejaVuSans-48"/>
       <use x="127.246094" xlink:href="#DejaVuSans-48"/>
       <use x="190.869141" xlink:href="#DejaVuSans-48"/>
      </g>
     </g>
    </g>
    <g id="ytick_5">
     <g id="line2d_37">
      <path clip-path="url(#p94009f7b37)" d="M 144 258.835335 
L 1036.8 258.835335 
" style="fill:none;stroke:#ffffff;stroke-linecap:square;stroke-width:0.8;"/>
     </g>
     <g id="line2d_38">
      <g>
       <use style="fill:#555555;stroke:#555555;stroke-width:0.8;" x="144" xlink:href="#mf35c2c4a11" y="258.835335"/>
      </g>
     </g>
     <g id="text_14">
      <!-- 5000 -->
      <defs>
       <path d="M 10.796875 72.90625 
L 49.515625 72.90625 
L 49.515625 64.59375 
L 19.828125 64.59375 
L 19.828125 46.734375 
Q 21.96875 47.46875 24.109375 47.828125 
Q 26.265625 48.1875 28.421875 48.1875 
Q 40.625 48.1875 47.75 41.5 
Q 54.890625 34.8125 54.890625 23.390625 
Q 54.890625 11.625 47.5625 5.09375 
Q 40.234375 -1.421875 26.90625 -1.421875 
Q 22.3125 -1.421875 17.546875 -0.640625 
Q 12.796875 0.140625 7.71875 1.703125 
L 7.71875 11.625 
Q 12.109375 9.234375 16.796875 8.0625 
Q 21.484375 6.890625 26.703125 6.890625 
Q 35.15625 6.890625 40.078125 11.328125 
Q 45.015625 15.765625 45.015625 23.390625 
Q 45.015625 31 40.078125 35.4375 
Q 35.15625 39.890625 26.703125 39.890625 
Q 22.75 39.890625 18.8125 39.015625 
Q 14.890625 38.140625 10.796875 36.28125 
z
" id="DejaVuSans-53"/>
      </defs>
      <g style="fill:#555555;" transform="translate(111.55 262.634554)scale(0.1 -0.1)">
       <use xlink:href="#DejaVuSans-53"/>
       <use x="63.623047" xlink:href="#DejaVuSans-48"/>
       <use x="127.246094" xlink:href="#DejaVuSans-48"/>
       <use x="190.869141" xlink:href="#DejaVuSans-48"/>
      </g>
     </g>
    </g>
    <g id="ytick_6">
     <g id="line2d_39">
      <path clip-path="url(#p94009f7b37)" d="M 144 141.615317 
L 1036.8 141.615317 
" style="fill:none;stroke:#ffffff;stroke-linecap:square;stroke-width:0.8;"/>
     </g>
     <g id="line2d_40">
      <g>
       <use style="fill:#555555;stroke:#555555;stroke-width:0.8;" x="144" xlink:href="#mf35c2c4a11" y="141.615317"/>
      </g>
     </g>
     <g id="text_15">
      <!-- 6000 -->
      <g style="fill:#555555;" transform="translate(111.55 145.414535)scale(0.1 -0.1)">
       <use xlink:href="#DejaVuSans-54"/>
       <use x="63.623047" xlink:href="#DejaVuSans-48"/>
       <use x="127.246094" xlink:href="#DejaVuSans-48"/>
       <use x="190.869141" xlink:href="#DejaVuSans-48"/>
      </g>
     </g>
    </g>
    <g id="text_16">
     <!-- Average Index -->
     <defs>
      <path d="M 34.1875 63.1875 
L 20.796875 26.90625 
L 47.609375 26.90625 
z
M 28.609375 72.90625 
L 39.796875 72.90625 
L 67.578125 0 
L 57.328125 0 
L 50.6875 18.703125 
L 17.828125 18.703125 
L 11.1875 0 
L 0.78125 0 
z
" id="DejaVuSans-65"/>
      <path d="M 2.984375 54.6875 
L 12.5 54.6875 
L 29.59375 8.796875 
L 46.6875 54.6875 
L 56.203125 54.6875 
L 35.6875 0 
L 23.484375 0 
z
" id="DejaVuSans-118"/>
      <path d="M 41.109375 46.296875 
Q 39.59375 47.171875 37.8125 47.578125 
Q 36.03125 48 33.890625 48 
Q 26.265625 48 22.1875 43.046875 
Q 18.109375 38.09375 18.109375 28.8125 
L 18.109375 0 
L 9.078125 0 
L 9.078125 54.6875 
L 18.109375 54.6875 
L 18.109375 46.1875 
Q 20.953125 51.171875 25.484375 53.578125 
Q 30.03125 56 36.53125 56 
Q 37.453125 56 38.578125 55.875 
Q 39.703125 55.765625 41.0625 55.515625 
z
" id="DejaVuSans-114"/>
      <path d="M 45.40625 27.984375 
Q 45.40625 37.75 41.375 43.109375 
Q 37.359375 48.484375 30.078125 48.484375 
Q 22.859375 48.484375 18.828125 43.109375 
Q 14.796875 37.75 14.796875 27.984375 
Q 14.796875 18.265625 18.828125 12.890625 
Q 22.859375 7.515625 30.078125 7.515625 
Q 37.359375 7.515625 41.375 12.890625 
Q 45.40625 18.265625 45.40625 27.984375 
z
M 54.390625 6.78125 
Q 54.390625 -7.171875 48.1875 -13.984375 
Q 42 -20.796875 29.203125 -20.796875 
Q 24.46875 -20.796875 20.265625 -20.09375 
Q 16.0625 -19.390625 12.109375 -17.921875 
L 12.109375 -9.1875 
Q 16.0625 -11.328125 19.921875 -12.34375 
Q 23.78125 -13.375 27.78125 -13.375 
Q 36.625 -13.375 41.015625 -8.765625 
Q 45.40625 -4.15625 45.40625 5.171875 
L 45.40625 9.625 
Q 42.625 4.78125 38.28125 2.390625 
Q 33.9375 0 27.875 0 
Q 17.828125 0 11.671875 7.65625 
Q 5.515625 15.328125 5.515625 27.984375 
Q 5.515625 40.671875 11.671875 48.328125 
Q 17.828125 56 27.875 56 
Q 33.9375 56 38.28125 53.609375 
Q 42.625 51.21875 45.40625 46.390625 
L 45.40625 54.6875 
L 54.390625 54.6875 
z
" id="DejaVuSans-103"/>
      <path id="DejaVuSans-32"/>
      <path d="M 9.8125 72.90625 
L 19.671875 72.90625 
L 19.671875 0 
L 9.8125 0 
z
" id="DejaVuSans-73"/>
      <path d="M 54.890625 33.015625 
L 54.890625 0 
L 45.90625 0 
L 45.90625 32.71875 
Q 45.90625 40.484375 42.875 44.328125 
Q 39.84375 48.1875 33.796875 48.1875 
Q 26.515625 48.1875 22.3125 43.546875 
Q 18.109375 38.921875 18.109375 30.90625 
L 18.109375 0 
L 9.078125 0 
L 9.078125 54.6875 
L 18.109375 54.6875 
L 18.109375 46.1875 
Q 21.34375 51.125 25.703125 53.5625 
Q 30.078125 56 35.796875 56 
Q 45.21875 56 50.046875 50.171875 
Q 54.890625 44.34375 54.890625 33.015625 
z
" id="DejaVuSans-110"/>
      <path d="M 45.40625 46.390625 
L 45.40625 75.984375 
L 54.390625 75.984375 
L 54.390625 0 
L 45.40625 0 
L 45.40625 8.203125 
Q 42.578125 3.328125 38.25 0.953125 
Q 33.9375 -1.421875 27.875 -1.421875 
Q 17.96875 -1.421875 11.734375 6.484375 
Q 5.515625 14.40625 5.515625 27.296875 
Q 5.515625 40.1875 11.734375 48.09375 
Q 17.96875 56 27.875 56 
Q 33.9375 56 38.25 53.625 
Q 42.578125 51.265625 45.40625 46.390625 
z
M 14.796875 27.296875 
Q 14.796875 17.390625 18.875 11.75 
Q 22.953125 6.109375 30.078125 6.109375 
Q 37.203125 6.109375 41.296875 11.75 
Q 45.40625 17.390625 45.40625 27.296875 
Q 45.40625 37.203125 41.296875 42.84375 
Q 37.203125 48.484375 30.078125 48.484375 
Q 22.953125 48.484375 18.875 42.84375 
Q 14.796875 37.203125 14.796875 27.296875 
z
" id="DejaVuSans-100"/>
      <path d="M 54.890625 54.6875 
L 35.109375 28.078125 
L 55.90625 0 
L 45.3125 0 
L 29.390625 21.484375 
L 13.484375 0 
L 2.875 0 
L 24.125 28.609375 
L 4.6875 54.6875 
L 15.28125 54.6875 
L 29.78125 35.203125 
L 44.28125 54.6875 
z
" id="DejaVuSans-120"/>
     </defs>
     <g style="fill:#555555;" transform="translate(105.054375 473.357812)rotate(-90)scale(0.12 -0.12)">
      <use xlink:href="#DejaVuSans-65"/>
      <use x="68.330078" xlink:href="#DejaVuSans-118"/>
      <use x="127.509766" xlink:href="#DejaVuSans-101"/>
      <use x="189.033203" xlink:href="#DejaVuSans-114"/>
      <use x="230.146484" xlink:href="#DejaVuSans-97"/>
      <use x="291.425781" xlink:href="#DejaVuSans-103"/>
      <use x="354.902344" xlink:href="#DejaVuSans-101"/>
      <use x="416.425781" xlink:href="#DejaVuSans-32"/>
      <use x="448.212891" xlink:href="#DejaVuSans-73"/>
      <use x="477.705078" xlink:href="#DejaVuSans-110"/>
      <use x="541.083984" xlink:href="#DejaVuSans-100"/>
      <use x="604.560547" xlink:href="#DejaVuSans-101"/>
      <use x="666.068359" xlink:href="#DejaVuSans-120"/>
     </g>
    </g>
   </g>
   <g id="PolyCollection_1">
    <defs>
     <path d="M 1029.706243 -476.503057 
L 1029.706243 -438.159323 
L 1030.719637 -426.99016 
L 1031.733031 -417.968184 
L 1032.746425 -410.932803 
L 1033.759818 -406.8201 
L 1034.773212 -401.784994 
L 1035.786606 -396.930448 
L 1036.8 -390.258492 
L 1036.8 -525.165689 
L 1036.8 -525.165689 
L 1035.786606 -522.668996 
L 1034.773212 -517.6315 
L 1033.759818 -511.84697 
L 1032.746425 -503.889101 
L 1031.733031 -497.029411 
L 1030.719637 -489.122761 
L 1029.706243 -476.503057 
z
" id="m5ee0ee3313" style="stroke:#000000;stroke-opacity:0.25;stroke-width:0.5;"/>
    </defs>
    <g clip-path="url(#p94009f7b37)">
     <use style="fill-opacity:0.25;stroke:#000000;stroke-opacity:0.25;stroke-width:0.5;" x="0" xlink:href="#m5ee0ee3313" y="864"/>
    </g>
   </g>
   <g id="line2d_41">
    <path clip-path="url(#p94009f7b37)" d="M 144 620.569278 
L 145.013394 623.122799 
L 146.026788 623.71054 
L 147.040182 623.477741 
L 148.053575 622.772428 
L 149.066969 621.024795 
L 150.080363 620.457684 
L 151.093757 620.719085 
L 152.107151 618.427199 
L 153.120545 621.534233 
L 154.133939 625.706562 
L 155.147333 627.548323 
L 156.160726 630.444126 
L 157.17412 631.961422 
L 158.187514 632.116036 
L 159.200908 633.433589 
L 160.214302 636.231279 
L 161.227696 637.302142 
L 162.24109 640.867799 
L 163.254484 647.027008 
L 164.267877 651.812398 
L 165.281271 653.43865 
L 166.294665 654.844411 
L 167.308059 656.873958 
L 168.321453 656.000904 
L 169.334847 652.605977 
L 170.348241 651.43284 
L 171.361635 652.955762 
L 173.388422 654.706677 
L 174.401816 655.859302 
L 175.41521 658.310607 
L 177.441998 664.724886 
L 178.455392 667.407584 
L 179.468785 669.540988 
L 180.482179 673.730431 
L 181.495573 676.895372 
L 182.508967 678.92656 
L 183.522361 681.590737 
L 184.535755 680.413027 
L 186.562543 669.982204 
L 187.575936 670.68951 
L 188.58933 672.246192 
L 190.616118 674.020903 
L 191.629512 675.946359 
L 192.642906 678.794805 
L 193.6563 680.260934 
L 194.669694 684.861527 
L 195.683087 686.957616 
L 196.696481 685.648953 
L 197.709875 683.637398 
L 198.723269 683.889421 
L 199.736663 686.388083 
L 200.750057 687.235115 
L 201.763451 688.68372 
L 202.776844 689.061872 
L 203.790238 688.453969 
L 204.803632 689.758393 
L 205.817026 692.96272 
L 206.83042 697.776243 
L 208.857208 705.323747 
L 209.870602 706.703426 
L 210.883995 707.865604 
L 211.897389 709.559199 
L 212.910783 711.880155 
L 213.924177 712.851909 
L 214.937571 712.486652 
L 215.950965 713.399327 
L 216.964359 717.258444 
L 217.977753 720.541777 
L 218.991146 719.418106 
L 220.00454 718.504258 
L 221.017934 718.481283 
L 222.031328 718.272163 
L 223.044722 717.478818 
L 224.058116 717.404266 
L 225.07151 714.946631 
L 226.084904 714.917091 
L 228.111691 718.698375 
L 229.125085 720.124942 
L 230.138479 720.924852 
L 231.151873 722.667445 
L 232.165267 722.660411 
L 233.178661 725.266447 
L 234.192054 726.349091 
L 235.205448 723.988983 
L 237.232236 723.976382 
L 238.24563 722.170197 
L 239.259024 720.792393 
L 240.272418 716.689693 
L 242.299205 700.168703 
L 243.312599 705.502917 
L 244.325993 710.030423 
L 245.339387 708.772359 
L 246.352781 705.13766 
L 247.366175 696.764165 
L 248.379569 692.704132 
L 249.392963 686.09136 
L 250.406356 666.127307 
L 251.41975 664.92838 
L 252.433144 664.934241 
L 253.446538 662.901646 
L 254.459932 666.035641 
L 255.473326 665.765097 
L 256.48672 667.522225 
L 257.500114 665.40992 
L 258.513507 663.799551 
L 259.526901 659.368869 
L 260.540295 661.692404 
L 261.553689 656.702583 
L 262.567083 655.458409 
L 263.580477 653.558273 
L 264.593871 647.602851 
L 265.607264 639.53577 
L 266.620658 630.178389 
L 267.634052 605.96929 
L 268.647446 585.81026 
L 269.66084 602.458785 
L 270.674234 604.918999 
L 271.687628 607.783797 
L 272.701022 608.32213 
L 273.714415 614.184069 
L 274.727809 614.474774 
L 275.741203 618.697274 
L 276.754597 618.500344 
L 277.767991 617.559068 
L 278.781385 616.912482 
L 279.794779 611.683766 
L 280.808173 608.584703 
L 281.821566 606.211935 
L 282.83496 605.186729 
L 283.848354 599.947698 
L 284.861748 598.159858 
L 285.875142 591.408454 
L 286.888536 587.880366 
L 288.915323 565.339425 
L 289.928717 563.067291 
L 290.942111 562.406346 
L 291.955505 556.708105 
L 292.968899 555.909778 
L 293.982293 557.854692 
L 294.995687 556.821046 
L 296.009081 555.054541 
L 297.022474 531.837534 
L 298.035868 521.423883 
L 299.049262 530.385471 
L 300.062656 535.307422 
L 301.07605 529.736267 
L 302.089444 523.504656 
L 303.102838 521.865099 
L 305.129625 508.225612 
L 306.143019 481.59932 
L 307.156413 479.846411 
L 308.169807 474.956461 
L 309.183201 475.661188 
L 310.196595 474.427096 
L 311.209989 475.926808 
L 312.223383 478.35842 
L 313.236776 496.558938 
L 314.25017 505.854486 
L 316.276958 539.231772 
L 317.290352 531.815262 
L 318.303746 522.862173 
L 319.31714 526.244908 
L 320.330533 532.664345 
L 321.343927 533.269904 
L 322.357321 538.769632 
L 323.370715 537.149652 
L 324.384109 530.730097 
L 325.397503 534.588394 
L 326.410897 530.652615 
L 327.424291 530.876974 
L 328.437684 535.579607 
L 329.451078 535.254204 
L 330.464472 530.628233 
L 331.477866 534.557448 
L 332.49126 532.912851 
L 333.504654 524.756917 
L 334.518048 524.176209 
L 335.531442 527.234948 
L 336.544835 529.367649 
L 337.558229 527.048568 
L 338.571623 527.561758 
L 339.585017 532.388643 
L 340.598411 534.792123 
L 341.611805 533.727062 
L 342.625199 532.96771 
L 343.638593 525.631027 
L 344.651986 522.181242 
L 345.66538 515.211222 
L 346.678774 511.449163 
L 347.692168 511.105005 
L 348.705562 507.019711 
L 349.718956 505.27917 
L 350.73235 500.35124 
L 351.745743 494.852918 
L 352.759137 492.353729 
L 353.772531 500.462599 
L 354.785925 501.91478 
L 355.799319 495.225209 
L 356.812713 485.815489 
L 357.826107 483.555956 
L 358.839501 482.342494 
L 359.852894 477.796702 
L 360.866288 470.844617 
L 361.879682 469.217369 
L 362.893076 469.110933 
L 363.90647 469.327556 
L 364.919864 469.410313 
L 366.946652 475.47346 
L 367.960045 477.689211 
L 368.973439 475.277175 
L 369.986833 476.421946 
L 371.000227 475.674082 
L 372.013621 469.030286 
L 373.027015 465.204107 
L 374.040409 461.82735 
L 375.053802 456.770713 
L 376.067196 444.012252 
L 377.08059 434.535248 
L 378.093984 421.450446 
L 379.107378 404.961809 
L 380.120772 395.545291 
L 381.134166 382.88717 
L 382.14756 362.439545 
L 383.160953 349.510411 
L 384.174347 370.324466 
L 385.187741 379.45614 
L 386.201135 373.296228 
L 387.214529 371.51214 
L 388.227923 371.539569 
L 389.241317 374.875182 
L 390.254711 384.569277 
L 391.268104 392.457247 
L 392.281498 398.386939 
L 393.294892 400.819723 
L 394.308286 397.091892 
L 395.32168 394.202653 
L 396.335074 389.069412 
L 397.348468 377.583609 
L 398.361862 377.562568 
L 399.375255 387.202977 
L 400.388649 386.096654 
L 402.415437 380.376083 
L 403.428831 378.007066 
L 404.442225 377.11174 
L 405.455619 381.355456 
L 406.469012 381.173882 
L 407.482406 379.249012 
L 408.4958 374.624097 
L 410.522588 352.504914 
L 411.535982 354.790001 
L 412.549376 356.556037 
L 414.576163 365.6924 
L 415.589557 367.562294 
L 416.602951 370.156842 
L 417.616345 383.540086 
L 418.629739 387.995384 
L 419.643133 374.691615 
L 420.656527 363.83962 
L 421.669921 368.809749 
L 422.683314 377.950215 
L 423.696708 378.764698 
L 424.710102 376.610507 
L 425.723496 364.902747 
L 427.750284 325.746397 
L 428.763678 333.88381 
L 429.777072 334.621886 
L 430.790465 348.134248 
L 431.803859 348.796541 
L 432.817253 343.448729 
L 433.830647 348.018435 
L 434.844041 344.895693 
L 435.857435 343.932379 
L 436.870829 346.730187 
L 437.884222 345.648949 
L 438.897616 342.444623 
L 439.91101 329.740786 
L 440.924404 325.809696 
L 441.937798 321.303758 
L 442.951192 318.623874 
L 443.964586 317.023821 
L 444.97798 299.438239 
L 445.991373 279.123541 
L 447.004767 279.946895 
L 448.018161 269.594726 
L 449.031555 271.397218 
L 450.044949 274.977997 
L 451.058343 257.597491 
L 452.071737 213.329117 
L 453.085131 185.963166 
L 454.098524 187.529694 
L 455.111918 178.246338 
L 456.125312 179.637974 
L 457.138706 205.011185 
L 458.1521 193.941747 
L 459.165494 195.066707 
L 460.178888 191.281438 
L 461.192281 164.221588 
L 462.205675 133.330909 
L 463.219069 134.825933 
L 464.232463 139.842247 
L 465.245857 165.121212 
L 466.259251 178.194292 
L 467.272645 159.93704 
L 468.286039 168.549195 
L 469.299432 210.292884 
L 470.312826 227.78047 
L 471.32622 232.995823 
L 472.339614 282.798858 
L 473.353008 282.092255 
L 474.366402 236.277808 
L 475.379796 231.930996 
L 476.39319 242.623572 
L 477.406583 239.701511 
L 478.419977 240.184165 
L 479.433371 248.384232 
L 480.446765 238.375518 
L 481.460159 241.911577 
L 482.473553 252.399956 
L 483.486947 251.896379 
L 484.500341 248.004205 
L 485.513734 241.910874 
L 486.527128 246.251766 
L 487.540522 240.861989 
L 488.553916 245.176858 
L 489.56731 244.348347 
L 490.580704 230.900632 
L 491.594098 220.825572 
L 493.620885 236.330029 
L 494.634279 238.559319 
L 495.647673 221.047821 
L 496.661067 206.574196 
L 497.674461 195.430558 
L 498.687855 200.283936 
L 499.701249 225.101758 
L 500.714642 244.136179 
L 501.728036 270.534479 
L 502.74143 247.508364 
L 503.754824 248.603434 
L 504.768218 260.015037 
L 505.781612 250.542722 
L 506.795006 245.648552 
L 507.8084 237.549586 
L 508.821793 233.850826 
L 509.835187 230.582732 
L 510.848581 221.211519 
L 511.861975 223.725009 
L 512.875369 206.692354 
L 513.888763 246.481908 
L 514.902157 220.952404 
L 516.928944 262.179915 
L 517.942338 291.950224 
L 518.955732 297.540681 
L 519.969126 268.88531 
L 520.98252 265.9316 
L 521.995914 267.80337 
L 523.009308 222.544721 
L 524.022701 241.193957 
L 525.036095 277.493831 
L 526.049489 275.021075 
L 527.062883 273.737047 
L 528.076277 256.98912 
L 529.089671 245.451388 
L 530.103065 240.07474 
L 531.116459 223.770139 
L 532.129852 219.096342 
L 533.143246 234.774988 
L 534.15664 241.047666 
L 535.170034 245.223981 
L 536.183428 215.628036 
L 537.196822 218.097627 
L 538.210216 223.734973 
L 539.22361 236.428025 
L 540.237003 239.292882 
L 541.250397 250.601332 
L 542.263791 252.646118 
L 543.277185 260.450392 
L 544.290579 266.097584 
L 545.303973 288.038358 
L 546.317367 303.282821 
L 547.33076 284.819027 
L 548.344154 294.609712 
L 549.357548 306.700723 
L 550.370942 327.294404 
L 551.384336 361.439658 
L 552.39773 340.8652 
L 553.411124 352.700437 
L 554.424518 372.734803 
L 555.437911 400.167511 
L 557.464699 466.327427 
L 558.478093 397.971101 
L 559.491487 408.418393 
L 560.504881 427.239239 
L 561.518275 443.637617 
L 562.531669 470.015637 
L 563.545062 468.468392 
L 564.558456 453.867642 
L 565.57185 448.135114 
L 566.585244 435.503485 
L 567.598638 425.321989 
L 568.612032 438.691635 
L 569.625426 456.915831 
L 570.63882 464.079616 
L 571.652213 491.857947 
L 573.679001 522.775664 
L 575.705789 565.494859 
L 576.719183 560.4408 
L 577.732577 530.69247 
L 578.74597 534.649114 
L 579.759364 517.483884 
L 580.772758 515.407097 
L 581.786152 525.87924 
L 582.799546 522.786448 
L 583.81294 515.467172 
L 584.826334 514.779149 
L 585.839728 512.608703 
L 586.853121 509.075457 
L 587.866515 509.296065 
L 588.879909 505.348154 
L 589.893303 498.387102 
L 591.920091 459.978322 
L 592.933485 455.504502 
L 593.946879 454.351526 
L 594.960272 462.971183 
L 595.973666 457.157774 
L 596.98706 462.226602 
L 598.000454 465.481626 
L 599.013848 462.817801 
L 600.027242 469.339336 
L 601.040636 479.824374 
L 602.05403 475.005459 
L 603.067423 479.176616 
L 604.080817 484.567799 
L 605.094211 488.448837 
L 606.107605 490.849151 
L 608.134393 495.070303 
L 609.147787 488.449423 
L 610.16118 486.289996 
L 611.174574 483.734131 
L 612.187968 480.161264 
L 613.201362 478.240028 
L 614.214756 472.374104 
L 615.22815 472.286424 
L 616.241544 471.995015 
L 617.254938 473.548414 
L 618.268331 470.078702 
L 619.281725 466.086579 
L 620.295119 461.20163 
L 621.308513 446.807246 
L 622.321907 421.686293 
L 623.335301 424.090475 
L 624.348695 424.734013 
L 625.362089 422.576227 
L 626.375482 428.03024 
L 628.40227 415.26709 
L 629.415664 390.504127 
L 630.429058 371.685156 
L 631.442452 373.321313 
L 632.455846 369.598874 
L 633.46924 368.795917 
L 634.482633 366.232784 
L 635.496027 358.215638 
L 636.509421 344.333975 
L 637.522815 347.57886 
L 638.536209 346.848579 
L 639.549603 340.604268 
L 640.562997 344.957585 
L 641.57639 347.074462 
L 642.589784 345.815167 
L 643.603178 338.741408 
L 644.616572 342.264338 
L 645.629966 337.71878 
L 646.64336 339.309691 
L 647.656754 336.64317 
L 648.670148 336.586201 
L 649.683541 333.238162 
L 650.696935 304.914524 
L 651.710329 308.377203 
L 652.723723 307.78407 
L 653.737117 311.446609 
L 654.750511 322.553558 
L 655.763905 323.56798 
L 656.777299 313.032948 
L 657.790692 306.655945 
L 658.804086 303.27063 
L 659.81748 302.63858 
L 660.830874 303.366282 
L 661.844268 299.288256 
L 662.857662 298.294875 
L 663.871056 298.913328 
L 664.884449 303.385975 
L 665.897843 310.473801 
L 666.911237 312.699809 
L 667.924631 329.281752 
L 668.938025 331.698126 
L 669.951419 333.239276 
L 670.964813 335.574826 
L 671.978207 330.741611 
L 672.9916 312.073854 
L 674.004994 309.181333 
L 675.018388 313.201041 
L 676.031782 316.496096 
L 677.045176 327.453589 
L 679.071964 341.323999 
L 680.085358 345.549078 
L 681.098751 353.334597 
L 682.112145 373.740023 
L 683.125539 375.863347 
L 684.138933 388.705972 
L 685.152327 388.90548 
L 686.165721 376.757266 
L 687.179115 375.389309 
L 688.192509 373.699231 
L 689.205902 373.171447 
L 690.219296 372.195005 
L 691.23269 375.205742 
L 692.246084 377.343601 
L 693.259478 369.375922 
L 694.272872 366.240228 
L 695.286266 365.966929 
L 696.299659 376.072233 
L 698.326447 381.472324 
L 699.339841 385.02878 
L 700.353235 399.865317 
L 701.366629 403.286501 
L 702.380023 404.994631 
L 703.393417 407.240098 
L 704.40681 429.737901 
L 705.420204 432.028381 
L 706.433598 437.064152 
L 708.460386 449.223854 
L 709.47378 440.603728 
L 710.487174 440.358738 
L 711.500568 454.731788 
L 712.513961 460.756428 
L 713.527355 458.924279 
L 714.540749 458.328958 
L 715.554143 450.324491 
L 716.567537 432.760068 
L 719.607719 457.087442 
L 720.621112 474.467419 
L 721.634506 482.816532 
L 722.6479 479.87302 
L 723.661294 478.50729 
L 724.674688 472.303538 
L 725.688082 468.019732 
L 726.701476 470.684964 
L 727.714869 470.523669 
L 728.728263 471.313029 
L 729.741657 468.27281 
L 730.755051 474.02761 
L 731.768445 475.002411 
L 732.781839 469.454622 
L 733.795233 458.59325 
L 734.808627 449.137111 
L 735.82202 452.558763 
L 736.835414 458.039268 
L 737.848808 452.3405 
L 739.875596 442.386059 
L 741.902384 427.075131 
L 742.915778 426.344206 
L 743.929171 423.576348 
L 744.942565 415.950248 
L 745.955959 414.449129 
L 746.969353 419.336207 
L 747.982747 417.909933 
L 748.996141 414.092546 
L 750.009535 412.936756 
L 751.022928 408.611103 
L 752.036322 401.037049 
L 753.049716 400.216978 
L 754.06311 399.861273 
L 755.076504 392.042757 
L 756.089898 395.255758 
L 757.103292 397.007259 
L 758.116686 399.215215 
L 759.130079 397.374451 
L 760.143473 392.454434 
L 761.156867 389.272848 
L 762.170261 385.13756 
L 763.183655 382.43728 
L 764.197049 380.818471 
L 765.210443 377.99722 
L 766.223837 377.700888 
L 767.23723 372.924172 
L 768.250624 364.943833 
L 769.264018 359.728167 
L 770.277412 360.391476 
L 771.290806 357.69776 
L 772.3042 357.123617 
L 773.317594 361.356197 
L 774.330988 370.486933 
L 775.344381 372.197349 
L 776.357775 363.778432 
L 777.371169 362.214013 
L 778.384563 357.776356 
L 779.397957 342.41649 
L 780.411351 317.73394 
L 781.424745 326.485117 
L 782.438138 327.851434 
L 784.464926 302.32654 
L 785.47832 314.351322 
L 786.491714 317.261895 
L 787.505108 307.939973 
L 788.518502 275.254108 
L 789.531896 291.903571 
L 790.545289 282.798623 
L 791.558683 258.153407 
L 792.572077 258.270334 
L 793.585471 267.131933 
L 794.598865 281.71129 
L 795.612259 284.103575 
L 796.625653 271.957178 
L 797.639047 269.067939 
L 798.65244 262.459309 
L 799.665834 260.922554 
L 800.679228 260.981868 
L 801.692622 274.0519 
L 802.706016 292.139691 
L 803.71941 302.149304 
L 804.732804 308.928137 
L 805.746198 301.124801 
L 806.759591 284.17127 
L 807.772985 282.266913 
L 808.786379 283.759358 
L 809.799773 283.439231 
L 810.813167 280.213629 
L 811.826561 278.56698 
L 812.839955 288.632429 
L 813.853348 297.178941 
L 814.866742 290.351109 
L 815.880136 290.460827 
L 816.89353 288.197074 
L 817.906924 279.870467 
L 818.920318 267.395444 
L 819.933712 267.006977 
L 820.947106 265.110513 
L 821.960499 262.718365 
L 823.987287 255.096954 
L 825.000681 253.138676 
L 826.014075 246.690872 
L 827.027469 254.744356 
L 828.040863 265.614168 
L 829.054257 274.208271 
L 830.06765 273.517924 
L 831.081044 270.172855 
L 832.094438 257.699942 
L 833.107832 255.59045 
L 834.121226 250.732618 
L 835.13462 259.504192 
L 836.148014 276.222111 
L 837.161407 267.718033 
L 838.174801 281.504514 
L 839.188195 271.090219 
L 840.201589 269.442574 
L 841.214983 264.937809 
L 842.228377 265.847436 
L 843.241771 262.694687 
L 844.255165 266.662819 
L 845.268558 272.219048 
L 846.281952 269.147473 
L 847.295346 267.927799 
L 848.30874 264.00591 
L 849.322134 264.800427 
L 850.335528 263.348774 
L 851.348922 268.134164 
L 852.362316 271.723441 
L 853.375709 276.224631 
L 854.389103 278.90012 
L 855.402497 283.091204 
L 857.429285 270.456762 
L 858.442679 272.007817 
L 859.456073 270.851324 
L 860.469467 271.822844 
L 861.48286 270.461509 
L 862.496254 258.940364 
L 863.509648 256.224376 
L 864.523042 253.863331 
L 865.536436 249.938101 
L 866.54983 240.434605 
L 867.563224 237.527783 
L 868.576617 232.115735 
L 869.590011 221.972921 
L 870.603405 227.81798 
L 871.616799 224.500185 
L 872.630193 224.015832 
L 873.643587 231.555013 
L 874.656981 234.305639 
L 875.670375 244.850049 
L 876.683768 246.103365 
L 878.710556 240.864803 
L 879.72395 239.861868 
L 880.737344 237.85852 
L 881.750738 256.167642 
L 882.764132 264.040685 
L 883.777526 247.966988 
L 884.790919 246.868812 
L 885.804313 238.689434 
L 886.817707 238.505633 
L 887.831101 234.531405 
L 888.844495 228.370321 
L 889.857889 221.018281 
L 890.871283 208.497308 
L 891.884677 203.834296 
L 892.89807 206.802775 
L 893.911464 216.62089 
L 894.924858 220.168202 
L 895.938252 228.581786 
L 896.951646 231.635309 
L 897.96504 242.011039 
L 898.978434 245.660274 
L 899.991827 251.6467 
L 901.005221 251.104382 
L 902.018615 249.097633 
L 905.058797 278.987097 
L 907.085585 287.870968 
L 908.098978 284.667814 
L 909.112372 283.224366 
L 910.125766 276.318935 
L 911.13916 285.230939 
L 912.152554 295.860684 
L 913.165948 309.200791 
L 914.179342 320.318407 
L 915.192736 334.297597 
L 916.206129 317.585539 
L 917.219523 322.323338 
L 918.232917 354.157481 
L 919.246311 358.598948 
L 920.259705 351.222292 
L 921.273099 347.272212 
L 922.286493 350.14293 
L 923.299886 356.561898 
L 924.31328 369.519868 
L 925.326674 385.073323 
L 926.340068 384.01342 
L 927.353462 387.567531 
L 928.366856 393.463229 
L 931.407037 373.682527 
L 932.420431 376.773912 
L 933.433825 376.784461 
L 934.447219 376.932159 
L 935.460613 380.81302 
L 936.474007 375.504419 
L 937.487401 377.603361 
L 938.500795 390.23288 
L 939.514188 400.354359 
L 940.527582 404.323664 
L 942.55437 395.637191 
L 943.567764 398.592074 
L 944.581158 393.679383 
L 945.594552 385.595656 
L 946.607946 381.175289 
L 947.621339 383.71404 
L 948.634733 379.320224 
L 949.648127 377.363528 
L 950.661521 373.505583 
L 951.674915 385.085749 
L 952.688309 381.138951 
L 953.701703 375.655164 
L 954.715096 377.379353 
L 955.72849 383.903702 
L 956.741884 389.555817 
L 957.755278 389.57973 
L 958.768672 396.873042 
L 959.782066 398.35904 
L 960.79546 400.070453 
L 961.808854 405.494223 
L 962.822247 417.756609 
L 963.835641 415.45095 
L 964.849035 420.501902 
L 965.862429 431.415554 
L 966.875823 436.192504 
L 967.889217 437.807796 
L 968.902611 439.695273 
L 969.916005 437.3354 
L 970.929398 449.00981 
L 971.942792 474.841586 
L 972.956186 472.228517 
L 973.96958 467.147322 
L 974.982974 471.584979 
L 975.996368 469.064749 
L 977.009762 460.736266 
L 978.023156 463.778126 
L 979.036549 465.853799 
L 980.049943 469.142114 
L 981.063337 464.971191 
L 982.076731 464.194257 
L 983.090125 460.978677 
L 984.103519 461.522578 
L 985.116913 463.922775 
L 987.1437 477.486421 
L 988.157094 482.406965 
L 989.170488 474.765158 
L 990.183882 472.460319 
L 991.197276 487.784317 
L 992.21067 501.32487 
L 993.224064 510.377772 
L 994.237457 514.814784 
L 995.250851 503.972636 
L 996.264245 499.18959 
L 997.277639 495.027342 
L 998.291033 495.035547 
L 999.304427 498.228386 
L 1000.317821 496.451799 
L 1001.331215 488.6705 
L 1002.344608 479.897285 
L 1003.358002 481.313303 
L 1004.371396 481.274093 
L 1006.398184 475.348445 
L 1007.411578 476.729766 
L 1008.424972 471.896784 
L 1009.438365 464.976114 
L 1010.451759 450.064087 
L 1011.465153 440.801537 
L 1012.478547 438.076699 
L 1013.491941 434.019011 
L 1014.505335 422.303339 
L 1015.518729 422.085896 
L 1016.532123 425.351059 
L 1017.545516 419.895405 
L 1018.55891 413.642655 
L 1019.572304 404.804969 
L 1020.585698 403.463738 
L 1021.599092 389.281581 
L 1022.612486 369.047003 
L 1023.62588 372.0333 
L 1024.639274 374.078086 
L 1025.652667 399.289298 
L 1026.666061 397.901413 
L 1027.679455 402.060848 
L 1028.692849 406.968382 
L 1028.692849 406.968382 
" style="fill:none;stroke:#e24a33;stroke-linecap:square;stroke-width:1.5;"/>
   </g>
   <g id="line2d_42">
    <path clip-path="url(#p94009f7b37)" d="M 1029.706243 406.66881 
L 1030.719637 405.943539 
L 1031.733031 406.501203 
L 1032.746425 406.589048 
L 1033.759818 404.666465 
L 1034.773212 404.291753 
L 1035.786606 404.200278 
L 1036.8 406.287909 
" style="fill:none;stroke:#348abd;stroke-linecap:square;stroke-width:1.5;"/>
   </g>
   <g id="patch_3">
    <path d="M 144 756 
L 144 103.68 
" style="fill:none;stroke:#ffffff;stroke-linecap:square;stroke-linejoin:miter;"/>
   </g>
   <g id="patch_4">
    <path d="M 1036.8 756 
L 1036.8 103.68 
" style="fill:none;stroke:#ffffff;stroke-linecap:square;stroke-linejoin:miter;"/>
   </g>
   <g id="patch_5">
    <path d="M 144 756 
L 1036.8 756 
" style="fill:none;stroke:#ffffff;stroke-linecap:square;stroke-linejoin:miter;"/>
   </g>
   <g id="patch_6">
    <path d="M 144 103.68 
L 1036.8 103.68 
" style="fill:none;stroke:#ffffff;stroke-linecap:square;stroke-linejoin:miter;"/>
   </g>
   <g id="text_17">
    <!-- Index Forecast -->
    <defs>
     <path d="M 9.8125 72.90625 
L 51.703125 72.90625 
L 51.703125 64.59375 
L 19.671875 64.59375 
L 19.671875 43.109375 
L 48.578125 43.109375 
L 48.578125 34.8125 
L 19.671875 34.8125 
L 19.671875 0 
L 9.8125 0 
z
" id="DejaVuSans-70"/>
     <path d="M 30.609375 48.390625 
Q 23.390625 48.390625 19.1875 42.75 
Q 14.984375 37.109375 14.984375 27.296875 
Q 14.984375 17.484375 19.15625 11.84375 
Q 23.34375 6.203125 30.609375 6.203125 
Q 37.796875 6.203125 41.984375 11.859375 
Q 46.1875 17.53125 46.1875 27.296875 
Q 46.1875 37.015625 41.984375 42.703125 
Q 37.796875 48.390625 30.609375 48.390625 
z
M 30.609375 56 
Q 42.328125 56 49.015625 48.375 
Q 55.71875 40.765625 55.71875 27.296875 
Q 55.71875 13.875 49.015625 6.21875 
Q 42.328125 -1.421875 30.609375 -1.421875 
Q 18.84375 -1.421875 12.171875 6.21875 
Q 5.515625 13.875 5.515625 27.296875 
Q 5.515625 40.765625 12.171875 48.375 
Q 18.84375 56 30.609375 56 
z
" id="DejaVuSans-111"/>
     <path d="M 48.78125 52.59375 
L 48.78125 44.1875 
Q 44.96875 46.296875 41.140625 47.34375 
Q 37.3125 48.390625 33.40625 48.390625 
Q 24.65625 48.390625 19.8125 42.84375 
Q 14.984375 37.3125 14.984375 27.296875 
Q 14.984375 17.28125 19.8125 11.734375 
Q 24.65625 6.203125 33.40625 6.203125 
Q 37.3125 6.203125 41.140625 7.25 
Q 44.96875 8.296875 48.78125 10.40625 
L 48.78125 2.09375 
Q 45.015625 0.34375 40.984375 -0.53125 
Q 36.96875 -1.421875 32.421875 -1.421875 
Q 20.0625 -1.421875 12.78125 6.34375 
Q 5.515625 14.109375 5.515625 27.296875 
Q 5.515625 40.671875 12.859375 48.328125 
Q 20.21875 56 33.015625 56 
Q 37.15625 56 41.109375 55.140625 
Q 45.0625 54.296875 48.78125 52.59375 
z
" id="DejaVuSans-99"/>
     <path d="M 44.28125 53.078125 
L 44.28125 44.578125 
Q 40.484375 46.53125 36.375 47.5 
Q 32.28125 48.484375 27.875 48.484375 
Q 21.1875 48.484375 17.84375 46.4375 
Q 14.5 44.390625 14.5 40.28125 
Q 14.5 37.15625 16.890625 35.375 
Q 19.28125 33.59375 26.515625 31.984375 
L 29.59375 31.296875 
Q 39.15625 29.25 43.1875 25.515625 
Q 47.21875 21.78125 47.21875 15.09375 
Q 47.21875 7.46875 41.1875 3.015625 
Q 35.15625 -1.421875 24.609375 -1.421875 
Q 20.21875 -1.421875 15.453125 -0.5625 
Q 10.6875 0.296875 5.421875 2 
L 5.421875 11.28125 
Q 10.40625 8.6875 15.234375 7.390625 
Q 20.0625 6.109375 24.8125 6.109375 
Q 31.15625 6.109375 34.5625 8.28125 
Q 37.984375 10.453125 37.984375 14.40625 
Q 37.984375 18.0625 35.515625 20.015625 
Q 33.0625 21.96875 24.703125 23.78125 
L 21.578125 24.515625 
Q 13.234375 26.265625 9.515625 29.90625 
Q 5.8125 33.546875 5.8125 39.890625 
Q 5.8125 47.609375 11.28125 51.796875 
Q 16.75 56 26.8125 56 
Q 31.78125 56 36.171875 55.265625 
Q 40.578125 54.546875 44.28125 53.078125 
z
" id="DejaVuSans-115"/>
    </defs>
    <g transform="translate(537.287625 97.68)scale(0.144 -0.144)">
     <use xlink:href="#DejaVuSans-73"/>
     <use x="29.492188" xlink:href="#DejaVuSans-110"/>
     <use x="92.871094" xlink:href="#DejaVuSans-100"/>
     <use x="156.347656" xlink:href="#DejaVuSans-101"/>
     <use x="217.855469" xlink:href="#DejaVuSans-120"/>
     <use x="277.035156" xlink:href="#DejaVuSans-32"/>
     <use x="308.822266" xlink:href="#DejaVuSans-70"/>
     <use x="366.294922" xlink:href="#DejaVuSans-111"/>
     <use x="427.476562" xlink:href="#DejaVuSans-114"/>
     <use x="468.558594" xlink:href="#DejaVuSans-101"/>
     <use x="530.082031" xlink:href="#DejaVuSans-99"/>
     <use x="585.0625" xlink:href="#DejaVuSans-97"/>
     <use x="646.341797" xlink:href="#DejaVuSans-115"/>
     <use x="698.441406" xlink:href="#DejaVuSans-116"/>
    </g>
   </g>
   <g id="legend_1">
    <g id="patch_7">
     <path d="M 954.917187 141.03625 
L 1029.8 141.03625 
Q 1031.8 141.03625 1031.8 139.03625 
L 1031.8 110.68 
Q 1031.8 108.68 1029.8 108.68 
L 954.917187 108.68 
Q 952.917187 108.68 952.917187 110.68 
L 952.917187 139.03625 
Q 952.917187 141.03625 954.917187 141.03625 
z
" style="fill:#e5e5e5;opacity:0.8;stroke:#cccccc;stroke-linejoin:miter;stroke-width:0.5;"/>
    </g>
    <g id="line2d_43">
     <path d="M 956.917187 116.778437 
L 976.917187 116.778437 
" style="fill:none;stroke:#e24a33;stroke-linecap:square;stroke-width:1.5;"/>
    </g>
    <g id="line2d_44"/>
    <g id="text_18">
     <!--  Index  -->
     <g transform="translate(984.917187 120.278437)scale(0.1 -0.1)">
      <use xlink:href="#DejaVuSans-32"/>
      <use x="31.787109" xlink:href="#DejaVuSans-73"/>
      <use x="61.279297" xlink:href="#DejaVuSans-110"/>
      <use x="124.658203" xlink:href="#DejaVuSans-100"/>
      <use x="188.134766" xlink:href="#DejaVuSans-101"/>
      <use x="249.642578" xlink:href="#DejaVuSans-120"/>
      <use x="308.822266" xlink:href="#DejaVuSans-32"/>
     </g>
    </g>
    <g id="line2d_45">
     <path d="M 956.917187 131.456563 
L 976.917187 131.456563 
" style="fill:none;stroke:#348abd;stroke-linecap:square;stroke-width:1.5;"/>
    </g>
    <g id="line2d_46"/>
    <g id="text_19">
     <!-- Forecast -->
     <g transform="translate(984.917187 134.956563)scale(0.1 -0.1)">
      <use xlink:href="#DejaVuSans-70"/>
      <use x="57.472656" xlink:href="#DejaVuSans-111"/>
      <use x="118.654297" xlink:href="#DejaVuSans-114"/>
      <use x="159.736328" xlink:href="#DejaVuSans-101"/>
      <use x="221.259766" xlink:href="#DejaVuSans-99"/>
      <use x="276.240234" xlink:href="#DejaVuSans-97"/>
      <use x="337.519531" xlink:href="#DejaVuSans-115"/>
      <use x="389.619141" xlink:href="#DejaVuSans-116"/>
     </g>
    </g>
   </g>
  </g>
 </g>
 <defs>
  <clipPath id="p94009f7b37">
   <rect height="652.32" width="892.8" x="144" y="103.68"/>
  </clipPath>
 </defs>
</svg>
