<?xml version="1.0" encoding="utf-8" standalone="no"?>
<!DOCTYPE svg PUBLIC "-//W3C//DTD SVG 1.1//EN"
  "http://www.w3.org/Graphics/SVG/1.1/DTD/svg11.dtd">
<!-- Created with matplotlib (https://matplotlib.org/) -->
<svg height="576pt" version="1.1" viewBox="0 0 864 576" width="864pt" xmlns="http://www.w3.org/2000/svg" xmlns:xlink="http://www.w3.org/1999/xlink">
 <defs>
  <style type="text/css">
*{stroke-linecap:butt;stroke-linejoin:round;}
  </style>
 </defs>
 <g id="figure_1">
  <g id="patch_1">
   <path d="M 0 576 
L 864 576 
L 864 0 
L 0 0 
z
" style="fill:#ffffff;"/>
  </g>
  <g id="axes_1">
   <g id="patch_2">
    <path d="M 108 504 
L 777.6 504 
L 777.6 69.12 
L 108 69.12 
z
" style="fill:#e5e5e5;"/>
   </g>
   <g id="matplotlib.axis_1">
    <g id="xtick_1">
     <g id="line2d_1">
      <path clip-path="url(#p572ff19138)" d="M 108 504 
L 108 69.12 
" style="fill:none;stroke:#ffffff;stroke-linecap:square;stroke-width:0.8;"/>
     </g>
     <g id="line2d_2">
      <defs>
       <path d="M 0 0 
L 0 3.5 
" id="m34b9779004" style="stroke:#555555;stroke-width:0.8;"/>
      </defs>
      <g>
       <use style="fill:#555555;stroke:#555555;stroke-width:0.8;" x="108" xlink:href="#m34b9779004" y="504"/>
      </g>
     </g>
    </g>
    <g id="xtick_2">
     <g id="line2d_3">
      <path clip-path="url(#p572ff19138)" d="M 147.299323 504 
L 147.299323 69.12 
" style="fill:none;stroke:#ffffff;stroke-linecap:square;stroke-width:0.8;"/>
     </g>
     <g id="line2d_4">
      <g>
       <use style="fill:#555555;stroke:#555555;stroke-width:0.8;" x="147.299323" xlink:href="#m34b9779004" y="504"/>
      </g>
     </g>
     <g id="text_1">
      <!-- 2002 -->
      <defs>
       <path d="M 19.1875 8.296875 
L 53.609375 8.296875 
L 53.609375 0 
L 7.328125 0 
L 7.328125 8.296875 
Q 12.9375 14.109375 22.625 23.890625 
Q 32.328125 33.6875 34.8125 36.53125 
Q 39.546875 41.84375 41.421875 45.53125 
Q 43.3125 49.21875 43.3125 52.78125 
Q 43.3125 58.59375 39.234375 62.25 
Q 35.15625 65.921875 28.609375 65.921875 
Q 23.96875 65.921875 18.8125 64.3125 
Q 13.671875 62.703125 7.8125 59.421875 
L 7.8125 69.390625 
Q 13.765625 71.78125 18.9375 73 
Q 24.125 74.21875 28.421875 74.21875 
Q 39.75 74.21875 46.484375 68.546875 
Q 53.21875 62.890625 53.21875 53.421875 
Q 53.21875 48.921875 51.53125 44.890625 
Q 49.859375 40.875 45.40625 35.40625 
Q 44.1875 33.984375 37.640625 27.21875 
Q 31.109375 20.453125 19.1875 8.296875 
z
" id="DejaVuSans-50"/>
       <path d="M 31.78125 66.40625 
Q 24.171875 66.40625 20.328125 58.90625 
Q 16.5 51.421875 16.5 36.375 
Q 16.5 21.390625 20.328125 13.890625 
Q 24.171875 6.390625 31.78125 6.390625 
Q 39.453125 6.390625 43.28125 13.890625 
Q 47.125 21.390625 47.125 36.375 
Q 47.125 51.421875 43.28125 58.90625 
Q 39.453125 66.40625 31.78125 66.40625 
z
M 31.78125 74.21875 
Q 44.046875 74.21875 50.515625 64.515625 
Q 56.984375 54.828125 56.984375 36.375 
Q 56.984375 17.96875 50.515625 8.265625 
Q 44.046875 -1.421875 31.78125 -1.421875 
Q 19.53125 -1.421875 13.0625 8.265625 
Q 6.59375 17.96875 6.59375 36.375 
Q 6.59375 54.828125 13.0625 64.515625 
Q 19.53125 74.21875 31.78125 74.21875 
z
" id="DejaVuSans-48"/>
      </defs>
      <g style="fill:#555555;" transform="translate(134.574323 518.598438)scale(0.1 -0.1)">
       <use xlink:href="#DejaVuSans-50"/>
       <use x="63.623047" xlink:href="#DejaVuSans-48"/>
       <use x="127.246094" xlink:href="#DejaVuSans-48"/>
       <use x="190.869141" xlink:href="#DejaVuSans-50"/>
      </g>
     </g>
    </g>
    <g id="xtick_3">
     <g id="line2d_5">
      <path clip-path="url(#p572ff19138)" d="M 225.897968 504 
L 225.897968 69.12 
" style="fill:none;stroke:#ffffff;stroke-linecap:square;stroke-width:0.8;"/>
     </g>
     <g id="line2d_6">
      <g>
       <use style="fill:#555555;stroke:#555555;stroke-width:0.8;" x="225.897968" xlink:href="#m34b9779004" y="504"/>
      </g>
     </g>
     <g id="text_2">
      <!-- 2004 -->
      <defs>
       <path d="M 37.796875 64.3125 
L 12.890625 25.390625 
L 37.796875 25.390625 
z
M 35.203125 72.90625 
L 47.609375 72.90625 
L 47.609375 25.390625 
L 58.015625 25.390625 
L 58.015625 17.1875 
L 47.609375 17.1875 
L 47.609375 0 
L 37.796875 0 
L 37.796875 17.1875 
L 4.890625 17.1875 
L 4.890625 26.703125 
z
" id="DejaVuSans-52"/>
      </defs>
      <g style="fill:#555555;" transform="translate(213.172968 518.598438)scale(0.1 -0.1)">
       <use xlink:href="#DejaVuSans-50"/>
       <use x="63.623047" xlink:href="#DejaVuSans-48"/>
       <use x="127.246094" xlink:href="#DejaVuSans-48"/>
       <use x="190.869141" xlink:href="#DejaVuSans-52"/>
      </g>
     </g>
    </g>
    <g id="xtick_4">
     <g id="line2d_7">
      <path clip-path="url(#p572ff19138)" d="M 304.496614 504 
L 304.496614 69.12 
" style="fill:none;stroke:#ffffff;stroke-linecap:square;stroke-width:0.8;"/>
     </g>
     <g id="line2d_8">
      <g>
       <use style="fill:#555555;stroke:#555555;stroke-width:0.8;" x="304.496614" xlink:href="#m34b9779004" y="504"/>
      </g>
     </g>
     <g id="text_3">
      <!-- 2006 -->
      <defs>
       <path d="M 33.015625 40.375 
Q 26.375 40.375 22.484375 35.828125 
Q 18.609375 31.296875 18.609375 23.390625 
Q 18.609375 15.53125 22.484375 10.953125 
Q 26.375 6.390625 33.015625 6.390625 
Q 39.65625 6.390625 43.53125 10.953125 
Q 47.40625 15.53125 47.40625 23.390625 
Q 47.40625 31.296875 43.53125 35.828125 
Q 39.65625 40.375 33.015625 40.375 
z
M 52.59375 71.296875 
L 52.59375 62.3125 
Q 48.875 64.0625 45.09375 64.984375 
Q 41.3125 65.921875 37.59375 65.921875 
Q 27.828125 65.921875 22.671875 59.328125 
Q 17.53125 52.734375 16.796875 39.40625 
Q 19.671875 43.65625 24.015625 45.921875 
Q 28.375 48.1875 33.59375 48.1875 
Q 44.578125 48.1875 50.953125 41.515625 
Q 57.328125 34.859375 57.328125 23.390625 
Q 57.328125 12.15625 50.6875 5.359375 
Q 44.046875 -1.421875 33.015625 -1.421875 
Q 20.359375 -1.421875 13.671875 8.265625 
Q 6.984375 17.96875 6.984375 36.375 
Q 6.984375 53.65625 15.1875 63.9375 
Q 23.390625 74.21875 37.203125 74.21875 
Q 40.921875 74.21875 44.703125 73.484375 
Q 48.484375 72.75 52.59375 71.296875 
z
" id="DejaVuSans-54"/>
      </defs>
      <g style="fill:#555555;" transform="translate(291.771614 518.598438)scale(0.1 -0.1)">
       <use xlink:href="#DejaVuSans-50"/>
       <use x="63.623047" xlink:href="#DejaVuSans-48"/>
       <use x="127.246094" xlink:href="#DejaVuSans-48"/>
       <use x="190.869141" xlink:href="#DejaVuSans-54"/>
      </g>
     </g>
    </g>
    <g id="xtick_5">
     <g id="line2d_9">
      <path clip-path="url(#p572ff19138)" d="M 383.851016 504 
L 383.851016 69.12 
" style="fill:none;stroke:#ffffff;stroke-linecap:square;stroke-width:0.8;"/>
     </g>
     <g id="line2d_10">
      <g>
       <use style="fill:#555555;stroke:#555555;stroke-width:0.8;" x="383.851016" xlink:href="#m34b9779004" y="504"/>
      </g>
     </g>
     <g id="text_4">
      <!-- 2008 -->
      <defs>
       <path d="M 31.78125 34.625 
Q 24.75 34.625 20.71875 30.859375 
Q 16.703125 27.09375 16.703125 20.515625 
Q 16.703125 13.921875 20.71875 10.15625 
Q 24.75 6.390625 31.78125 6.390625 
Q 38.8125 6.390625 42.859375 10.171875 
Q 46.921875 13.96875 46.921875 20.515625 
Q 46.921875 27.09375 42.890625 30.859375 
Q 38.875 34.625 31.78125 34.625 
z
M 21.921875 38.8125 
Q 15.578125 40.375 12.03125 44.71875 
Q 8.5 49.078125 8.5 55.328125 
Q 8.5 64.0625 14.71875 69.140625 
Q 20.953125 74.21875 31.78125 74.21875 
Q 42.671875 74.21875 48.875 69.140625 
Q 55.078125 64.0625 55.078125 55.328125 
Q 55.078125 49.078125 51.53125 44.71875 
Q 48 40.375 41.703125 38.8125 
Q 48.828125 37.15625 52.796875 32.3125 
Q 56.78125 27.484375 56.78125 20.515625 
Q 56.78125 9.90625 50.3125 4.234375 
Q 43.84375 -1.421875 31.78125 -1.421875 
Q 19.734375 -1.421875 13.25 4.234375 
Q 6.78125 9.90625 6.78125 20.515625 
Q 6.78125 27.484375 10.78125 32.3125 
Q 14.796875 37.15625 21.921875 38.8125 
z
M 18.3125 54.390625 
Q 18.3125 48.734375 21.84375 45.5625 
Q 25.390625 42.390625 31.78125 42.390625 
Q 38.140625 42.390625 41.71875 45.5625 
Q 45.3125 48.734375 45.3125 54.390625 
Q 45.3125 60.0625 41.71875 63.234375 
Q 38.140625 66.40625 31.78125 66.40625 
Q 25.390625 66.40625 21.84375 63.234375 
Q 18.3125 60.0625 18.3125 54.390625 
z
" id="DejaVuSans-56"/>
      </defs>
      <g style="fill:#555555;" transform="translate(371.126016 518.598438)scale(0.1 -0.1)">
       <use xlink:href="#DejaVuSans-50"/>
       <use x="63.623047" xlink:href="#DejaVuSans-48"/>
       <use x="127.246094" xlink:href="#DejaVuSans-48"/>
       <use x="190.869141" xlink:href="#DejaVuSans-56"/>
      </g>
     </g>
    </g>
    <g id="xtick_6">
     <g id="line2d_11">
      <path clip-path="url(#p572ff19138)" d="M 462.449661 504 
L 462.449661 69.12 
" style="fill:none;stroke:#ffffff;stroke-linecap:square;stroke-width:0.8;"/>
     </g>
     <g id="line2d_12">
      <g>
       <use style="fill:#555555;stroke:#555555;stroke-width:0.8;" x="462.449661" xlink:href="#m34b9779004" y="504"/>
      </g>
     </g>
     <g id="text_5">
      <!-- 2010 -->
      <defs>
       <path d="M 12.40625 8.296875 
L 28.515625 8.296875 
L 28.515625 63.921875 
L 10.984375 60.40625 
L 10.984375 69.390625 
L 28.421875 72.90625 
L 38.28125 72.90625 
L 38.28125 8.296875 
L 54.390625 8.296875 
L 54.390625 0 
L 12.40625 0 
z
" id="DejaVuSans-49"/>
      </defs>
      <g style="fill:#555555;" transform="translate(449.724661 518.598438)scale(0.1 -0.1)">
       <use xlink:href="#DejaVuSans-50"/>
       <use x="63.623047" xlink:href="#DejaVuSans-48"/>
       <use x="127.246094" xlink:href="#DejaVuSans-49"/>
       <use x="190.869141" xlink:href="#DejaVuSans-48"/>
      </g>
     </g>
    </g>
    <g id="xtick_7">
     <g id="line2d_13">
      <path clip-path="url(#p572ff19138)" d="M 541.048307 504 
L 541.048307 69.12 
" style="fill:none;stroke:#ffffff;stroke-linecap:square;stroke-width:0.8;"/>
     </g>
     <g id="line2d_14">
      <g>
       <use style="fill:#555555;stroke:#555555;stroke-width:0.8;" x="541.048307" xlink:href="#m34b9779004" y="504"/>
      </g>
     </g>
     <g id="text_6">
      <!-- 2012 -->
      <g style="fill:#555555;" transform="translate(528.323307 518.598438)scale(0.1 -0.1)">
       <use xlink:href="#DejaVuSans-50"/>
       <use x="63.623047" xlink:href="#DejaVuSans-48"/>
       <use x="127.246094" xlink:href="#DejaVuSans-49"/>
       <use x="190.869141" xlink:href="#DejaVuSans-50"/>
      </g>
     </g>
    </g>
    <g id="xtick_8">
     <g id="line2d_15">
      <path clip-path="url(#p572ff19138)" d="M 620.402709 504 
L 620.402709 69.12 
" style="fill:none;stroke:#ffffff;stroke-linecap:square;stroke-width:0.8;"/>
     </g>
     <g id="line2d_16">
      <g>
       <use style="fill:#555555;stroke:#555555;stroke-width:0.8;" x="620.402709" xlink:href="#m34b9779004" y="504"/>
      </g>
     </g>
     <g id="text_7">
      <!-- 2014 -->
      <g style="fill:#555555;" transform="translate(607.677709 518.598438)scale(0.1 -0.1)">
       <use xlink:href="#DejaVuSans-50"/>
       <use x="63.623047" xlink:href="#DejaVuSans-48"/>
       <use x="127.246094" xlink:href="#DejaVuSans-49"/>
       <use x="190.869141" xlink:href="#DejaVuSans-52"/>
      </g>
     </g>
    </g>
    <g id="xtick_9">
     <g id="line2d_17">
      <path clip-path="url(#p572ff19138)" d="M 699.001354 504 
L 699.001354 69.12 
" style="fill:none;stroke:#ffffff;stroke-linecap:square;stroke-width:0.8;"/>
     </g>
     <g id="line2d_18">
      <g>
       <use style="fill:#555555;stroke:#555555;stroke-width:0.8;" x="699.001354" xlink:href="#m34b9779004" y="504"/>
      </g>
     </g>
     <g id="text_8">
      <!-- 2016 -->
      <g style="fill:#555555;" transform="translate(686.276354 518.598438)scale(0.1 -0.1)">
       <use xlink:href="#DejaVuSans-50"/>
       <use x="63.623047" xlink:href="#DejaVuSans-48"/>
       <use x="127.246094" xlink:href="#DejaVuSans-49"/>
       <use x="190.869141" xlink:href="#DejaVuSans-54"/>
      </g>
     </g>
    </g>
    <g id="xtick_10">
     <g id="line2d_19">
      <path clip-path="url(#p572ff19138)" d="M 777.6 504 
L 777.6 69.12 
" style="fill:none;stroke:#ffffff;stroke-linecap:square;stroke-width:0.8;"/>
     </g>
     <g id="line2d_20">
      <g>
       <use style="fill:#555555;stroke:#555555;stroke-width:0.8;" x="777.6" xlink:href="#m34b9779004" y="504"/>
      </g>
     </g>
    </g>
    <g id="xtick_11">
     <g id="line2d_21">
      <defs>
       <path d="M 0 0 
L 0 2 
" id="m81ce1d317f" style="stroke:#555555;stroke-width:0.6;"/>
      </defs>
      <g>
       <use style="fill:#555555;stroke:#555555;stroke-width:0.6;" x="186.598646" xlink:href="#m81ce1d317f" y="504"/>
      </g>
     </g>
    </g>
    <g id="xtick_12">
     <g id="line2d_22">
      <g>
       <use style="fill:#555555;stroke:#555555;stroke-width:0.6;" x="265.197291" xlink:href="#m81ce1d317f" y="504"/>
      </g>
     </g>
    </g>
    <g id="xtick_13">
     <g id="line2d_23">
      <g>
       <use style="fill:#555555;stroke:#555555;stroke-width:0.6;" x="344.551693" xlink:href="#m81ce1d317f" y="504"/>
      </g>
     </g>
    </g>
    <g id="xtick_14">
     <g id="line2d_24">
      <g>
       <use style="fill:#555555;stroke:#555555;stroke-width:0.6;" x="423.150339" xlink:href="#m81ce1d317f" y="504"/>
      </g>
     </g>
    </g>
    <g id="xtick_15">
     <g id="line2d_25">
      <g>
       <use style="fill:#555555;stroke:#555555;stroke-width:0.6;" x="501.748984" xlink:href="#m81ce1d317f" y="504"/>
      </g>
     </g>
    </g>
    <g id="xtick_16">
     <g id="line2d_26">
      <g>
       <use style="fill:#555555;stroke:#555555;stroke-width:0.6;" x="581.103386" xlink:href="#m81ce1d317f" y="504"/>
      </g>
     </g>
    </g>
    <g id="xtick_17">
     <g id="line2d_27">
      <g>
       <use style="fill:#555555;stroke:#555555;stroke-width:0.6;" x="659.702032" xlink:href="#m81ce1d317f" y="504"/>
      </g>
     </g>
    </g>
    <g id="xtick_18">
     <g id="line2d_28">
      <g>
       <use style="fill:#555555;stroke:#555555;stroke-width:0.6;" x="738.300677" xlink:href="#m81ce1d317f" y="504"/>
      </g>
     </g>
    </g>
    <g id="text_9">
     <!-- Date -->
     <defs>
      <path d="M 19.671875 64.796875 
L 19.671875 8.109375 
L 31.59375 8.109375 
Q 46.6875 8.109375 53.6875 14.9375 
Q 60.6875 21.78125 60.6875 36.53125 
Q 60.6875 51.171875 53.6875 57.984375 
Q 46.6875 64.796875 31.59375 64.796875 
z
M 9.8125 72.90625 
L 30.078125 72.90625 
Q 51.265625 72.90625 61.171875 64.09375 
Q 71.09375 55.28125 71.09375 36.53125 
Q 71.09375 17.671875 61.125 8.828125 
Q 51.171875 0 30.078125 0 
L 9.8125 0 
z
" id="DejaVuSans-68"/>
      <path d="M 34.28125 27.484375 
Q 23.390625 27.484375 19.1875 25 
Q 14.984375 22.515625 14.984375 16.5 
Q 14.984375 11.71875 18.140625 8.90625 
Q 21.296875 6.109375 26.703125 6.109375 
Q 34.1875 6.109375 38.703125 11.40625 
Q 43.21875 16.703125 43.21875 25.484375 
L 43.21875 27.484375 
z
M 52.203125 31.203125 
L 52.203125 0 
L 43.21875 0 
L 43.21875 8.296875 
Q 40.140625 3.328125 35.546875 0.953125 
Q 30.953125 -1.421875 24.3125 -1.421875 
Q 15.921875 -1.421875 10.953125 3.296875 
Q 6 8.015625 6 15.921875 
Q 6 25.140625 12.171875 29.828125 
Q 18.359375 34.515625 30.609375 34.515625 
L 43.21875 34.515625 
L 43.21875 35.40625 
Q 43.21875 41.609375 39.140625 45 
Q 35.0625 48.390625 27.6875 48.390625 
Q 23 48.390625 18.546875 47.265625 
Q 14.109375 46.140625 10.015625 43.890625 
L 10.015625 52.203125 
Q 14.9375 54.109375 19.578125 55.046875 
Q 24.21875 56 28.609375 56 
Q 40.484375 56 46.34375 49.84375 
Q 52.203125 43.703125 52.203125 31.203125 
z
" id="DejaVuSans-97"/>
      <path d="M 18.3125 70.21875 
L 18.3125 54.6875 
L 36.8125 54.6875 
L 36.8125 47.703125 
L 18.3125 47.703125 
L 18.3125 18.015625 
Q 18.3125 11.328125 20.140625 9.421875 
Q 21.96875 7.515625 27.59375 7.515625 
L 36.8125 7.515625 
L 36.8125 0 
L 27.59375 0 
Q 17.1875 0 13.234375 3.875 
Q 9.28125 7.765625 9.28125 18.015625 
L 9.28125 47.703125 
L 2.6875 47.703125 
L 2.6875 54.6875 
L 9.28125 54.6875 
L 9.28125 70.21875 
z
" id="DejaVuSans-116"/>
      <path d="M 56.203125 29.59375 
L 56.203125 25.203125 
L 14.890625 25.203125 
Q 15.484375 15.921875 20.484375 11.0625 
Q 25.484375 6.203125 34.421875 6.203125 
Q 39.59375 6.203125 44.453125 7.46875 
Q 49.3125 8.734375 54.109375 11.28125 
L 54.109375 2.78125 
Q 49.265625 0.734375 44.1875 -0.34375 
Q 39.109375 -1.421875 33.890625 -1.421875 
Q 20.796875 -1.421875 13.15625 6.1875 
Q 5.515625 13.8125 5.515625 26.8125 
Q 5.515625 40.234375 12.765625 48.109375 
Q 20.015625 56 32.328125 56 
Q 43.359375 56 49.78125 48.890625 
Q 56.203125 41.796875 56.203125 29.59375 
z
M 47.21875 32.234375 
Q 47.125 39.59375 43.09375 43.984375 
Q 39.0625 48.390625 32.421875 48.390625 
Q 24.90625 48.390625 20.390625 44.140625 
Q 15.875 39.890625 15.1875 32.171875 
z
" id="DejaVuSans-101"/>
     </defs>
     <g style="fill:#555555;" transform="translate(428.459063 533.79625)scale(0.12 -0.12)">
      <use xlink:href="#DejaVuSans-68"/>
      <use x="77.001953" xlink:href="#DejaVuSans-97"/>
      <use x="138.28125" xlink:href="#DejaVuSans-116"/>
      <use x="177.490234" xlink:href="#DejaVuSans-101"/>
     </g>
    </g>
   </g>
   <g id="matplotlib.axis_2">
    <g id="ytick_1">
     <g id="line2d_29">
      <path clip-path="url(#p572ff19138)" d="M 108 485.143605 
L 777.6 485.143605 
" style="fill:none;stroke:#ffffff;stroke-linecap:square;stroke-width:0.8;"/>
     </g>
     <g id="line2d_30">
      <defs>
       <path d="M 0 0 
L -3.5 0 
" id="mc4f1aaecfb" style="stroke:#555555;stroke-width:0.8;"/>
      </defs>
      <g>
       <use style="fill:#555555;stroke:#555555;stroke-width:0.8;" x="108" xlink:href="#mc4f1aaecfb" y="485.143605"/>
      </g>
     </g>
     <g id="text_10">
      <!-- 1000 -->
      <g style="fill:#555555;" transform="translate(75.55 488.942824)scale(0.1 -0.1)">
       <use xlink:href="#DejaVuSans-49"/>
       <use x="63.623047" xlink:href="#DejaVuSans-48"/>
       <use x="127.246094" xlink:href="#DejaVuSans-48"/>
       <use x="190.869141" xlink:href="#DejaVuSans-48"/>
      </g>
     </g>
    </g>
    <g id="ytick_2">
     <g id="line2d_31">
      <path clip-path="url(#p572ff19138)" d="M 108 406.996926 
L 777.6 406.996926 
" style="fill:none;stroke:#ffffff;stroke-linecap:square;stroke-width:0.8;"/>
     </g>
     <g id="line2d_32">
      <g>
       <use style="fill:#555555;stroke:#555555;stroke-width:0.8;" x="108" xlink:href="#mc4f1aaecfb" y="406.996926"/>
      </g>
     </g>
     <g id="text_11">
      <!-- 2000 -->
      <g style="fill:#555555;" transform="translate(75.55 410.796145)scale(0.1 -0.1)">
       <use xlink:href="#DejaVuSans-50"/>
       <use x="63.623047" xlink:href="#DejaVuSans-48"/>
       <use x="127.246094" xlink:href="#DejaVuSans-48"/>
       <use x="190.869141" xlink:href="#DejaVuSans-48"/>
      </g>
     </g>
    </g>
    <g id="ytick_3">
     <g id="line2d_33">
      <path clip-path="url(#p572ff19138)" d="M 108 328.850247 
L 777.6 328.850247 
" style="fill:none;stroke:#ffffff;stroke-linecap:square;stroke-width:0.8;"/>
     </g>
     <g id="line2d_34">
      <g>
       <use style="fill:#555555;stroke:#555555;stroke-width:0.8;" x="108" xlink:href="#mc4f1aaecfb" y="328.850247"/>
      </g>
     </g>
     <g id="text_12">
      <!-- 3000 -->
      <defs>
       <path d="M 40.578125 39.3125 
Q 47.65625 37.796875 51.625 33 
Q 55.609375 28.21875 55.609375 21.1875 
Q 55.609375 10.40625 48.1875 4.484375 
Q 40.765625 -1.421875 27.09375 -1.421875 
Q 22.515625 -1.421875 17.65625 -0.515625 
Q 12.796875 0.390625 7.625 2.203125 
L 7.625 11.71875 
Q 11.71875 9.328125 16.59375 8.109375 
Q 21.484375 6.890625 26.8125 6.890625 
Q 36.078125 6.890625 40.9375 10.546875 
Q 45.796875 14.203125 45.796875 21.1875 
Q 45.796875 27.640625 41.28125 31.265625 
Q 36.765625 34.90625 28.71875 34.90625 
L 20.21875 34.90625 
L 20.21875 43.015625 
L 29.109375 43.015625 
Q 36.375 43.015625 40.234375 45.921875 
Q 44.09375 48.828125 44.09375 54.296875 
Q 44.09375 59.90625 40.109375 62.90625 
Q 36.140625 65.921875 28.71875 65.921875 
Q 24.65625 65.921875 20.015625 65.03125 
Q 15.375 64.15625 9.8125 62.3125 
L 9.8125 71.09375 
Q 15.4375 72.65625 20.34375 73.4375 
Q 25.25 74.21875 29.59375 74.21875 
Q 40.828125 74.21875 47.359375 69.109375 
Q 53.90625 64.015625 53.90625 55.328125 
Q 53.90625 49.265625 50.4375 45.09375 
Q 46.96875 40.921875 40.578125 39.3125 
z
" id="DejaVuSans-51"/>
      </defs>
      <g style="fill:#555555;" transform="translate(75.55 332.649466)scale(0.1 -0.1)">
       <use xlink:href="#DejaVuSans-51"/>
       <use x="63.623047" xlink:href="#DejaVuSans-48"/>
       <use x="127.246094" xlink:href="#DejaVuSans-48"/>
       <use x="190.869141" xlink:href="#DejaVuSans-48"/>
      </g>
     </g>
    </g>
    <g id="ytick_4">
     <g id="line2d_35">
      <path clip-path="url(#p572ff19138)" d="M 108 250.703569 
L 777.6 250.703569 
" style="fill:none;stroke:#ffffff;stroke-linecap:square;stroke-width:0.8;"/>
     </g>
     <g id="line2d_36">
      <g>
       <use style="fill:#555555;stroke:#555555;stroke-width:0.8;" x="108" xlink:href="#mc4f1aaecfb" y="250.703569"/>
      </g>
     </g>
     <g id="text_13">
      <!-- 4000 -->
      <g style="fill:#555555;" transform="translate(75.55 254.502787)scale(0.1 -0.1)">
       <use xlink:href="#DejaVuSans-52"/>
       <use x="63.623047" xlink:href="#DejaVuSans-48"/>
       <use x="127.246094" xlink:href="#DejaVuSans-48"/>
       <use x="190.869141" xlink:href="#DejaVuSans-48"/>
      </g>
     </g>
    </g>
    <g id="ytick_5">
     <g id="line2d_37">
      <path clip-path="url(#p572ff19138)" d="M 108 172.55689 
L 777.6 172.55689 
" style="fill:none;stroke:#ffffff;stroke-linecap:square;stroke-width:0.8;"/>
     </g>
     <g id="line2d_38">
      <g>
       <use style="fill:#555555;stroke:#555555;stroke-width:0.8;" x="108" xlink:href="#mc4f1aaecfb" y="172.55689"/>
      </g>
     </g>
     <g id="text_14">
      <!-- 5000 -->
      <defs>
       <path d="M 10.796875 72.90625 
L 49.515625 72.90625 
L 49.515625 64.59375 
L 19.828125 64.59375 
L 19.828125 46.734375 
Q 21.96875 47.46875 24.109375 47.828125 
Q 26.265625 48.1875 28.421875 48.1875 
Q 40.625 48.1875 47.75 41.5 
Q 54.890625 34.8125 54.890625 23.390625 
Q 54.890625 11.625 47.5625 5.09375 
Q 40.234375 -1.421875 26.90625 -1.421875 
Q 22.3125 -1.421875 17.546875 -0.640625 
Q 12.796875 0.140625 7.71875 1.703125 
L 7.71875 11.625 
Q 12.109375 9.234375 16.796875 8.0625 
Q 21.484375 6.890625 26.703125 6.890625 
Q 35.15625 6.890625 40.078125 11.328125 
Q 45.015625 15.765625 45.015625 23.390625 
Q 45.015625 31 40.078125 35.4375 
Q 35.15625 39.890625 26.703125 39.890625 
Q 22.75 39.890625 18.8125 39.015625 
Q 14.890625 38.140625 10.796875 36.28125 
z
" id="DejaVuSans-53"/>
      </defs>
      <g style="fill:#555555;" transform="translate(75.55 176.356109)scale(0.1 -0.1)">
       <use xlink:href="#DejaVuSans-53"/>
       <use x="63.623047" xlink:href="#DejaVuSans-48"/>
       <use x="127.246094" xlink:href="#DejaVuSans-48"/>
       <use x="190.869141" xlink:href="#DejaVuSans-48"/>
      </g>
     </g>
    </g>
    <g id="ytick_6">
     <g id="line2d_39">
      <path clip-path="url(#p572ff19138)" d="M 108 94.410211 
L 777.6 94.410211 
" style="fill:none;stroke:#ffffff;stroke-linecap:square;stroke-width:0.8;"/>
     </g>
     <g id="line2d_40">
      <g>
       <use style="fill:#555555;stroke:#555555;stroke-width:0.8;" x="108" xlink:href="#mc4f1aaecfb" y="94.410211"/>
      </g>
     </g>
     <g id="text_15">
      <!-- 6000 -->
      <g style="fill:#555555;" transform="translate(75.55 98.20943)scale(0.1 -0.1)">
       <use xlink:href="#DejaVuSans-54"/>
       <use x="63.623047" xlink:href="#DejaVuSans-48"/>
       <use x="127.246094" xlink:href="#DejaVuSans-48"/>
       <use x="190.869141" xlink:href="#DejaVuSans-48"/>
      </g>
     </g>
    </g>
    <g id="text_16">
     <!-- Average Index -->
     <defs>
      <path d="M 34.1875 63.1875 
L 20.796875 26.90625 
L 47.609375 26.90625 
z
M 28.609375 72.90625 
L 39.796875 72.90625 
L 67.578125 0 
L 57.328125 0 
L 50.6875 18.703125 
L 17.828125 18.703125 
L 11.1875 0 
L 0.78125 0 
z
" id="DejaVuSans-65"/>
      <path d="M 2.984375 54.6875 
L 12.5 54.6875 
L 29.59375 8.796875 
L 46.6875 54.6875 
L 56.203125 54.6875 
L 35.6875 0 
L 23.484375 0 
z
" id="DejaVuSans-118"/>
      <path d="M 41.109375 46.296875 
Q 39.59375 47.171875 37.8125 47.578125 
Q 36.03125 48 33.890625 48 
Q 26.265625 48 22.1875 43.046875 
Q 18.109375 38.09375 18.109375 28.8125 
L 18.109375 0 
L 9.078125 0 
L 9.078125 54.6875 
L 18.109375 54.6875 
L 18.109375 46.1875 
Q 20.953125 51.171875 25.484375 53.578125 
Q 30.03125 56 36.53125 56 
Q 37.453125 56 38.578125 55.875 
Q 39.703125 55.765625 41.0625 55.515625 
z
" id="DejaVuSans-114"/>
      <path d="M 45.40625 27.984375 
Q 45.40625 37.75 41.375 43.109375 
Q 37.359375 48.484375 30.078125 48.484375 
Q 22.859375 48.484375 18.828125 43.109375 
Q 14.796875 37.75 14.796875 27.984375 
Q 14.796875 18.265625 18.828125 12.890625 
Q 22.859375 7.515625 30.078125 7.515625 
Q 37.359375 7.515625 41.375 12.890625 
Q 45.40625 18.265625 45.40625 27.984375 
z
M 54.390625 6.78125 
Q 54.390625 -7.171875 48.1875 -13.984375 
Q 42 -20.796875 29.203125 -20.796875 
Q 24.46875 -20.796875 20.265625 -20.09375 
Q 16.0625 -19.390625 12.109375 -17.921875 
L 12.109375 -9.1875 
Q 16.0625 -11.328125 19.921875 -12.34375 
Q 23.78125 -13.375 27.78125 -13.375 
Q 36.625 -13.375 41.015625 -8.765625 
Q 45.40625 -4.15625 45.40625 5.171875 
L 45.40625 9.625 
Q 42.625 4.78125 38.28125 2.390625 
Q 33.9375 0 27.875 0 
Q 17.828125 0 11.671875 7.65625 
Q 5.515625 15.328125 5.515625 27.984375 
Q 5.515625 40.671875 11.671875 48.328125 
Q 17.828125 56 27.875 56 
Q 33.9375 56 38.28125 53.609375 
Q 42.625 51.21875 45.40625 46.390625 
L 45.40625 54.6875 
L 54.390625 54.6875 
z
" id="DejaVuSans-103"/>
      <path id="DejaVuSans-32"/>
      <path d="M 9.8125 72.90625 
L 19.671875 72.90625 
L 19.671875 0 
L 9.8125 0 
z
" id="DejaVuSans-73"/>
      <path d="M 54.890625 33.015625 
L 54.890625 0 
L 45.90625 0 
L 45.90625 32.71875 
Q 45.90625 40.484375 42.875 44.328125 
Q 39.84375 48.1875 33.796875 48.1875 
Q 26.515625 48.1875 22.3125 43.546875 
Q 18.109375 38.921875 18.109375 30.90625 
L 18.109375 0 
L 9.078125 0 
L 9.078125 54.6875 
L 18.109375 54.6875 
L 18.109375 46.1875 
Q 21.34375 51.125 25.703125 53.5625 
Q 30.078125 56 35.796875 56 
Q 45.21875 56 50.046875 50.171875 
Q 54.890625 44.34375 54.890625 33.015625 
z
" id="DejaVuSans-110"/>
      <path d="M 45.40625 46.390625 
L 45.40625 75.984375 
L 54.390625 75.984375 
L 54.390625 0 
L 45.40625 0 
L 45.40625 8.203125 
Q 42.578125 3.328125 38.25 0.953125 
Q 33.9375 -1.421875 27.875 -1.421875 
Q 17.96875 -1.421875 11.734375 6.484375 
Q 5.515625 14.40625 5.515625 27.296875 
Q 5.515625 40.1875 11.734375 48.09375 
Q 17.96875 56 27.875 56 
Q 33.9375 56 38.25 53.625 
Q 42.578125 51.265625 45.40625 46.390625 
z
M 14.796875 27.296875 
Q 14.796875 17.390625 18.875 11.75 
Q 22.953125 6.109375 30.078125 6.109375 
Q 37.203125 6.109375 41.296875 11.75 
Q 45.40625 17.390625 45.40625 27.296875 
Q 45.40625 37.203125 41.296875 42.84375 
Q 37.203125 48.484375 30.078125 48.484375 
Q 22.953125 48.484375 18.875 42.84375 
Q 14.796875 37.203125 14.796875 27.296875 
z
" id="DejaVuSans-100"/>
      <path d="M 54.890625 54.6875 
L 35.109375 28.078125 
L 55.90625 0 
L 45.3125 0 
L 29.390625 21.484375 
L 13.484375 0 
L 2.875 0 
L 24.125 28.609375 
L 4.6875 54.6875 
L 15.28125 54.6875 
L 29.78125 35.203125 
L 44.28125 54.6875 
z
" id="DejaVuSans-120"/>
     </defs>
     <g style="fill:#555555;" transform="translate(69.054375 330.077812)rotate(-90)scale(0.12 -0.12)">
      <use xlink:href="#DejaVuSans-65"/>
      <use x="68.330078" xlink:href="#DejaVuSans-118"/>
      <use x="127.509766" xlink:href="#DejaVuSans-101"/>
      <use x="189.033203" xlink:href="#DejaVuSans-114"/>
      <use x="230.146484" xlink:href="#DejaVuSans-97"/>
      <use x="291.425781" xlink:href="#DejaVuSans-103"/>
      <use x="354.902344" xlink:href="#DejaVuSans-101"/>
      <use x="416.425781" xlink:href="#DejaVuSans-32"/>
      <use x="448.212891" xlink:href="#DejaVuSans-73"/>
      <use x="477.705078" xlink:href="#DejaVuSans-110"/>
      <use x="541.083984" xlink:href="#DejaVuSans-100"/>
      <use x="604.560547" xlink:href="#DejaVuSans-101"/>
      <use x="666.068359" xlink:href="#DejaVuSans-120"/>
     </g>
    </g>
   </g>
   <g id="line2d_41">
    <path clip-path="url(#p572ff19138)" d="M 108 413.712852 
L 108.755756 415.415199 
L 109.511512 415.807026 
L 110.267269 415.651827 
L 111.023025 415.181619 
L 111.778781 414.01653 
L 112.534537 413.638456 
L 113.290293 413.812723 
L 114.04605 412.284799 
L 114.801806 414.356155 
L 115.557562 417.137708 
L 116.313318 418.365549 
L 117.069074 420.296084 
L 117.824831 421.307615 
L 118.580587 421.41069 
L 119.336343 422.289059 
L 120.092099 424.154186 
L 120.847856 424.868095 
L 121.603612 427.2452 
L 122.359368 431.351339 
L 123.115124 434.541599 
L 125.382393 437.915972 
L 126.138149 437.333936 
L 126.893905 435.070652 
L 127.649661 434.28856 
L 128.405418 435.303841 
L 129.91693 436.471118 
L 130.672686 437.239535 
L 131.428442 438.873738 
L 133.695711 444.938389 
L 134.451467 446.360659 
L 135.207223 449.153621 
L 135.96298 451.263581 
L 136.718736 452.617707 
L 137.474492 454.393825 
L 138.230248 453.608685 
L 139.741761 446.654803 
L 140.497517 447.12634 
L 141.253273 448.164128 
L 142.764786 449.347268 
L 143.520542 450.630906 
L 144.276298 452.52987 
L 145.032054 453.50729 
L 145.78781 456.574351 
L 146.543567 457.971744 
L 147.299323 457.099302 
L 148.055079 455.758266 
L 148.810835 455.926281 
L 149.566591 457.592056 
L 150.322348 458.156744 
L 151.078104 459.12248 
L 151.83386 459.374581 
L 152.589616 458.969313 
L 153.345372 459.838929 
L 154.101129 461.975147 
L 154.856885 465.184162 
L 156.368397 470.215831 
L 158.635666 473.039466 
L 159.391422 474.58677 
L 160.147178 475.234606 
L 160.902935 474.991101 
L 161.658691 475.599551 
L 163.170203 480.361185 
L 164.681716 479.002839 
L 165.437472 478.987522 
L 166.193228 478.848109 
L 166.948984 478.319212 
L 167.70474 478.269511 
L 168.460497 476.631087 
L 169.216253 476.611394 
L 170.727765 479.13225 
L 171.483521 480.083295 
L 172.239278 480.616568 
L 172.995034 481.778296 
L 173.75079 481.773608 
L 174.506546 483.510965 
L 175.262302 484.232727 
L 176.018059 482.659322 
L 177.529571 482.650921 
L 178.285327 481.446798 
L 179.041084 480.528262 
L 179.79684 477.793128 
L 181.308352 466.779135 
L 182.064108 470.335278 
L 182.819865 473.353616 
L 183.575621 472.514906 
L 184.331377 470.091773 
L 185.087133 464.509443 
L 185.842889 461.802755 
L 186.598646 457.39424 
L 187.354402 444.084871 
L 188.110158 443.285587 
L 188.865914 443.289494 
L 189.62167 441.934431 
L 190.377427 444.02376 
L 191.133183 443.843398 
L 191.888939 445.014817 
L 192.644695 443.606613 
L 193.400451 442.533034 
L 194.156208 439.579246 
L 194.911964 441.12827 
L 195.66772 437.801722 
L 196.423476 436.972273 
L 197.179233 435.705515 
L 197.934989 431.735234 
L 198.690745 426.35718 
L 199.446501 420.118926 
L 200.202257 403.979527 
L 200.958014 390.540173 
L 201.71377 401.63919 
L 202.469526 403.279332 
L 203.225282 405.189198 
L 203.981038 405.548087 
L 204.736795 409.456046 
L 205.492551 409.64985 
L 206.248307 412.464849 
L 207.004063 412.333563 
L 207.759819 411.706045 
L 208.515576 411.274988 
L 209.271332 407.789177 
L 210.027088 405.723135 
L 210.782844 404.14129 
L 211.5386 403.457819 
L 212.294357 399.965132 
L 213.050113 398.773239 
L 213.805869 394.272302 
L 214.561625 391.920244 
L 216.073138 376.89295 
L 216.828894 375.378194 
L 217.58465 374.937564 
L 218.340406 371.138737 
L 219.096163 370.606519 
L 219.851919 371.903128 
L 220.607675 371.214031 
L 221.363431 370.03636 
L 222.119187 354.558356 
L 222.874944 347.615922 
L 223.6307 353.590314 
L 224.386456 356.871615 
L 225.897968 349.003104 
L 226.653725 347.910066 
L 228.165237 338.817075 
L 228.920993 321.066213 
L 229.676749 319.897608 
L 230.432506 316.637641 
L 231.188262 317.107459 
L 231.944018 316.28473 
L 232.699774 317.284539 
L 233.45553 318.905614 
L 234.211287 331.039292 
L 234.967043 337.236324 
L 236.478555 359.487848 
L 237.234312 354.543508 
L 237.990068 348.574782 
L 238.745824 350.829939 
L 239.50158 355.109563 
L 240.257336 355.513269 
L 241.013093 359.179755 
L 241.768849 358.099768 
L 242.524605 353.820065 
L 243.280361 356.392263 
L 244.036117 353.76841 
L 244.791874 353.917983 
L 245.54763 357.053071 
L 246.303386 356.836136 
L 247.059142 353.752155 
L 247.814898 356.371632 
L 248.570655 355.275234 
L 249.326411 349.837945 
L 250.082167 349.450806 
L 250.837923 351.489965 
L 251.593679 352.911766 
L 252.349436 351.365712 
L 253.105192 351.707838 
L 253.860948 354.925762 
L 254.616704 356.528082 
L 255.37246 355.818041 
L 256.128217 355.311807 
L 256.883973 350.420684 
L 257.639729 348.120828 
L 258.395485 343.474148 
L 259.151242 340.966108 
L 259.906998 340.73667 
L 260.662754 338.013141 
L 261.41851 336.85278 
L 262.930023 329.901945 
L 263.685779 328.235819 
L 264.441535 333.641733 
L 265.197291 334.609853 
L 265.953047 330.150139 
L 266.708804 323.876993 
L 267.46456 322.370637 
L 268.220316 321.561663 
L 268.976072 318.531135 
L 269.731828 313.896412 
L 270.487585 312.811579 
L 271.243341 312.740622 
L 272.754853 312.940209 
L 274.266366 316.982307 
L 275.022122 318.459474 
L 275.777878 316.85145 
L 276.533634 317.614631 
L 277.289391 317.116055 
L 278.045147 312.686857 
L 279.556659 307.8849 
L 280.312415 304.513809 
L 281.068172 296.008168 
L 281.823928 289.690165 
L 282.579684 280.966964 
L 283.33544 269.97454 
L 284.091196 263.696861 
L 284.846953 255.258113 
L 285.602709 241.626363 
L 286.358465 233.006941 
L 287.114221 246.882978 
L 287.869977 252.97076 
L 288.625734 248.864152 
L 289.38149 247.67476 
L 290.137246 247.693046 
L 290.893002 249.916788 
L 291.648758 256.379518 
L 292.404515 261.638165 
L 293.160271 265.591292 
L 293.916027 267.213149 
L 294.671783 264.727928 
L 295.42754 262.801769 
L 296.183296 259.379608 
L 296.939052 251.722406 
L 297.694808 251.708379 
L 298.450564 258.135318 
L 299.206321 257.397769 
L 300.717833 253.584055 
L 301.473589 252.004711 
L 302.229345 251.407827 
L 302.985102 254.236971 
L 303.740858 254.115922 
L 304.496614 252.832675 
L 305.25237 249.749398 
L 306.763883 235.003276 
L 307.519639 236.526667 
L 308.275395 237.704025 
L 309.786907 243.794933 
L 310.542664 245.041529 
L 311.29842 246.771228 
L 312.054176 255.69339 
L 312.809932 258.663589 
L 313.565688 249.79441 
L 314.321445 242.559747 
L 315.077201 245.873166 
L 315.832957 251.96681 
L 316.588713 252.509799 
L 317.34447 251.073671 
L 318.100226 243.268498 
L 319.611738 217.164264 
L 320.367494 222.589207 
L 321.123251 223.081257 
L 321.879007 232.089499 
L 322.634763 232.531027 
L 323.390519 228.96582 
L 324.146275 232.01229 
L 324.902032 229.930462 
L 325.657788 229.288253 
L 326.413544 231.153458 
L 327.1693 230.432633 
L 327.925056 228.296415 
L 328.680813 219.827191 
L 330.192325 214.202505 
L 330.948081 212.415916 
L 331.703837 211.349214 
L 332.459594 199.625493 
L 333.21535 186.082361 
L 333.971106 186.631263 
L 334.726862 179.729817 
L 335.482619 180.931479 
L 336.238375 183.318664 
L 336.994131 171.731661 
L 337.749887 142.219411 
L 338.505643 123.975444 
L 339.2614 125.019796 
L 340.017156 118.830892 
L 340.772912 119.758649 
L 341.528668 136.674123 
L 342.284424 129.294498 
L 343.040181 130.044471 
L 343.795937 127.520959 
L 345.307449 88.887273 
L 346.063205 89.883955 
L 346.818962 93.228164 
L 347.574718 110.080808 
L 348.330474 118.796195 
L 349.08623 106.624693 
L 349.841986 112.36613 
L 350.597743 140.195256 
L 351.353499 151.853647 
L 352.109255 155.330549 
L 352.865011 188.532572 
L 353.620767 188.061504 
L 354.376524 157.518538 
L 355.13228 154.620664 
L 355.888036 161.749048 
L 356.643792 159.801007 
L 357.399549 160.122776 
L 358.155305 165.589488 
L 358.911061 158.917012 
L 359.666817 161.274385 
L 360.422573 168.266637 
L 361.17833 167.930919 
L 361.934086 165.336137 
L 362.689842 161.273916 
L 363.445598 164.167844 
L 364.201354 160.57466 
L 364.957111 163.451239 
L 365.712867 162.898898 
L 366.468623 153.933755 
L 367.224379 147.217048 
L 368.735892 157.553353 
L 369.491648 159.039546 
L 370.247404 147.365214 
L 371.00316 137.716131 
L 371.758916 130.287039 
L 372.514673 133.522624 
L 373.270429 150.067839 
L 374.026185 162.757453 
L 374.781941 180.356319 
L 375.537698 165.005576 
L 376.293454 165.735623 
L 377.04921 173.343358 
L 377.804966 167.028481 
L 378.560722 163.765701 
L 379.316479 158.366391 
L 380.827991 153.721821 
L 381.583747 147.474346 
L 382.339503 149.150006 
L 383.09526 137.794903 
L 383.851016 164.321272 
L 384.606772 147.301603 
L 386.118284 174.78661 
L 386.874041 194.633483 
L 387.629797 198.360454 
L 388.385553 179.256874 
L 389.141309 177.287734 
L 389.897065 178.53558 
L 390.652822 148.363147 
L 391.408578 160.795971 
L 392.164334 184.995887 
L 392.92009 183.347383 
L 393.675847 182.491365 
L 394.431603 171.32608 
L 395.187359 163.634258 
L 395.943115 160.049827 
L 396.698871 149.180092 
L 397.454628 146.064228 
L 398.210384 156.516659 
L 398.96614 160.698444 
L 399.721896 163.482654 
L 400.477652 143.752024 
L 401.233409 145.398418 
L 401.989165 149.156648 
L 402.744921 157.618683 
L 403.500677 159.528588 
L 404.256433 167.067555 
L 405.01219 168.430745 
L 405.767946 173.633595 
L 406.523702 177.398389 
L 407.279458 192.025572 
L 408.035214 202.188548 
L 408.790971 189.879352 
L 409.546727 196.406475 
L 410.302483 204.467148 
L 411.058239 218.19627 
L 411.813995 240.959772 
L 412.569752 227.243467 
L 413.325508 235.133624 
L 414.081264 248.489869 
L 414.83702 266.77834 
L 416.348533 310.884951 
L 417.104289 265.314067 
L 417.860045 272.278929 
L 419.371558 295.758411 
L 420.127314 313.343758 
L 420.88307 312.312261 
L 421.638826 302.578428 
L 422.394582 298.756743 
L 423.150339 290.335657 
L 423.906095 283.547993 
L 424.661851 292.46109 
L 425.417607 304.610554 
L 426.173363 309.38641 
L 426.92912 327.905298 
L 428.440632 348.517109 
L 429.952144 376.996573 
L 430.707901 373.6272 
L 431.463657 353.79498 
L 432.219413 356.432743 
L 432.975169 344.989256 
L 433.730926 343.604731 
L 434.486682 350.58616 
L 435.242438 348.524299 
L 435.998194 343.644781 
L 436.75395 343.186099 
L 437.509707 341.739135 
L 438.265463 339.383638 
L 439.021219 339.53071 
L 439.776975 336.898769 
L 440.532731 332.258068 
L 442.044244 306.652214 
L 442.8 303.669668 
L 443.555756 302.901018 
L 444.311512 308.647455 
L 445.067269 304.771849 
L 445.823025 308.151068 
L 446.578781 310.321084 
L 447.334537 308.545201 
L 448.090293 312.892891 
L 448.84605 319.882916 
L 449.601806 316.670306 
L 450.357562 319.451077 
L 451.113318 323.0452 
L 451.869074 325.632558 
L 453.380587 328.605648 
L 454.136343 330.046868 
L 454.892099 325.632949 
L 455.647856 324.193331 
L 456.403612 322.48942 
L 457.159368 320.10751 
L 457.915124 318.826686 
L 458.67088 314.916069 
L 459.426637 314.857616 
L 460.182393 314.663343 
L 460.938149 315.698943 
L 462.449661 310.724386 
L 463.205418 307.467753 
L 463.961174 297.871497 
L 464.71693 281.124195 
L 465.472686 282.726984 
L 466.228442 283.156009 
L 466.984199 281.717485 
L 467.739955 285.353493 
L 469.251467 276.844727 
L 470.007223 260.336085 
L 470.76298 247.790104 
L 471.518736 248.880876 
L 472.274492 246.39925 
L 473.030248 245.863945 
L 473.786005 244.15519 
L 474.541761 238.810426 
L 475.297517 229.555983 
L 476.053273 231.71924 
L 476.809029 231.232386 
L 477.564786 227.069512 
L 478.320542 229.971724 
L 479.076298 231.382975 
L 479.832054 230.543445 
L 480.58781 225.827605 
L 481.343567 228.176226 
L 482.099323 225.145854 
L 482.855079 226.20646 
L 483.610835 224.42878 
L 484.366591 224.3908 
L 485.122348 222.158775 
L 485.878104 203.276349 
L 486.63386 205.584802 
L 487.389616 205.18938 
L 488.145372 207.631073 
L 488.901129 215.035705 
L 489.656885 215.711987 
L 490.412641 208.688632 
L 491.168397 204.437296 
L 491.924153 202.18042 
L 492.67991 201.759053 
L 493.435666 202.244188 
L 494.191422 199.525504 
L 494.947178 198.86325 
L 495.702935 199.275552 
L 496.458691 202.257317 
L 497.214447 206.982534 
L 497.970203 208.466539 
L 498.725959 219.521168 
L 499.481716 221.132084 
L 500.237472 222.159517 
L 500.993228 223.716551 
L 501.748984 220.494407 
L 502.50474 208.049236 
L 503.260497 206.120888 
L 504.016253 208.800694 
L 504.772009 210.997397 
L 505.527765 218.302393 
L 507.039278 227.549333 
L 507.795034 230.366052 
L 508.55079 235.556398 
L 509.306546 249.160015 
L 510.062302 250.575564 
L 510.818059 259.137315 
L 511.573815 259.27032 
L 512.329571 251.171511 
L 513.085327 250.259539 
L 513.841084 249.13282 
L 514.59684 248.780965 
L 515.352596 248.130003 
L 516.108352 250.137162 
L 516.864108 251.562401 
L 517.619865 246.250615 
L 518.375621 244.160152 
L 519.131377 243.977953 
L 519.887133 250.714822 
L 521.398646 254.314883 
L 522.154402 256.685853 
L 522.910158 266.576878 
L 523.665914 268.857667 
L 524.42167 269.996421 
L 525.177427 271.493398 
L 525.933183 286.491934 
L 526.688939 288.01892 
L 527.444695 291.376102 
L 528.956208 299.482569 
L 529.711964 293.735819 
L 530.46772 293.572492 
L 531.223476 303.154525 
L 531.979233 307.170952 
L 532.734989 305.949519 
L 533.490745 305.552639 
L 534.246501 300.216327 
L 535.002257 288.506712 
L 537.269526 304.724961 
L 538.025282 316.311613 
L 538.781038 321.877688 
L 539.536795 319.915347 
L 540.292551 319.00486 
L 541.048307 314.869025 
L 541.804063 312.013155 
L 542.559819 313.789976 
L 543.315576 313.682446 
L 544.071332 314.208686 
L 544.827088 312.181873 
L 545.582844 316.018406 
L 546.3386 316.668274 
L 547.094357 312.969748 
L 548.605869 299.424741 
L 549.361625 301.705842 
L 550.117381 305.359512 
L 551.628894 298.27282 
L 552.38465 294.924039 
L 553.896163 284.716754 
L 554.651919 284.229471 
L 555.407675 282.384232 
L 556.163431 277.300166 
L 556.919187 276.299419 
L 557.674944 279.557471 
L 558.4307 278.606622 
L 559.186456 276.061697 
L 559.942212 275.291171 
L 560.697968 272.407402 
L 561.453725 267.358033 
L 562.209481 266.811318 
L 562.965237 266.574182 
L 563.720993 261.361838 
L 564.476749 263.503838 
L 565.232506 264.671506 
L 565.988262 266.143477 
L 566.744018 264.9163 
L 567.499774 261.636289 
L 568.25553 259.515232 
L 569.011287 256.758373 
L 569.767043 254.958186 
L 570.522799 253.878981 
L 571.278555 251.998147 
L 572.034312 251.800592 
L 572.790068 248.616115 
L 573.545824 243.295889 
L 574.30158 239.818778 
L 575.057336 240.260984 
L 575.813093 238.465174 
L 576.568849 238.082411 
L 577.324605 240.904131 
L 578.080361 246.991289 
L 578.836117 248.131566 
L 579.591874 242.518954 
L 580.34763 241.476009 
L 581.103386 238.517571 
L 581.859142 228.27766 
L 582.614898 211.822626 
L 583.370655 217.656745 
L 584.126411 218.567623 
L 585.637923 201.551027 
L 586.393679 209.567548 
L 587.149436 211.50793 
L 587.905192 205.293315 
L 588.660948 183.502739 
L 589.416704 194.602381 
L 590.17246 188.532415 
L 590.928217 172.102272 
L 591.683973 172.180223 
L 592.439729 178.087956 
L 593.195485 187.807527 
L 593.951242 189.402383 
L 594.706998 181.304785 
L 595.462754 179.378626 
L 596.21851 174.972873 
L 596.974266 173.94837 
L 597.730023 173.987912 
L 598.485779 182.701267 
L 599.241535 194.759794 
L 599.997291 201.432869 
L 600.753047 205.952092 
L 601.508804 200.749867 
L 602.26456 189.447513 
L 603.020316 188.177942 
L 603.776072 189.172906 
L 604.531828 188.959487 
L 605.287585 186.809086 
L 606.043341 185.71132 
L 606.799097 192.421619 
L 607.554853 198.119294 
L 608.310609 193.567406 
L 609.066366 193.640551 
L 609.822122 192.131383 
L 610.577878 186.580311 
L 611.333634 178.263629 
L 612.089391 178.004651 
L 612.845147 176.740342 
L 613.600903 175.145577 
L 615.112415 170.064636 
L 615.868172 168.759118 
L 616.623928 164.460581 
L 617.379684 169.829571 
L 618.13544 177.076112 
L 618.891196 182.805514 
L 619.646953 182.345282 
L 620.402709 180.115237 
L 621.158465 171.799961 
L 621.914221 170.393634 
L 622.669977 167.155079 
L 623.425734 173.002795 
L 624.18149 184.148074 
L 624.937246 178.478689 
L 625.693002 187.669676 
L 626.448758 180.726813 
L 627.204515 179.628383 
L 627.960271 176.625206 
L 628.716027 177.231624 
L 629.471783 175.129791 
L 630.22754 177.775212 
L 630.983296 181.479365 
L 631.739052 179.431649 
L 632.494808 178.618532 
L 633.250564 176.00394 
L 634.006321 176.533618 
L 634.762077 175.56585 
L 635.517833 178.75611 
L 636.273589 181.148961 
L 637.029345 184.149754 
L 637.785102 185.933413 
L 638.540858 188.72747 
L 640.05237 180.304508 
L 640.808126 181.338545 
L 641.563883 180.56755 
L 642.319639 181.215229 
L 643.075395 180.307673 
L 643.831151 172.626909 
L 645.342664 169.24222 
L 646.09842 166.625401 
L 646.854176 160.289737 
L 647.609932 158.351855 
L 648.365688 154.743823 
L 649.121445 147.981948 
L 649.877201 151.878653 
L 650.632957 149.66679 
L 651.388713 149.343888 
L 652.14447 154.370009 
L 652.900226 156.20376 
L 653.655982 163.233366 
L 654.411738 164.06891 
L 655.923251 160.576535 
L 656.679007 159.907912 
L 657.434763 158.572346 
L 658.190519 170.778428 
L 658.946275 176.027123 
L 659.702032 165.311325 
L 660.457788 164.579208 
L 661.213544 159.126289 
L 661.9693 159.003755 
L 662.725056 156.35427 
L 663.480813 152.246881 
L 664.236569 147.345521 
L 664.992325 138.998205 
L 665.748081 135.88953 
L 666.503837 137.868517 
L 667.259594 144.413926 
L 668.01535 146.778801 
L 668.771106 152.387857 
L 669.526862 154.423539 
L 670.282619 161.340692 
L 671.038375 163.773516 
L 671.794131 167.764467 
L 672.549887 167.402921 
L 673.305643 166.065089 
L 675.572912 185.991398 
L 677.084424 191.913978 
L 677.840181 189.778542 
L 678.595937 188.816244 
L 679.351693 184.212623 
L 680.107449 190.153959 
L 680.863205 197.240456 
L 681.618962 206.133861 
L 682.374718 213.545604 
L 683.130474 222.865065 
L 683.88623 211.723693 
L 684.641986 214.882225 
L 685.397743 236.104988 
L 686.153499 239.065965 
L 686.909255 234.148195 
L 687.665011 231.514808 
L 688.420767 233.42862 
L 689.176524 237.707932 
L 689.93228 246.346579 
L 690.688036 256.715549 
L 691.443792 256.008947 
L 692.199549 258.378354 
L 692.955305 262.308819 
L 695.222573 249.121685 
L 695.97833 251.182608 
L 697.489842 251.288106 
L 698.245598 253.875347 
L 699.001354 250.336279 
L 699.757111 251.735574 
L 700.512867 260.155253 
L 701.268623 266.902906 
L 702.024379 269.549109 
L 703.535892 263.758128 
L 704.291648 265.728049 
L 705.047404 262.452922 
L 705.80316 257.063771 
L 706.558916 254.116859 
L 707.314673 255.80936 
L 708.070429 252.880149 
L 708.826185 251.575686 
L 709.581941 249.003722 
L 710.337698 256.723832 
L 711.093454 254.092634 
L 711.84921 250.436776 
L 712.604966 251.586235 
L 714.116479 259.703878 
L 714.872235 259.71982 
L 715.627991 264.582028 
L 717.139503 266.713635 
L 717.89526 270.329482 
L 718.651016 278.504406 
L 719.406772 276.9673 
L 720.162528 280.334601 
L 720.918284 287.61037 
L 721.674041 290.795003 
L 723.185553 293.130182 
L 723.941309 291.556933 
L 724.697065 299.339873 
L 725.452822 316.561057 
L 726.208578 314.819011 
L 726.964334 311.431548 
L 727.72009 314.389986 
L 728.475847 312.709832 
L 729.231603 307.157511 
L 729.987359 309.185417 
L 730.743115 310.569199 
L 731.498871 312.761409 
L 732.254628 309.980794 
L 733.010384 309.462838 
L 733.76614 307.319118 
L 734.521896 307.681719 
L 735.277652 309.28185 
L 736.789165 318.324281 
L 737.544921 321.604644 
L 738.300677 316.510105 
L 739.056433 314.973546 
L 740.567946 334.21658 
L 741.323702 340.251848 
L 742.079458 343.209856 
L 742.835214 335.981757 
L 744.346727 330.018228 
L 745.102483 330.023698 
L 745.858239 332.152257 
L 746.613995 330.967866 
L 748.125508 319.931523 
L 748.881264 320.875535 
L 749.63702 320.849395 
L 751.148533 316.898963 
L 751.904289 317.819844 
L 752.660045 314.597856 
L 753.415801 309.984076 
L 754.171558 300.042725 
L 754.927314 293.867691 
L 755.68307 292.051133 
L 756.438826 289.346007 
L 757.194582 281.535559 
L 757.950339 281.390597 
L 758.706095 283.567373 
L 760.217607 275.76177 
L 760.973363 269.869979 
L 761.72912 268.975825 
L 762.484876 259.521054 
L 763.240632 246.031335 
L 763.996388 248.0222 
L 764.752144 249.38539 
L 765.507901 266.192866 
L 766.263657 265.267609 
L 767.019413 268.040566 
L 767.775169 271.312254 
L 768.530926 273.335628 
L 769.286682 276.949912 
L 770.042438 282.798019 
L 770.798194 282.15943 
L 771.55395 270.374807 
L 772.309707 268.37347 
L 773.065463 271.533253 
L 773.821219 264.830144 
L 774.576975 265.125929 
L 776.088488 273.038866 
L 776.844244 274.185552 
L 777.6 273.164748 
L 777.6 273.164748 
" style="fill:none;stroke:#e24a33;stroke-linecap:square;stroke-width:1.5;"/>
   </g>
   <g id="patch_3">
    <path d="M 108 504 
L 108 69.12 
" style="fill:none;stroke:#ffffff;stroke-linecap:square;stroke-linejoin:miter;"/>
   </g>
   <g id="patch_4">
    <path d="M 777.6 504 
L 777.6 69.12 
" style="fill:none;stroke:#ffffff;stroke-linecap:square;stroke-linejoin:miter;"/>
   </g>
   <g id="patch_5">
    <path d="M 108 504 
L 777.6 504 
" style="fill:none;stroke:#ffffff;stroke-linecap:square;stroke-linejoin:miter;"/>
   </g>
   <g id="patch_6">
    <path d="M 108 69.12 
L 777.6 69.12 
" style="fill:none;stroke:#ffffff;stroke-linecap:square;stroke-linejoin:miter;"/>
   </g>
   <g id="text_17">
    <!-- Weekly Perforamnce of NSE_20 Index -->
    <defs>
     <path d="M 3.328125 72.90625 
L 13.28125 72.90625 
L 28.609375 11.28125 
L 43.890625 72.90625 
L 54.984375 72.90625 
L 70.3125 11.28125 
L 85.59375 72.90625 
L 95.609375 72.90625 
L 77.296875 0 
L 64.890625 0 
L 49.515625 63.28125 
L 33.984375 0 
L 21.578125 0 
z
" id="DejaVuSans-87"/>
     <path d="M 9.078125 75.984375 
L 18.109375 75.984375 
L 18.109375 31.109375 
L 44.921875 54.6875 
L 56.390625 54.6875 
L 27.390625 29.109375 
L 57.625 0 
L 45.90625 0 
L 18.109375 26.703125 
L 18.109375 0 
L 9.078125 0 
z
" id="DejaVuSans-107"/>
     <path d="M 9.421875 75.984375 
L 18.40625 75.984375 
L 18.40625 0 
L 9.421875 0 
z
" id="DejaVuSans-108"/>
     <path d="M 32.171875 -5.078125 
Q 28.375 -14.84375 24.75 -17.8125 
Q 21.140625 -20.796875 15.09375 -20.796875 
L 7.90625 -20.796875 
L 7.90625 -13.28125 
L 13.1875 -13.28125 
Q 16.890625 -13.28125 18.9375 -11.515625 
Q 21 -9.765625 23.484375 -3.21875 
L 25.09375 0.875 
L 2.984375 54.6875 
L 12.5 54.6875 
L 29.59375 11.921875 
L 46.6875 54.6875 
L 56.203125 54.6875 
z
" id="DejaVuSans-121"/>
     <path d="M 19.671875 64.796875 
L 19.671875 37.40625 
L 32.078125 37.40625 
Q 38.96875 37.40625 42.71875 40.96875 
Q 46.484375 44.53125 46.484375 51.125 
Q 46.484375 57.671875 42.71875 61.234375 
Q 38.96875 64.796875 32.078125 64.796875 
z
M 9.8125 72.90625 
L 32.078125 72.90625 
Q 44.34375 72.90625 50.609375 67.359375 
Q 56.890625 61.8125 56.890625 51.125 
Q 56.890625 40.328125 50.609375 34.8125 
Q 44.34375 29.296875 32.078125 29.296875 
L 19.671875 29.296875 
L 19.671875 0 
L 9.8125 0 
z
" id="DejaVuSans-80"/>
     <path d="M 37.109375 75.984375 
L 37.109375 68.5 
L 28.515625 68.5 
Q 23.6875 68.5 21.796875 66.546875 
Q 19.921875 64.59375 19.921875 59.515625 
L 19.921875 54.6875 
L 34.71875 54.6875 
L 34.71875 47.703125 
L 19.921875 47.703125 
L 19.921875 0 
L 10.890625 0 
L 10.890625 47.703125 
L 2.296875 47.703125 
L 2.296875 54.6875 
L 10.890625 54.6875 
L 10.890625 58.5 
Q 10.890625 67.625 15.140625 71.796875 
Q 19.390625 75.984375 28.609375 75.984375 
z
" id="DejaVuSans-102"/>
     <path d="M 30.609375 48.390625 
Q 23.390625 48.390625 19.1875 42.75 
Q 14.984375 37.109375 14.984375 27.296875 
Q 14.984375 17.484375 19.15625 11.84375 
Q 23.34375 6.203125 30.609375 6.203125 
Q 37.796875 6.203125 41.984375 11.859375 
Q 46.1875 17.53125 46.1875 27.296875 
Q 46.1875 37.015625 41.984375 42.703125 
Q 37.796875 48.390625 30.609375 48.390625 
z
M 30.609375 56 
Q 42.328125 56 49.015625 48.375 
Q 55.71875 40.765625 55.71875 27.296875 
Q 55.71875 13.875 49.015625 6.21875 
Q 42.328125 -1.421875 30.609375 -1.421875 
Q 18.84375 -1.421875 12.171875 6.21875 
Q 5.515625 13.875 5.515625 27.296875 
Q 5.515625 40.765625 12.171875 48.375 
Q 18.84375 56 30.609375 56 
z
" id="DejaVuSans-111"/>
     <path d="M 52 44.1875 
Q 55.375 50.25 60.0625 53.125 
Q 64.75 56 71.09375 56 
Q 79.640625 56 84.28125 50.015625 
Q 88.921875 44.046875 88.921875 33.015625 
L 88.921875 0 
L 79.890625 0 
L 79.890625 32.71875 
Q 79.890625 40.578125 77.09375 44.375 
Q 74.3125 48.1875 68.609375 48.1875 
Q 61.625 48.1875 57.5625 43.546875 
Q 53.515625 38.921875 53.515625 30.90625 
L 53.515625 0 
L 44.484375 0 
L 44.484375 32.71875 
Q 44.484375 40.625 41.703125 44.40625 
Q 38.921875 48.1875 33.109375 48.1875 
Q 26.21875 48.1875 22.15625 43.53125 
Q 18.109375 38.875 18.109375 30.90625 
L 18.109375 0 
L 9.078125 0 
L 9.078125 54.6875 
L 18.109375 54.6875 
L 18.109375 46.1875 
Q 21.1875 51.21875 25.484375 53.609375 
Q 29.78125 56 35.6875 56 
Q 41.65625 56 45.828125 52.96875 
Q 50 49.953125 52 44.1875 
z
" id="DejaVuSans-109"/>
     <path d="M 48.78125 52.59375 
L 48.78125 44.1875 
Q 44.96875 46.296875 41.140625 47.34375 
Q 37.3125 48.390625 33.40625 48.390625 
Q 24.65625 48.390625 19.8125 42.84375 
Q 14.984375 37.3125 14.984375 27.296875 
Q 14.984375 17.28125 19.8125 11.734375 
Q 24.65625 6.203125 33.40625 6.203125 
Q 37.3125 6.203125 41.140625 7.25 
Q 44.96875 8.296875 48.78125 10.40625 
L 48.78125 2.09375 
Q 45.015625 0.34375 40.984375 -0.53125 
Q 36.96875 -1.421875 32.421875 -1.421875 
Q 20.0625 -1.421875 12.78125 6.34375 
Q 5.515625 14.109375 5.515625 27.296875 
Q 5.515625 40.671875 12.859375 48.328125 
Q 20.21875 56 33.015625 56 
Q 37.15625 56 41.109375 55.140625 
Q 45.0625 54.296875 48.78125 52.59375 
z
" id="DejaVuSans-99"/>
     <path d="M 9.8125 72.90625 
L 23.09375 72.90625 
L 55.421875 11.921875 
L 55.421875 72.90625 
L 64.984375 72.90625 
L 64.984375 0 
L 51.703125 0 
L 19.390625 60.984375 
L 19.390625 0 
L 9.8125 0 
z
" id="DejaVuSans-78"/>
     <path d="M 53.515625 70.515625 
L 53.515625 60.890625 
Q 47.90625 63.578125 42.921875 64.890625 
Q 37.9375 66.21875 33.296875 66.21875 
Q 25.25 66.21875 20.875 63.09375 
Q 16.5 59.96875 16.5 54.203125 
Q 16.5 49.359375 19.40625 46.890625 
Q 22.3125 44.4375 30.421875 42.921875 
L 36.375 41.703125 
Q 47.40625 39.59375 52.65625 34.296875 
Q 57.90625 29 57.90625 20.125 
Q 57.90625 9.515625 50.796875 4.046875 
Q 43.703125 -1.421875 29.984375 -1.421875 
Q 24.8125 -1.421875 18.96875 -0.25 
Q 13.140625 0.921875 6.890625 3.21875 
L 6.890625 13.375 
Q 12.890625 10.015625 18.65625 8.296875 
Q 24.421875 6.59375 29.984375 6.59375 
Q 38.421875 6.59375 43.015625 9.90625 
Q 47.609375 13.234375 47.609375 19.390625 
Q 47.609375 24.75 44.3125 27.78125 
Q 41.015625 30.8125 33.5 32.328125 
L 27.484375 33.5 
Q 16.453125 35.6875 11.515625 40.375 
Q 6.59375 45.0625 6.59375 53.421875 
Q 6.59375 63.09375 13.40625 68.65625 
Q 20.21875 74.21875 32.171875 74.21875 
Q 37.3125 74.21875 42.625 73.28125 
Q 47.953125 72.359375 53.515625 70.515625 
z
" id="DejaVuSans-83"/>
     <path d="M 9.8125 72.90625 
L 55.90625 72.90625 
L 55.90625 64.59375 
L 19.671875 64.59375 
L 19.671875 43.015625 
L 54.390625 43.015625 
L 54.390625 34.71875 
L 19.671875 34.71875 
L 19.671875 8.296875 
L 56.78125 8.296875 
L 56.78125 0 
L 9.8125 0 
z
" id="DejaVuSans-69"/>
     <path d="M 50.984375 -16.609375 
L 50.984375 -23.578125 
L -0.984375 -23.578125 
L -0.984375 -16.609375 
z
" id="DejaVuSans-95"/>
    </defs>
    <g transform="translate(307.078875 63.12)scale(0.144 -0.144)">
     <use xlink:href="#DejaVuSans-87"/>
     <use x="98.798828" xlink:href="#DejaVuSans-101"/>
     <use x="160.322266" xlink:href="#DejaVuSans-101"/>
     <use x="221.845703" xlink:href="#DejaVuSans-107"/>
     <use x="279.755859" xlink:href="#DejaVuSans-108"/>
     <use x="307.539062" xlink:href="#DejaVuSans-121"/>
     <use x="366.71875" xlink:href="#DejaVuSans-32"/>
     <use x="398.505859" xlink:href="#DejaVuSans-80"/>
     <use x="458.761719" xlink:href="#DejaVuSans-101"/>
     <use x="520.285156" xlink:href="#DejaVuSans-114"/>
     <use x="561.398438" xlink:href="#DejaVuSans-102"/>
     <use x="596.603516" xlink:href="#DejaVuSans-111"/>
     <use x="657.785156" xlink:href="#DejaVuSans-114"/>
     <use x="698.898438" xlink:href="#DejaVuSans-97"/>
     <use x="760.177734" xlink:href="#DejaVuSans-109"/>
     <use x="857.589844" xlink:href="#DejaVuSans-110"/>
     <use x="920.96875" xlink:href="#DejaVuSans-99"/>
     <use x="975.949219" xlink:href="#DejaVuSans-101"/>
     <use x="1037.472656" xlink:href="#DejaVuSans-32"/>
     <use x="1069.259766" xlink:href="#DejaVuSans-111"/>
     <use x="1130.441406" xlink:href="#DejaVuSans-102"/>
     <use x="1165.646484" xlink:href="#DejaVuSans-32"/>
     <use x="1197.433594" xlink:href="#DejaVuSans-78"/>
     <use x="1272.238281" xlink:href="#DejaVuSans-83"/>
     <use x="1335.714844" xlink:href="#DejaVuSans-69"/>
     <use x="1398.898438" xlink:href="#DejaVuSans-95"/>
     <use x="1448.898438" xlink:href="#DejaVuSans-50"/>
     <use x="1512.521484" xlink:href="#DejaVuSans-48"/>
     <use x="1576.144531" xlink:href="#DejaVuSans-32"/>
     <use x="1607.931641" xlink:href="#DejaVuSans-73"/>
     <use x="1637.423828" xlink:href="#DejaVuSans-110"/>
     <use x="1700.802734" xlink:href="#DejaVuSans-100"/>
     <use x="1764.279297" xlink:href="#DejaVuSans-101"/>
     <use x="1825.787109" xlink:href="#DejaVuSans-120"/>
    </g>
   </g>
   <g id="legend_1">
    <g id="patch_7">
     <path d="M 766.6 82.12 
L 770.6 82.12 
Q 772.6 82.12 772.6 80.12 
L 772.6 76.12 
Q 772.6 74.12 770.6 74.12 
L 766.6 74.12 
Q 764.6 74.12 764.6 76.12 
L 764.6 80.12 
Q 764.6 82.12 766.6 82.12 
z
" style="fill:#e5e5e5;opacity:0.8;stroke:#cccccc;stroke-linejoin:miter;stroke-width:0.5;"/>
    </g>
   </g>
  </g>
 </g>
 <defs>
  <clipPath id="p572ff19138">
   <rect height="434.88" width="669.6" x="108" y="69.12"/>
  </clipPath>
 </defs>
</svg>
